<svg width="24" height="24" viewBox="0 0 24 24" fill="none" xmlns="http://www.w3.org/2000/svg">
<g clip-path="url(#clip0_2558_1206)">
<path fill-rule="evenodd" clip-rule="evenodd" d="M12 2.4C6.69807 2.4 2.4 6.69807 2.4 12C2.4 17.3019 6.69807 21.6 12 21.6C17.3019 21.6 21.6 17.3019 21.6 12C21.6 6.69807 17.3019 2.4 12 2.4ZM0 12C0 5.37258 5.37258 0 12 0C18.6274 0 24 5.37258 24 12C24 18.6274 18.6274 24 12 24C5.37258 24 0 18.6274 0 12ZM14 6C14.5523 6 15 6.52233 15 7.16667V16.8333C15 17.4777 14.5523 18 14 18C13.4477 18 13 17.4777 13 16.8333V7.16667C13 6.52233 13.4477 6 14 6ZM11 7.16667C11 6.52233 10.5523 6 10 6C9.44771 6 9 6.52233 9 7.16667V16.8333C9 17.4777 9.44771 18 10 18C10.5523 18 11 17.4777 11 16.8333V7.16667Z" fill="#C6C6C6"/>
</g>
<defs>
<clipPath id="clip0_2558_1206">
<rect width="24" height="24" fill="white"/>
</clipPath>
</defs>
</svg>
