<svg width="24" height="24" viewBox="0 0 24 24" fill="none" xmlns="http://www.w3.org/2000/svg">
<g clip-path="url(#clip0_2558_1207)">
<path fill-rule="evenodd" clip-rule="evenodd" d="M2.4 12C2.4 6.69807 6.69807 2.4 12 2.4C17.3019 2.4 21.6 6.69807 21.6 12C21.6 17.3019 17.3019 21.6 12 21.6C6.69807 21.6 2.4 17.3019 2.4 12ZM12 0C5.37258 0 0 5.37258 0 12C0 18.6274 5.37258 24 12 24C18.6274 24 24 18.6274 24 12C24 5.37258 18.6274 0 12 0ZM13 7.16667C13 6.52233 12.5523 6 12 6C11.4477 6 11 6.52233 11 7.16667V16.8333C11 17.4777 11.4477 18 12 18C12.5523 18 13 17.4777 13 16.8333V7.16667ZM16 6C16.5523 6 17 6.52233 17 7.16667V16.8333C17 17.4777 16.5523 18 16 18C15.4477 18 15 17.4777 15 16.8333V7.16667C15 6.52233 15.4477 6 16 6ZM9 7.16667C9 6.52233 8.55229 6 8 6C7.44772 6 7 6.52233 7 7.16667V16.8333C7 17.4777 7.44772 18 8 18C8.55229 18 9 17.4777 9 16.8333V7.16667Z" fill="#C6C6C6"/>
</g>
<defs>
<clipPath id="clip0_2558_1207">
<rect width="24" height="24" fill="white"/>
</clipPath>
</defs>
</svg>
