<svg width="24" height="24" viewBox="0 0 24 24" fill="none" xmlns="http://www.w3.org/2000/svg">
<path fill-rule="evenodd" clip-rule="evenodd" d="M7 2C4.23858 2 2 4.23858 2 7V17C2 19.7614 4.23858 22 7 22H17C19.7614 22 22 19.7614 22 17V7C22 4.23858 19.7614 2 17 2H7ZM4 7C4 5.34315 5.34315 4 7 4H17C18.6569 4 20 5.34315 20 7V17C20 18.6569 18.6569 20 17 20H7C5.34315 20 4 18.6569 4 17V7ZM13.01 8C13.01 7.44772 12.5623 7 12.01 7C11.4577 7 11.01 7.44772 11.01 8V12C11.01 12.5523 11.4577 13 12.01 13C12.5623 13 13.01 12.5523 13.01 12V8ZM12 15C11.4477 15 11 15.4477 11 16C11 16.5523 11.4477 17 12 17H12.01C12.5623 17 13.01 16.5523 13.01 16C13.01 15.4477 12.5623 15 12.01 15H12Z" fill="#C6C6C6"/>
</svg>
