<svg width="24" height="24" viewBox="0 0 24 24" fill="none" xmlns="http://www.w3.org/2000/svg">
<path fill-rule="evenodd" clip-rule="evenodd" d="M6.8 -2.09815e-07C4.14903 -9.39373e-08 2 2.14903 2 4.8L2 19.2C2 21.851 4.14903 24 6.8 24L16.4 24C19.051 24 21.2 21.851 21.2 19.2L21.2 4.8C21.2 2.14903 19.051 -7.45322e-07 16.4 -6.29444e-07L6.8 -2.09815e-07ZM4.4 4.8C4.4 3.47452 5.47452 2.4 6.8 2.4L16.4 2.4C17.7255 2.4 18.8 3.47452 18.8 4.8L18.8 19.2C18.8 20.5255 17.7255 21.6 16.4 21.6L6.8 21.6C5.47452 21.6 4.4 20.5255 4.4 19.2L4.4 4.8ZM7.15147 12.3515C7.6201 11.8828 8.3799 11.8828 8.84853 12.3515L10.4 13.9029L10.4 8.4C10.4 7.73726 10.9373 7.2 11.6 7.2C12.2627 7.2 12.8 7.73726 12.8 8.4L12.8 13.9029L14.3515 12.3515C14.8201 11.8828 15.5799 11.8828 16.0485 12.3515C16.5172 12.8201 16.5172 13.5799 16.0485 14.0485L12.4485 17.6485C11.9799 18.1172 11.2201 18.1172 10.7515 17.6485L7.15147 14.0485C6.68284 13.5799 6.68284 12.8201 7.15147 12.3515Z" fill="#C6C6C6"/>
</svg>
