<svg width="24" height="24" viewBox="0 0 24 24" fill="none" xmlns="http://www.w3.org/2000/svg">
<path fill-rule="evenodd" clip-rule="evenodd" d="M8 2C5.79086 2 4 3.79086 4 6V18C4 20.2091 5.79086 22 8 22H16C18.2091 22 20 20.2091 20 18V6C20 3.79086 18.2091 2 16 2H14.3575H9.64251H8ZM8 4C6.89543 4 6 4.89543 6 6V18C6 19.1046 6.89543 20 8 20H16C17.1046 20 18 19.1046 18 18V6C18 4.89543 17.1046 4 16 4H14.3575C13.9043 4 13.49 4.25604 13.2873 4.66139C12.7569 5.72221 11.2431 5.72221 10.7127 4.66139C10.51 4.25604 10.0957 4 9.64251 4H8ZM8.79289 10.2929C9.18342 9.90237 9.81658 9.90237 10.2071 10.2929L12 12.0858L13.7929 10.2929C14.1834 9.90237 14.8166 9.90237 15.2071 10.2929C15.5976 10.6834 15.5976 11.3166 15.2071 11.7071L13.4142 13.5L15.2071 15.2929C15.5976 15.6834 15.5976 16.3166 15.2071 16.7071C14.8166 17.0976 14.1834 17.0976 13.7929 16.7071L12 14.9142L10.2071 16.7071C9.81658 17.0976 9.18342 17.0976 8.79289 16.7071C8.40237 16.3166 8.40237 15.6834 8.79289 15.2929L10.5858 13.5L8.79289 11.7071C8.40237 11.3166 8.40237 10.6834 8.79289 10.2929Z" fill="#C6C6C6"/>
</svg>
