<svg width="24" height="24" viewBox="0 0 24 24" fill="none" xmlns="http://www.w3.org/2000/svg">
<path fill-rule="evenodd" clip-rule="evenodd" d="M8 2C5.79086 2 4 3.79086 4 6V18C4 20.2091 5.79086 22 8 22H16C18.2091 22 20 20.2091 20 18V6C20 3.79086 18.2091 2 16 2H14.3575H9.64251H8ZM8 4C6.89543 4 6 4.89543 6 6V18C6 19.1046 6.89543 20 8 20H16C17.1046 20 18 19.1046 18 18V6C18 4.89543 17.1046 4 16 4H14.3575C13.9043 4 13.49 4.25604 13.2873 4.66139C12.7569 5.72221 11.2431 5.72221 10.7127 4.66139C10.51 4.25604 10.0957 4 9.64251 4H8ZM8 13C8 12.4477 8.44772 12 9 12H11V10C11 9.44772 11.4477 9 12 9C12.5523 9 13 9.44772 13 10V12H15C15.5523 12 16 12.4477 16 13C16 13.5523 15.5523 14 15 14H13V16C13 16.5523 12.5523 17 12 17C11.4477 17 11 16.5523 11 16V14H9C8.44772 14 8 13.5523 8 13Z" fill="#C6C6C6"/>
</svg>
