<svg width="24" height="24" viewBox="0 0 24 24" fill="none" xmlns="http://www.w3.org/2000/svg">
<path fill-rule="evenodd" clip-rule="evenodd" d="M12 0C5.37258 0 0 5.37258 0 12C0 18.6274 5.37258 24 12 24C18.6274 24 24 18.6274 24 12C24 5.37258 18.6274 0 12 0ZM2.4 12C2.4 6.69807 6.69807 2.4 12 2.4C17.3019 2.4 21.6 6.69807 21.6 12C21.6 17.3019 17.3019 21.6 12 21.6C6.69807 21.6 2.4 17.3019 2.4 12ZM13.2 7.2C13.2 6.53726 12.6627 6 12 6C11.3373 6 10.8 6.53726 10.8 7.2V13.9029L8.04853 11.1515C7.5799 10.6828 6.8201 10.6828 6.35147 11.1515C5.88284 11.6201 5.88284 12.3799 6.35147 12.8485L11.1515 17.6485C11.3765 17.8736 11.6817 18 12 18C12.3183 18 12.6235 17.8736 12.8485 17.6485L17.6485 12.8485C18.1172 12.3799 18.1172 11.6201 17.6485 11.1515C17.1799 10.6828 16.4201 10.6828 15.9515 11.1515L13.2 13.9029V7.2Z" fill="#C6C6C6"/>
</svg>
