<svg width="24" height="24" viewBox="0 0 24 24" fill="none" xmlns="http://www.w3.org/2000/svg">
<path fill-rule="evenodd" clip-rule="evenodd" d="M2.7515 13.5515C3.22013 13.0828 3.97992 13.0828 4.44855 13.5515L10.8 19.9029V1.2C10.8 0.537259 11.3373 1.06576e-07 12 1.14479e-07C12.6628 1.22382e-07 13.2 0.537259 13.2 1.2L13.2 19.9029L19.5515 13.5515C20.0201 13.0828 20.7799 13.0828 21.2486 13.5515C21.7172 14.0201 21.7172 14.7799 21.2486 15.2485L12.8486 23.6485C12.3799 24.1172 11.6201 24.1172 11.1515 23.6485L2.7515 15.2485C2.28287 14.7799 2.28287 14.0201 2.7515 13.5515Z" fill="#C6C6C6"/>
</svg>
