<svg width="24" height="24" viewBox="0 0 24 24" fill="none" xmlns="http://www.w3.org/2000/svg">
<path fill-rule="evenodd" clip-rule="evenodd" d="M2 7C2 4.23858 4.23858 2 7 2H17C19.7614 2 22 4.23858 22 7V17C22 19.7614 19.7614 22 17 22H7C4.23858 22 2 19.7614 2 17V7ZM7 4C5.34315 4 4 5.34315 4 7V17C4 18.6569 5.34315 20 7 20H17C18.6569 20 20 18.6569 20 17V7C20 5.34315 18.6569 4 17 4H7ZM10.4143 13L12.7072 15.2929C13.0977 15.6834 13.0977 16.3166 12.7072 16.7071C12.3166 17.0976 11.6835 17.0976 11.293 16.7071L7.29295 12.7071C7.19708 12.6112 7.12474 12.5007 7.07594 12.3828C7.02705 12.2649 7.00006 12.1356 7.00006 12C7.00006 11.8644 7.02705 11.7351 7.07594 11.6172C7.12438 11.5001 7.19601 11.3904 7.29084 11.295M7.29329 11.2926L11.293 7.29289C11.6835 6.90237 12.3166 6.90237 12.7072 7.29289C13.0977 7.68342 13.0977 8.31658 12.7072 8.70711L10.4143 11H16.0001C16.5523 11 17.0001 11.4477 17.0001 12C17.0001 12.5523 16.5523 13 16.0001 13H10.4143" fill="#C6C6C6"/>
</svg>
