<svg width="24" height="24" viewBox="0 0 24 24" fill="none" xmlns="http://www.w3.org/2000/svg">
<path d="M12.6338 0C14.9062 0.000124254 16.9837 1.28395 18 3.31641L18.7422 4.80176C21.6177 4.85599 23.8101 7.41839 23.4014 10.2793L22.1768 18.8486C21.7545 21.8044 19.223 23.9998 16.2373 24H7.7627C4.77697 23.9998 2.24554 21.8044 1.82324 18.8486L0.598635 10.2793C0.189981 7.41872 2.38186 4.85655 5.25684 4.80176L6 3.31641C7.01635 1.28371 9.09384 0.000134201 11.3662 0H12.6338ZM5.35059 7.2002C3.89019 7.20035 2.76808 8.4937 2.97461 9.93945L4.19922 18.5088C4.45257 20.2822 5.9713 21.5994 7.7627 21.5996H16.2373C18.0287 21.5995 19.5474 20.2822 19.8008 18.5088L21.0254 9.93945C21.2319 8.4937 20.1098 7.20034 18.6494 7.2002H5.35059ZM14.1514 11.1514C14.62 10.6827 15.38 10.6827 15.8486 11.1514C16.3173 11.62 16.3173 12.38 15.8486 12.8486L13.6973 15L15.8486 17.1514C16.3173 17.62 16.3173 18.38 15.8486 18.8486C15.38 19.3173 14.62 19.3173 14.1514 18.8486L12 16.6973L9.84863 18.8486C9.38001 19.3173 8.62 19.3173 8.15137 18.8486C7.68274 18.38 7.68274 17.62 8.15137 17.1514L10.3027 15L8.15137 12.8486C7.68274 12.38 7.68274 11.62 8.15137 11.1514C8.62 10.6827 9.38001 10.6827 9.84863 11.1514L12 13.3027L14.1514 11.1514ZM11.3662 2.40039C10.0027 2.40052 8.75619 3.17024 8.14649 4.38965L7.94141 4.7998H16.0586L15.8535 4.38965C15.2437 3.17028 13.9971 2.40051 12.6338 2.40039H11.3662Z" fill="#C6C6C6"/>
</svg>
