<svg width="24" height="24" viewBox="0 0 24 24" fill="none" xmlns="http://www.w3.org/2000/svg">
<path fill-rule="evenodd" clip-rule="evenodd" d="M7.00016 4.76363C7.84716 3.06962 9.57838 2 11.4721 2H12.5279C14.4218 2 16.1531 3.07003 17 4.76396L17.6184 6.00073C20.0147 6.04586 21.8414 8.18157 21.5008 10.5657L20.4806 17.7071C20.1287 20.1704 18.0191 22 15.5308 22H8.46919C5.98093 22 3.87133 20.1704 3.51944 17.7071L2.49924 10.5657C2.15865 8.18156 3.98534 6.04586 6.38161 6.00073L7.00016 4.76363ZM17.0217 8C17.0077 8.00029 16.9938 8.00029 16.9799 8H7.02013C7.00622 8.00029 6.99228 8.00029 6.97834 8H6.45903C5.24193 8 4.30701 9.07798 4.47914 10.2828L5.49934 17.4243C5.71047 18.9022 6.97624 20 8.46919 20H15.5308C17.0238 20 18.2895 18.9022 18.5007 17.4243L19.5209 10.2828C19.693 9.07798 18.7581 8 17.541 8H17.0217ZM15.2112 5.65838L15.382 6H8.61804L8.78901 5.65805C9.29715 4.64179 10.3357 4 11.4721 4H12.5279C13.6642 4 14.703 4.64202 15.2112 5.65838ZM13 11C13 10.4477 12.5523 10 12 10C11.4477 10 11 10.4477 11 11V13H9C8.44772 13 8 13.4477 8 14C8 14.5523 8.44772 15 9 15H11V17C11 17.5523 11.4477 18 12 18C12.5523 18 13 17.5523 13 17V15H15C15.5523 15 16 14.5523 16 14C16 13.4477 15.5523 13 15 13H13V11Z" fill="#C6C6C6"/>
</svg>
