<svg width="24" height="24" viewBox="0 0 24 24" fill="none" xmlns="http://www.w3.org/2000/svg">
<path fill-rule="evenodd" clip-rule="evenodd" d="M11.4721 2C9.57838 2 7.84716 3.06962 7.00016 4.76363L6.38161 6.00073C3.98534 6.04586 2.15865 8.18156 2.49924 10.5657L3.51944 17.7071C3.87133 20.1704 5.98093 22 8.46919 22H15.5308C18.0191 22 20.1287 20.1704 20.4806 17.7071L21.5008 10.5657C21.8414 8.18157 20.0147 6.04586 17.6184 6.00073L17 4.76396C16.1531 3.07003 14.4218 2 12.5279 2H11.4721ZM16.9799 8C16.9938 8.00029 17.0077 8.00029 17.0217 8H17.541C18.7581 8 19.693 9.07798 19.5209 10.2828L18.5007 17.4243C18.2895 18.9022 17.0238 20 15.5308 20H8.46919C6.97624 20 5.71047 18.9022 5.49934 17.4243L4.47914 10.2828C4.30701 9.07798 5.24193 8 6.45903 8H6.97834C6.99228 8.00029 7.00622 8.00029 7.02013 8H16.9799ZM15.382 6L15.2112 5.65838C14.703 4.64202 13.6642 4 12.5279 4H11.4721C10.3357 4 9.29715 4.64179 8.78901 5.65805L8.61804 6H15.382ZM8 14C8 13.4477 8.44772 13 9 13H15C15.5523 13 16 13.4477 16 14C16 14.5523 15.5523 15 15 15H9C8.44772 15 8 14.5523 8 14Z" fill="#C6C6C6"/>
</svg>
