<svg width="24" height="24" viewBox="0 0 24 24" fill="none" xmlns="http://www.w3.org/2000/svg">
<path fill-rule="evenodd" clip-rule="evenodd" d="M7.00011 4.76363C7.84712 3.06962 9.57833 2 11.4721 2H12.5278C14.4217 2 16.153 3.07003 17 4.76396L17.6184 6.00073C20.0147 6.04582 21.8414 8.18154 21.5008 10.5657L21.2103 12.5992C21.1322 13.1459 20.6257 13.5258 20.0789 13.4477C19.5322 13.3696 19.1523 12.8631 19.2304 12.3163L19.5209 10.2828C19.693 9.07798 18.7581 8 17.541 8H17.0216C17.0077 8.00029 16.9937 8.00029 16.9798 8H7.02008C7.00617 8.00029 6.99224 8.00029 6.97829 8H6.45906C5.24196 8 4.30704 9.07798 4.47917 10.2828L5.49937 17.4243C5.7105 18.9022 6.97627 20 8.46922 20H10C10.5523 20 11 20.4477 11 21C11 21.5523 10.5523 22 10 22H8.46922C5.98096 22 3.87136 20.1704 3.51947 17.7071L2.49927 10.5657C2.15868 8.18159 3.98533 6.04591 6.38156 6.00073L7.00011 4.76363ZM15.2111 5.65838L15.3819 6H8.61799L8.78897 5.65805C9.2971 4.64179 10.3357 4 11.4721 4H12.5278C13.6642 4 14.703 4.64202 15.2111 5.65838ZM14 18C14 16.8954 14.8954 16 16 16C17.1046 16 18 16.8954 18 18C18 19.1046 17.1046 20 16 20C14.8954 20 14 19.1046 14 18ZM16 14C13.7909 14 12 15.7909 12 18C12 20.2091 13.7909 22 16 22C18.2091 22 20 20.2091 20 18C20 15.7909 18.2091 14 16 14Z" fill="#C6C6C6"/>
</svg>
