<svg width="24" height="24" viewBox="0 0 24 24" fill="none" xmlns="http://www.w3.org/2000/svg">
<path fill-rule="evenodd" clip-rule="evenodd" d="M14.5528 2.10561C15.0468 1.85862 15.6474 2.05884 15.8944 2.55282L17.6184 6.00075C20.0147 6.04588 21.8414 8.18159 21.5008 10.5657L20.4806 17.7071C20.1287 20.1704 18.0191 22 15.5308 22H8.46919C5.98093 22 3.87133 20.1704 3.51944 17.7071L2.49924 10.5657C2.15865 8.18159 3.98534 6.04589 6.38161 6.00076L8.10557 2.55284C8.35256 2.05886 8.95323 1.85864 9.44721 2.10563C9.94119 2.35262 10.1414 2.95329 9.89442 3.44727L8.61804 6.00003H15.382L14.1056 3.44725C13.8586 2.95327 14.0588 2.3526 14.5528 2.10561ZM4.47914 10.2829C4.30701 9.078 5.24193 8.00003 6.45903 8.00003H17.541C18.7581 8.00003 19.693 9.078 19.5209 10.2829L18.5007 17.4243C18.2895 18.9022 17.0238 20 15.5308 20H8.46919C6.97624 20 5.71047 18.9022 5.49934 17.4243L4.47914 10.2829ZM15.7295 12.684C16.1073 12.2811 16.0869 11.6482 15.6839 11.2705C15.281 10.8928 14.6482 10.9132 14.2705 11.3161L11.1559 14.6383L9.62852 13.4041C9.19896 13.0569 8.56933 13.1238 8.22221 13.5533C7.87509 13.9829 7.94192 14.6125 8.37148 14.9596L10.6215 16.7778C11.0289 17.107 11.6213 17.0661 11.9795 16.684L15.7295 12.684Z" fill="#C6C6C6"/>
</svg>
