<svg width="24" height="24" viewBox="0 0 24 24" fill="none" xmlns="http://www.w3.org/2000/svg">
<path fill-rule="evenodd" clip-rule="evenodd" d="M6 0C2.68629 0 0 2.68629 0 6V18C0 21.3137 2.68629 24 6 24H18C21.3137 24 24 21.3137 24 18V6C24 2.68629 21.3137 0 18 0H6ZM2.4 6C2.4 4.01178 4.01178 2.4 6 2.4H18C19.9882 2.4 21.6 4.01178 21.6 6V18C21.6 19.9882 19.9882 21.6 18 21.6H6C4.01178 21.6 2.4 19.9882 2.4 18V6ZM8.4 14.4C8.4 13.7373 7.86274 13.2 7.2 13.2C6.53726 13.2 6 13.7373 6 14.4V16.8C6 17.4627 6.53726 18 7.2 18C7.86274 18 8.4 17.4627 8.4 16.8V14.4ZM16.8 6C17.4627 6 18 6.53726 18 7.2L18 16.8C18 17.4627 17.4627 18 16.8 18C16.1373 18 15.6 17.4627 15.6 16.8V7.2C15.6 6.53726 16.1373 6 16.8 6ZM13.2 10.8C13.2 10.1373 12.6627 9.6 12 9.6C11.3373 9.6 10.8 10.1373 10.8 10.8V16.8C10.8 17.4627 11.3373 18 12 18C12.6627 18 13.2 17.4627 13.2 16.8V10.8Z" fill="#C6C6C6"/>
</svg>
