<svg width="24" height="24" viewBox="0 0 24 24" fill="none" xmlns="http://www.w3.org/2000/svg">
<path d="M18 0C21.3137 0 24 2.68629 24 6V18C24 21.3137 21.3137 24 18 24H6C2.68629 24 0 21.3137 0 18V6C1.28855e-07 2.68629 2.68629 1.28851e-07 6 0H18ZM6 2.40039C4.01178 2.40039 2.40039 4.01178 2.40039 6V18C2.40039 19.9882 4.01178 21.5996 6 21.5996H18C19.9882 21.5996 21.5996 19.9882 21.5996 18V6C21.5996 4.01178 19.9882 2.40039 18 2.40039H6ZM7 10C7.5522 10 7.99987 10.5115 8 11.1426V16.8574C7.99987 17.4885 7.5522 18 7 18C6.4478 18 6.00013 17.4885 6 16.8574V11.1426C6.00013 10.5115 6.4478 10 7 10ZM12 6C12.5523 6 13 6.53745 13 7.2002V16.7998C13 17.4625 12.5523 18 12 18C11.4477 18 11 17.4625 11 16.7998V7.2002C11 6.53745 11.4477 6 12 6ZM17 12C17.5523 12 18 12.5375 18 13.2002V16.7998C18 17.4625 17.5523 18 17 18C16.4477 18 16 17.4625 16 16.7998V13.2002C16 12.5375 16.4477 12 17 12Z" fill="#C6C6C6"/>
</svg>
