<svg width="24" height="24" viewBox="0 0 24 24" fill="none" xmlns="http://www.w3.org/2000/svg">
<path fill-rule="evenodd" clip-rule="evenodd" d="M7.2 0C7.86274 0 8.4 0.537258 8.4 1.2H15.6C15.6 0.537258 16.1373 0 16.8 0C17.4627 0 18 0.537258 18 1.2C21.3137 1.2 24 3.88629 24 7.2V18C24 21.3137 21.3137 24 18 24H6C2.68629 24 0 21.3137 0 18V7.2C0 3.88629 2.68629 1.2 6 1.2C6 0.537258 6.53726 0 7.2 0ZM8.4 3.6H15.6V4.8C15.6 5.46274 16.1373 6 16.8 6C17.4627 6 18 5.46274 18 4.8V3.6C19.9882 3.6 21.6 5.21178 21.6 7.2V18C21.6 19.9882 19.9882 21.6 18 21.6H6C4.01178 21.6 2.4 19.9882 2.4 18V7.2C2.4 5.21178 4.01178 3.6 6 3.6V4.8C6 5.46274 6.53726 6 7.2 6C7.86274 6 8.4 5.46274 8.4 4.8V3.6ZM16.4754 11.6207C16.9287 11.1372 16.9042 10.3778 16.4207 9.92456C15.9372 9.47128 15.1778 9.49578 14.7245 9.97927L10.987 13.9659L9.15419 12.4848C8.63871 12.0683 7.88316 12.1485 7.46662 12.664C7.05007 13.1794 7.13027 13.935 7.64574 14.3515L10.3457 16.5334C10.8346 16.9284 11.5455 16.8793 11.9754 16.4207L16.4754 11.6207Z" fill="#C6C6C6"/>
</svg>
