<svg width="24" height="24" viewBox="0 0 24 24" fill="none" xmlns="http://www.w3.org/2000/svg">
<path fill-rule="evenodd" clip-rule="evenodd" d="M10.2902 2C8.49207 2 6.89571 3.15059 6.3271 4.85641C6.26345 5.04736 6.10666 5.19256 5.91139 5.24138L5.10615 5.44269C3.28064 5.89906 2 7.53928 2 9.42097V17C2 19.7614 4.23858 22 7 22H17C19.7614 22 22 19.7614 22 17V9.42097C22 7.53928 20.7194 5.89906 18.8938 5.44268L18.0886 5.24138C17.8933 5.19256 17.7365 5.04736 17.6729 4.85641C17.1043 3.15059 15.5079 2 13.7098 2H10.2902ZM8.22447 5.48886C8.52085 4.59973 9.35293 4 10.2902 4H13.7098C14.6471 4 15.4791 4.59973 15.7755 5.48886C16.0554 6.32853 16.7449 6.967 17.6035 7.18166L18.4088 7.38297C19.3439 7.61676 20 8.45702 20 9.42097V17C20 18.6569 18.6569 20 17 20H7C5.34315 20 4 18.6569 4 17V9.42097C4 8.45702 4.65605 7.61676 5.59123 7.38297L6.39646 7.18166C7.25511 6.967 7.94458 6.32853 8.22447 5.48886ZM10 13C10 11.8954 10.8954 11 12 11C13.1046 11 14 11.8954 14 13C14 14.1046 13.1046 15 12 15C10.8954 15 10 14.1046 10 13ZM12 9C9.79086 9 8 10.7909 8 13C8 15.2091 9.79086 17 12 17C14.2091 17 16 15.2091 16 13C16 10.7909 14.2091 9 12 9Z" fill="#C6C6C6"/>
</svg>
