<svg width="24" height="24" viewBox="0 0 24 24" fill="none" xmlns="http://www.w3.org/2000/svg">
<path fill-rule="evenodd" clip-rule="evenodd" d="M12 0C5.37258 0 0 5.37258 0 12C0 18.6274 5.37258 24 12 24C18.6274 24 24 18.6274 24 12C24 5.37258 18.6274 0 12 0ZM2.4 12C2.4 6.69807 6.69807 2.4 12 2.4C17.3019 2.4 21.6 6.69807 21.6 12C21.6 17.3019 17.3019 21.6 12 21.6C6.69807 21.6 2.4 17.3019 2.4 12ZM17.7219 9.16825C18.1462 8.65912 18.0774 7.90244 17.5682 7.47816C17.0591 7.05389 16.3024 7.12268 15.8781 7.63181L10.6802 13.8694L8.00722 11.4394C7.51683 10.9936 6.75789 11.0297 6.31208 11.5201C5.86627 12.0105 5.90241 12.7694 6.3928 13.2152L9.9928 16.488C10.2349 16.7081 10.5564 16.8198 10.8829 16.7972C11.2093 16.7746 11.5124 16.6196 11.7219 16.3683L17.7219 9.16825Z" fill="#17325E"/>
</svg>
