<svg width="24" height="24" viewBox="0 0 24 24" fill="none" xmlns="http://www.w3.org/2000/svg">
<path fill-rule="evenodd" clip-rule="evenodd" d="M4.8 0C2.14903 0 0 2.14903 0 4.8V10.8C0 13.451 2.14903 15.6 4.8 15.6H5.05C5.71274 15.6 6.25 15.0627 6.25 14.4C6.25 13.7373 5.71274 13.2 5.05 13.2H4.8C3.47452 13.2 2.4 12.1255 2.4 10.8V4.8C2.4 3.47452 3.47452 2.4 4.8 2.4H10.8C12.1255 2.4 13.2 3.47452 13.2 4.8V5.05C13.2 5.71274 13.7373 6.25 14.4 6.25C15.0627 6.25 15.6 5.71274 15.6 5.05V4.8C15.6 2.14903 13.451 0 10.8 0H4.8ZM13.2 8.40001C10.549 8.40001 8.40001 10.549 8.40001 13.2V19.2C8.40001 21.851 10.549 24 13.2 24H19.2C21.851 24 24 21.851 24 19.2V13.2C24 10.549 21.851 8.40001 19.2 8.40001H13.2ZM10.8 13.2C10.8 11.8745 11.8745 10.8 13.2 10.8H19.2C20.5255 10.8 21.6 11.8745 21.6 13.2V19.2C21.6 20.5255 20.5255 21.6 19.2 21.6H13.2C11.8745 21.6 10.8 20.5255 10.8 19.2V13.2Z" fill="#C6C6C6"/>
</svg>
