<svg width="24" height="24" viewBox="0 0 24 24" fill="none" xmlns="http://www.w3.org/2000/svg">
<path fill-rule="evenodd" clip-rule="evenodd" d="M9.54384 4C8.25204 4 7.03975 4.62386 6.28891 5.67505L3.01659 10.2563C2.27153 11.2994 2.27153 12.7006 3.01659 13.7437L6.28891 18.325C7.03975 19.3761 8.25204 20 9.54384 20H18C20.2091 20 22 18.2091 22 16V8C22 5.79086 20.2091 4 18 4H9.54384ZM7.91637 6.83752C8.2918 6.31193 8.89794 6 9.54384 6H18C19.1046 6 20 6.89543 20 8V16C20 17.1046 19.1046 18 18 18H9.54384C8.89794 18 8.2918 17.6881 7.91637 17.1625L4.64406 12.5812C4.39571 12.2335 4.39571 11.7665 4.64406 11.4188L7.91637 6.83752ZM11.7071 8.29289C11.3166 7.90237 10.6834 7.90237 10.2929 8.29289C9.90237 8.68342 9.90237 9.31658 10.2929 9.70711L12.5858 12L10.2929 14.2929C9.90237 14.6834 9.90237 15.3166 10.2929 15.7071C10.6834 16.0976 11.3166 16.0976 11.7071 15.7071L14 13.4142L16.2929 15.7071C16.6834 16.0976 17.3166 16.0976 17.7071 15.7071C18.0976 15.3166 18.0976 14.6834 17.7071 14.2929L15.4142 12L17.7071 9.70711C18.0976 9.31658 18.0976 8.68342 17.7071 8.29289C17.3166 7.90237 16.6834 7.90237 16.2929 8.29289L14 10.5858L11.7071 8.29289Z" fill="#C6C6C6"/>
</svg>
