<svg width="24" height="24" viewBox="0 0 24 24" fill="none" xmlns="http://www.w3.org/2000/svg">
<path fill-rule="evenodd" clip-rule="evenodd" d="M4 12C4 7.58172 7.58172 4 12 4H12.5C13.0523 4 13.5 3.55228 13.5 3C13.5 2.44772 13.0523 2 12.5 2H12C6.47715 2 2 6.47715 2 12C2 17.5228 6.47715 22 12 22C17.5228 22 22 17.5228 22 12V11.5C22 10.9477 21.5523 10.5 21 10.5C20.4477 10.5 20 10.9477 20 11.5V12C20 16.4183 16.4183 20 12 20C7.58172 20 4 16.4183 4 12ZM19.1974 4C18.9845 4 18.7803 4.08457 18.6298 4.23509L17.1395 5.72533L18.2747 6.86046L19.7649 5.37021C19.9154 5.21969 20 5.01553 20 4.80265C20 4.58978 19.9154 4.38562 19.7649 4.23509C19.6144 4.08457 19.4102 4 19.1974 4ZM10.7527 12.1121L15.7253 7.13955L16.8605 8.27467L11.8879 13.2473L10.3744 13.6256L10.7527 12.1121ZM17.2156 2.82088C17.7412 2.29528 18.454 2 19.1974 2C19.9407 2 20.6535 2.29528 21.1791 2.82088C21.7047 3.34648 22 4.05934 22 4.80265C22 5.54596 21.7047 6.25883 21.1791 6.78443L13.1062 14.8573C12.9781 14.9855 12.8175 15.0764 12.6417 15.1204L9.24254 15.9701C8.90177 16.0553 8.54128 15.9555 8.2929 15.7071C8.04452 15.4587 7.94467 15.0982 8.02986 14.7575L8.87964 11.3583C8.9236 11.1825 9.01452 11.0219 9.14268 10.8938L17.2156 2.82088Z" fill="#C6C6C6"/>
</svg>
