<svg width="24" height="24" viewBox="0 0 24 24" fill="none" xmlns="http://www.w3.org/2000/svg">
<path fill-rule="evenodd" clip-rule="evenodd" d="M18.0176 5C17.7571 5 17.5072 5.1035 17.3229 5.28773L15.5124 7.09825L16.9017 8.48756L18.7123 6.67704C18.8035 6.58582 18.8758 6.47752 18.9252 6.35833C18.9746 6.23915 19 6.1114 19 5.98239C19 5.85338 18.9746 5.72563 18.9252 5.60645C18.8758 5.48726 18.8035 5.37896 18.7123 5.28773C18.621 5.19651 18.5127 5.12415 18.3935 5.07478C18.2744 5.02541 18.1466 5 18.0176 5ZM6.42503 16.1856L14.0982 8.51246L15.4875 9.90177L7.81434 17.575C7.42987 17.9594 6.94813 18.2322 6.42063 18.3641L5.37436 18.6256L5.63593 17.5794C5.7678 17.0519 6.04056 16.5701 6.42503 16.1856ZM15.9087 3.87352C16.468 3.31421 17.2266 3 18.0176 3C18.4093 3 18.7971 3.07714 19.1589 3.22702C19.5208 3.3769 19.8495 3.59658 20.1265 3.87352C20.4034 4.15046 20.6231 4.47924 20.773 4.84108C20.9228 5.20292 21 5.59074 21 5.98239C21 6.37404 20.9228 6.76186 20.773 7.1237C20.6231 7.48554 20.4034 7.81432 20.1265 8.09126L9.22856 18.9892C8.58776 19.63 7.78486 20.0846 6.9057 20.3043L4.24253 20.9701C3.90175 21.0553 3.54126 20.9555 3.29288 20.7071C3.0445 20.4587 2.94465 20.0982 3.02985 19.7575L3.69564 17.0943C3.91543 16.2151 4.37003 15.4122 5.01082 14.7714L15.9087 3.87352ZM13 19C12.4477 19 12 19.4477 12 20C12 20.5523 12.4477 21 13 21H20C20.5523 21 21 20.5523 21 20C21 19.4477 20.5523 19 20 19H13Z" fill="#C6C6C6"/>
</svg>
