<svg width="24" height="24" viewBox="0 0 24 24" fill="none" xmlns="http://www.w3.org/2000/svg">
<path d="M12.0001 3C14.6441 3.00002 17.0198 4.19274 18.9034 5.58301C20.7969 6.98065 22.3014 8.65757 23.2286 9.8125C24.257 11.0935 24.257 12.9065 23.2286 14.1875C22.3014 15.3424 20.7969 17.0194 18.9034 18.417C17.0198 19.8073 14.6441 21 12.0001 21C9.35586 21 6.97939 19.8073 5.09576 18.417C3.20243 17.0194 1.6987 15.3424 0.771541 14.1875C-0.256855 12.9065 -0.256854 11.0935 0.771541 9.8125C1.6987 8.65764 3.20243 6.98057 5.09576 5.58301C6.97939 4.19267 9.35586 3 12.0001 3ZM12.0001 5.57129C10.0879 5.57129 8.22267 6.44241 6.55963 7.66992C4.90655 8.8901 3.55856 10.3855 2.70611 11.4473C2.44005 11.7787 2.44005 12.2213 2.70611 12.5527C3.55856 13.6145 4.90655 15.1099 6.55963 16.3301C8.22267 17.5576 10.0879 18.4287 12.0001 18.4287C13.9122 18.4287 15.7775 17.5576 17.4405 16.3301C19.0935 15.1099 20.4416 13.6145 21.294 12.5527C21.56 12.2213 21.56 11.7787 21.294 11.4473C20.4416 10.3855 19.0935 8.89011 17.4405 7.66992C15.7775 6.44242 13.9122 5.57131 12.0001 5.57129ZM12.0001 6C15.3137 6.00003 18.0001 8.68631 18.0001 12C18.0001 15.3137 15.3137 18 12.0001 18C8.68635 18 6.00006 15.3137 6.00006 12C6.00006 8.68629 8.68635 6 12.0001 6ZM12.0001 9C10.3432 9 9.00006 10.3431 9.00006 12C9.00006 13.6569 10.3432 15 12.0001 15C13.6569 15 15.0001 13.6568 15.0001 12C15.0001 10.3432 13.6569 9.00003 12.0001 9Z" fill="#C6C6C6"/>
</svg>
