<svg width="24" height="24" viewBox="0 0 24 24" fill="none" xmlns="http://www.w3.org/2000/svg">
<path fill-rule="evenodd" clip-rule="evenodd" d="M2.29289 2.29289C2.68342 1.90237 3.31658 1.90237 3.70711 2.29289L21.7071 20.2929C22.0976 20.6834 22.0976 21.3166 21.7071 21.7071C21.3166 22.0976 20.6834 22.0976 20.2929 21.7071L16.3339 17.7481C15.0661 18.4698 13.5948 19 12 19C9.89006 19 7.99414 18.0725 6.4911 16.9912C4.98016 15.9041 3.77994 14.5998 3.04008 13.7015C2.21947 12.7052 2.21947 11.2948 3.04008 10.2985C3.6933 9.50543 4.7076 8.39306 5.97956 7.39378L2.29289 3.70711C1.90237 3.31658 1.90237 2.68342 2.29289 2.29289ZM7.40542 8.81964L14.8557 16.2699C13.9386 16.7227 12.9765 17 12 17C10.4742 17 8.98614 16.3224 7.65913 15.3677C6.34 14.4186 5.26407 13.2558 4.58385 12.43C4.37155 12.1722 4.37155 11.8278 4.58385 11.57C5.2211 10.7963 6.20325 9.72992 7.40542 8.81964ZM12 7C11.7169 7 11.4353 7.02323 11.1556 7.06728C10.6101 7.1532 10.0982 6.7806 10.0122 6.23504C9.92631 5.68948 10.2989 5.17756 10.8445 5.09163C11.2214 5.03226 11.6071 5 12 5C14.1099 5 16.0058 5.92747 17.5089 7.00885C19.0198 8.0959 20.22 9.40025 20.9599 10.2985C21.7805 11.2948 21.7805 12.7052 20.9599 13.7015C20.6286 14.1037 20.2083 14.5833 19.7123 15.0866C19.3246 15.4799 18.6915 15.4845 18.2981 15.0968C17.9048 14.7092 17.9002 14.076 18.2878 13.6827C18.7353 13.2286 19.1159 12.7945 19.4161 12.43C19.6284 12.1722 19.6284 11.8278 19.4161 11.57C18.7359 10.7442 17.66 9.58138 16.3409 8.63233C15.0138 7.6776 13.5258 7 12 7ZM10.0682 12.5176C9.92522 11.9841 9.37688 11.6676 8.84342 11.8105C8.30995 11.9534 7.99337 12.5018 8.13631 13.0353C8.31804 13.7135 8.6751 14.3319 9.17159 14.8284C9.66808 15.3249 10.2865 15.6819 10.9647 15.8637C11.4982 16.0066 12.0465 15.69 12.1895 15.1566C12.3324 14.6231 12.0158 14.0748 11.4824 13.9318C11.1433 13.841 10.834 13.6624 10.5858 13.4142C10.3376 13.1659 10.159 12.8567 10.0682 12.5176Z" fill="#C6C6C6"/>
</svg>
