<svg width="24" height="24" viewBox="0 0 24 24" fill="none" xmlns="http://www.w3.org/2000/svg">
<path fill-rule="evenodd" clip-rule="evenodd" d="M7.19999 2.4C5.87451 2.4 4.79999 3.47452 4.79999 4.8V19.2C4.79999 20.5255 5.87451 21.6 7.19999 21.6H16.8C18.1255 21.6 19.2 20.5255 19.2 19.2V9.6H18C14.6863 9.6 12 6.91371 12 3.6V2.4H7.19999ZM14.4 2.89706V3.6C14.4 5.58822 16.0118 7.2 18 7.2H18.7029L14.4 2.89706ZM2.39999 4.8C2.39999 2.14903 4.54903 0 7.19999 0H13.4059C14.3607 0 15.2763 0.379284 15.9515 1.05442L20.5456 5.64853C21.2207 6.32366 21.6 7.23933 21.6 8.19411V19.2C21.6 21.851 19.451 24 16.8 24H7.19999C4.54903 24 2.39999 21.851 2.39999 19.2V4.8ZM12 9.6C12.6627 9.6 13.2 10.1373 13.2 10.8V15.1029L14.7515 13.5515C15.2201 13.0828 15.9799 13.0828 16.4485 13.5515C16.9172 14.0201 16.9172 14.7799 16.4485 15.2485L12.8485 18.8485C12.3799 19.3172 11.6201 19.3172 11.1515 18.8485L7.55147 15.2485C7.08284 14.7799 7.08284 14.0201 7.55147 13.5515C8.02009 13.0828 8.77989 13.0828 9.24852 13.5515L10.8 15.1029L10.8 10.8C10.8 10.1373 11.3373 9.6 12 9.6Z" fill="#C6C6C6"/>
</svg>
