<svg width="24" height="24" viewBox="0 0 24 24" fill="none" xmlns="http://www.w3.org/2000/svg">
<path fill-rule="evenodd" clip-rule="evenodd" d="M4 6C4 4.89543 4.89543 4 6 4H8.75C9.06476 4 9.36115 4.14819 9.55 4.4L10.6 5.8C11.1666 6.55542 12.0557 7 13 7H18C19.1046 7 20 7.89543 20 9V18C20 19.1046 19.1046 20 18 20H6C4.89543 20 4 19.1046 4 18V6ZM6 2C3.79086 2 2 3.79086 2 6V18C2 20.2091 3.79086 22 6 22H18C20.2091 22 22 20.2091 22 18V9C22 6.79086 20.2091 5 18 5H13C12.6852 5 12.3889 4.85181 12.2 4.6L11.15 3.2C10.5834 2.44458 9.69427 2 8.75 2H6ZM15.7295 12.6839C16.1073 12.281 16.0869 11.6482 15.6839 11.2705C15.281 10.8927 14.6482 10.9131 14.2705 11.3161L11.1559 14.6383L9.62852 13.404C9.19896 13.0569 8.56933 13.1237 8.22221 13.5533C7.87509 13.9829 7.94192 14.6125 8.37148 14.9596L10.6215 16.7778C11.0289 17.107 11.6213 17.0661 11.9795 16.6839L15.7295 12.6839Z" fill="#C6C6C6"/>
</svg>
