<svg width="24" height="24" viewBox="0 0 24 24" fill="none" xmlns="http://www.w3.org/2000/svg">
<path fill-rule="evenodd" clip-rule="evenodd" d="M4 6C4 4.89543 4.89543 4 6 4H8.75C9.06476 4 9.36115 4.14819 9.55 4.4L10.6 5.8C11.1666 6.55542 12.0557 7 13 7H18C19.1046 7 20 7.89543 20 9V18C20 19.1046 19.1046 20 18 20H6C4.89543 20 4 19.1046 4 18V6ZM6 2C3.79086 2 2 3.79086 2 6V18C2 20.2091 3.79086 22 6 22H18C20.2091 22 22 20.2091 22 18V9C22 6.79086 20.2091 5 18 5H13C12.6852 5 12.3889 4.85181 12.2 4.6L11.15 3.2C10.5834 2.44458 9.69427 2 8.75 2H6ZM13 11C13 10.4477 12.5523 10 12 10C11.4477 10 11 10.4477 11 11V14.5858L9.70711 13.2929C9.31658 12.9024 8.68342 12.9024 8.29289 13.2929C7.90237 13.6834 7.90237 14.3166 8.29289 14.7071L11.2929 17.7071C11.6834 18.0976 12.3166 18.0976 12.7071 17.7071L15.7071 14.7071C16.0976 14.3166 16.0976 13.6834 15.7071 13.2929C15.3166 12.9024 14.6834 12.9024 14.2929 13.2929L13 14.5858V11Z" fill="#C6C6C6"/>
</svg>
