<svg width="24" height="24" viewBox="0 0 24 24" fill="none" xmlns="http://www.w3.org/2000/svg">
<path fill-rule="evenodd" clip-rule="evenodd" d="M4 6C4 4.89543 4.89543 4 6 4H8.75C9.06476 4 9.36115 4.14819 9.55 4.4L10.6 5.8C11.1666 6.55542 12.0557 7 13 7H18C19.1046 7 20 7.89543 20 9V18C20 19.1046 19.1046 20 18 20H6C4.89543 20 4 19.1046 4 18V6ZM6 2C3.79086 2 2 3.79086 2 6V18C2 20.2091 3.79086 22 6 22H18C20.2091 22 22 20.2091 22 18V9C22 6.79086 20.2091 5 18 5H13C12.6852 5 12.3889 4.85181 12.2 4.6L11.15 3.2C10.5834 2.44458 9.69427 2 8.75 2H6ZM12.7071 10.2929C12.3166 9.90237 11.6834 9.90237 11.2929 10.2929C10.9024 10.6834 10.9024 11.3166 11.2929 11.7071L12.5858 13H9C8.44772 13 8 13.4477 8 14C8 14.5523 8.44772 15 9 15H12.5858L11.2929 16.2929C10.9024 16.6834 10.9024 17.3166 11.2929 17.7071C11.6834 18.0976 12.3166 18.0976 12.7071 17.7071L15.7071 14.7071C15.8946 14.5196 16 14.2652 16 14C16 13.7348 15.8946 13.4804 15.7071 13.2929L12.7071 10.2929Z" fill="#C6C6C6"/>
</svg>
