<svg width="24" height="24" viewBox="0 0 24 24" fill="none" xmlns="http://www.w3.org/2000/svg">
<path d="M8.09961 0C9.23274 0 10.3006 0.533929 10.9805 1.44043L12.2402 3.12012C12.4669 3.42217 12.8226 3.59961 13.2002 3.59961H19.2002C21.8511 3.59971 24 5.74949 24 8.40039V19.2002C23.9999 21.851 21.851 23.9999 19.2002 24H4.7998C2.14899 23.9999 0.000105137 21.851 0 19.2002V4.7998C0.000105962 2.14899 2.14899 0.000105652 4.7998 0H8.09961ZM4.7998 2.40039C3.47448 2.4005 2.4005 3.47448 2.40039 4.7998V19.2002C2.4005 20.5255 3.47448 21.5995 4.7998 21.5996H19.2002C20.5255 21.5995 21.5995 20.5255 21.5996 19.2002V8.40039C21.5996 7.07497 20.5256 6.0001 19.2002 6H13.2002C12.0671 6 11.0002 5.46607 10.3203 4.55957L9.05957 2.87988C8.83294 2.57789 8.4772 2.40039 8.09961 2.40039H4.7998ZM11.1514 9.95117C11.62 9.48267 12.38 9.48267 12.8486 9.95117L16.4482 13.5518C16.9168 14.0204 16.9168 14.7794 16.4482 15.248C15.9796 15.7167 15.2206 15.7167 14.752 15.248L13.2002 13.6973V18C13.2002 18.6627 12.6627 19.2002 12 19.2002C11.3373 19.2002 10.7998 18.6627 10.7998 18V13.6973L9.24805 15.248C8.77942 15.7167 8.02039 15.7167 7.55176 15.248C7.08323 14.7794 7.08316 14.0204 7.55176 13.5518L11.1514 9.95117Z" fill="#C6C6C6"/>
</svg>
