<svg width="24" height="24" viewBox="0 0 24 24" fill="none" xmlns="http://www.w3.org/2000/svg">
<path fill-rule="evenodd" clip-rule="evenodd" d="M4 6C4 4.89543 4.89543 4 6 4H8.67963C9.01399 4 9.32622 4.1671 9.51168 4.4453L10.5742 6.0391C11.1306 6.8737 12.0673 7.375 13.0704 7.375H18C19.1046 7.375 20 8.27043 20 9.375V18C20 19.1046 19.1046 20 18 20H6C4.89543 20 4 19.1046 4 18V6ZM6 2C3.79086 2 2 3.79086 2 6V18C2 20.2091 3.79086 22 6 22H18C20.2091 22 22 20.2091 22 18V9.375C22 7.16586 20.2091 5.375 18 5.375H13.0704C12.736 5.375 12.4238 5.2079 12.2383 4.9297L11.1758 3.3359C10.6194 2.5013 9.68269 2 8.67963 2H6ZM9 12C8.44772 12 8 12.4477 8 13C8 13.5523 8.44772 14 9 14H15C15.5523 14 16 13.5523 16 13C16 12.4477 15.5523 12 15 12H9Z" fill="#C6C6C6"/>
</svg>
