<svg width="24" height="24" viewBox="0 0 24 24" fill="none" xmlns="http://www.w3.org/2000/svg">
<path fill-rule="evenodd" clip-rule="evenodd" d="M6.71879 4.61493C8.13076 3.18901 10.0319 2.40002 12 2.40002C13.9681 2.40002 15.8692 3.18901 17.2812 4.61493C18.6952 6.04292 19.5 7.99209 19.5 10.0365C19.5 13.0129 17.5796 15.9184 15.4462 18.1926C14.4014 19.3063 13.3528 20.2185 12.5645 20.8524C12.3557 21.0203 12.1659 21.1682 12 21.2945C11.8341 21.1682 11.6443 21.0203 11.4355 20.8524C10.6472 20.2185 9.59862 19.3063 8.55385 18.1926C6.4204 15.9184 4.5 13.0129 4.5 10.0365C4.5 7.99209 5.30477 6.04292 6.71879 4.61493ZM11.2816 23.7823C11.282 23.7825 11.2823 23.7827 12 22.8002L12.7177 23.7827C12.2869 24.0727 11.7124 24.0723 11.2816 23.7823ZM11.2816 23.7823L12 22.8002C12.7177 23.7827 12.7189 23.7819 12.7192 23.7817L12.7215 23.7801L12.7285 23.7754L12.7518 23.7595C12.7714 23.746 12.7991 23.7269 12.8343 23.7023C12.9048 23.653 13.0055 23.5815 13.1322 23.4892C13.3853 23.3045 13.7428 23.0357 14.1699 22.6923C15.0222 22.0069 16.1611 21.0168 17.3038 19.7987C19.5454 17.4092 22 13.9328 22 10.0365C22 7.39368 20.961 4.84768 19.0932 2.96136C17.2232 1.07297 14.6732 0 12 0C9.32682 0 6.77676 1.07297 4.90685 2.96136C3.03898 4.84768 2 7.39368 2 10.0365C2 13.9328 4.4546 17.4092 6.69615 19.7987C7.83888 21.0168 8.97784 22.0069 9.83014 22.6923C10.2572 23.0357 10.6147 23.3045 10.8678 23.4892C10.9945 23.5815 11.0952 23.653 11.1657 23.7023C11.2009 23.7269 11.2286 23.746 11.2482 23.7595L11.2715 23.7754L11.2785 23.7801L11.2816 23.7823ZM15.23 13.63C15.68 13.52 16.14 13.76 16.34 14.18H16.36C16.63 14.75 16.31 15.43 15.69 15.58C14.61 15.84 13.38 15.87 12.47 15.55C11.26 15.13 10.26 15.54 9.87001 15.74C9.83001 15.765 9.78751 15.79 9.74501 15.815C9.70251 15.84 9.66001 15.865 9.62001 15.89C9.47001 15.97 9.30001 16.01 9.14001 16.01C8.80001 16.01 8.48001 15.84 8.29001 15.54C8.01001 15.09 8.13001 14.49 8.57001 14.19C8.58001 14.17 8.68001 14.11 8.84001 14.02C9.59001 13.53 10.23 12.65 10.14 11.47H9.01001C8.46001 11.47 8.01001 11.02 8.01001 10.47C8.01001 9.92001 8.46001 9.47001 9.01001 9.47001H9.60001C9.32001 8.24001 9.46001 7.15001 10.02 6.33001C10.6 5.48001 11.58 5.01001 12.79 5.01001C15.08 5.01001 16.05 6.65001 16.19 8.05001C16.24 8.59001 15.84 9.09001 15.29 9.14001C14.75 9.19001 14.25 8.79001 14.2 8.24001C14.15 7.67001 13.86 7.00001 12.79 7.00001C12.25 7.00001 11.87 7.15001 11.67 7.45001C11.38 7.87001 11.39 8.62001 11.67 9.47001H13.67C14.22 9.47001 14.67 9.92001 14.67 10.47C14.67 11.02 14.22 11.47 13.67 11.47H12.12C12.15 12.16 12.05 12.8 11.82 13.38C12.23 13.41 12.67 13.5 13.12 13.66C13.53 13.81 14.41 13.83 15.23 13.63Z" fill="#C6C6C6"/>
</svg>
