<svg width="24" height="24" viewBox="0 0 24 24" fill="none" xmlns="http://www.w3.org/2000/svg">
<g clip-path="url(#clip0_230_4262)">
<path fill-rule="evenodd" clip-rule="evenodd" d="M12 2.4C6.69807 2.4 2.4 6.69807 2.4 12C2.4 17.3019 6.69807 21.6 12 21.6C17.3019 21.6 21.6 17.3019 21.6 12C21.6 6.69807 17.3019 2.4 12 2.4ZM0 12C0 5.37258 5.37258 0 12 0C18.6274 0 24 5.37258 24 12C24 18.6274 18.6274 24 12 24C5.37258 24 0 18.6274 0 12ZM12 11C12.5523 11 13 11.5223 13 12.1667V16.8333C13 17.4777 12.5523 18 12 18C11.4477 18 11 17.4777 11 16.8333V12.1667C11 11.5223 11.4477 11 12 11ZM11.995 6C11.4455 6 11 6.44772 11 7C11 7.55228 11.4455 8 11.995 8H12.005C12.5545 8 13 7.55228 13 7C13 6.44772 12.5545 6 12.005 6H11.995Z" fill="#C6C6C6"/>
</g>
<defs>
<clipPath id="clip0_230_4262">
<rect width="24" height="24" fill="white"/>
</clipPath>
</defs>
</svg>
