<svg width="24" height="24" viewBox="0 0 24 24" fill="none" xmlns="http://www.w3.org/2000/svg">
<path d="M18 0C21.3137 0 24 2.68629 24 6V18C24 21.3137 21.3137 24 18 24H6C2.68629 24 0 21.3137 0 18V6C1.28855e-07 2.68629 2.68629 1.28851e-07 6 0H18ZM6 2.40039C4.01178 2.40039 2.40039 4.01178 2.40039 6V18C2.40039 19.9882 4.01178 21.5996 6 21.5996H18C19.9882 21.5996 21.5996 19.9882 21.5996 18V6C21.5996 4.01178 19.9882 2.40039 18 2.40039H6ZM12 11C12.5523 11 13 11.5227 13 12.167V16.833C13 17.4773 12.5523 18 12 18C11.4477 18 11 17.4773 11 16.833V12.167C11 11.5227 11.4477 11 12 11ZM12.0049 6C12.5544 6 13 6.44772 13 7C13 7.55228 12.5544 8 12.0049 8H11.9951C11.4456 8 11 7.55228 11 7C11 6.44772 11.4456 6 11.9951 6H12.0049Z" fill="#C6C6C6"/>
</svg>
