<svg width="24" height="24" viewBox="0 0 24 24" fill="none" xmlns="http://www.w3.org/2000/svg">
<path fill-rule="evenodd" clip-rule="evenodd" d="M4 6C4 3.79086 5.79086 2 8 2H8.11111H15.8889H16C18.2091 2 20 3.79086 20 6V18C20 20.2091 18.2091 22 16 22H8C5.79086 22 4 20.2091 4 18V6ZM6 6C6 4.89543 6.89543 4 8 4H8.11111C8.4793 4 8.77778 4.29848 8.77778 4.66667C8.77778 5.40305 9.37473 6 10.1111 6H13.8889C14.6253 6 15.2222 5.40305 15.2222 4.66667C15.2222 4.29848 15.5207 4 15.8889 4H16C17.1046 4 18 4.89543 18 6V18C18 19.1046 17.1046 20 16 20H8C6.89543 20 6 19.1046 6 18V6ZM10.2071 11.2929C9.81658 10.9024 9.18342 10.9024 8.79289 11.2929C8.40237 11.6834 8.40237 12.3166 8.79289 12.7071L10.5858 14.5L8.79289 16.2929C8.40237 16.6834 8.40237 17.3166 8.79289 17.7071C9.18342 18.0976 9.81658 18.0976 10.2071 17.7071L12 15.9142L13.7929 17.7071C14.1834 18.0976 14.8166 18.0976 15.2071 17.7071C15.5976 17.3166 15.5976 16.6834 15.2071 16.2929L13.4142 14.5L15.2071 12.7071C15.5976 12.3166 15.5976 11.6834 15.2071 11.2929C14.8166 10.9024 14.1834 10.9024 13.7929 11.2929L12 13.0858L10.2071 11.2929Z" fill="#C6C6C6"/>
</svg>
