<svg width="24" height="24" viewBox="0 0 24 24" fill="none" xmlns="http://www.w3.org/2000/svg">
<path fill-rule="evenodd" clip-rule="evenodd" d="M4 6C4 3.79086 5.79086 2 8 2H8.11111H15.8889H16C18.2091 2 20 3.79086 20 6V18C20 20.2091 18.2091 22 16 22H8C5.79086 22 4 20.2091 4 18V6ZM6 6C6 4.89543 6.89543 4 8 4H8.11111C8.4793 4 8.77778 4.29848 8.77778 4.66667C8.77778 5.40305 9.37473 6 10.1111 6H13.8889C14.6253 6 15.2222 5.40305 15.2222 4.66667C15.2222 4.29848 15.5207 4 15.8889 4H16C17.1046 4 18 4.89543 18 6V18C18 19.1046 17.1046 20 16 20H8C6.89543 20 6 19.1046 6 18V6ZM13 10C13 9.44772 12.5523 9 12 9C11.4477 9 11 9.44772 11 10V12H9C8.44772 12 8 12.4477 8 13C8 13.5523 8.44772 14 9 14H11V16C11 16.5523 11.4477 17 12 17C12.5523 17 13 16.5523 13 16V14H15C15.5523 14 16 13.5523 16 13C16 12.4477 15.5523 12 15 12H13V10Z" fill="#C6C6C6"/>
</svg>
