<svg width="24" height="24" viewBox="0 0 24 24" fill="none" xmlns="http://www.w3.org/2000/svg">
<path fill-rule="evenodd" clip-rule="evenodd" d="M4 6C4 3.79086 5.79086 2 8 2H8.11111H15.8889H16C18.2091 2 20 3.79086 20 6V18C20 20.2091 18.2091 22 16 22H8C5.79086 22 4 20.2091 4 18V6ZM6 6C6 4.89543 6.89543 4 8 4H8.11111C8.4793 4 8.77778 4.29848 8.77778 4.66667C8.77778 5.40305 9.37473 6 10.1111 6H13.8889C14.6253 6 15.2222 5.40305 15.2222 4.66667C15.2222 4.29848 15.5207 4 15.8889 4H16C17.1046 4 18 4.89543 18 6V18C18 19.1046 17.1046 20 16 20H8C6.89543 20 6 19.1046 6 18V6ZM12.7071 9.29289C12.3166 8.90237 11.6834 8.90237 11.2929 9.29289L8.29289 12.2929C7.90237 12.6834 7.90237 13.3166 8.29289 13.7071C8.68342 14.0976 9.31658 14.0976 9.70711 13.7071L11 12.4142V16C11 16.5523 11.4477 17 12 17C12.5523 17 13 16.5523 13 16V12.4142L14.2929 13.7071C14.6834 14.0976 15.3166 14.0976 15.7071 13.7071C16.0976 13.3166 16.0976 12.6834 15.7071 12.2929L12.7071 9.29289Z" fill="#C6C6C6"/>
</svg>
