<svg width="24" height="24" viewBox="0 0 24 24" fill="none" xmlns="http://www.w3.org/2000/svg">
<path fill-rule="evenodd" clip-rule="evenodd" d="M4 6C4 3.79086 5.79086 2 8 2H8.11111H15.8889H16C18.2091 2 20 3.79086 20 6V18C20 20.2091 18.2091 22 16 22H8C5.79086 22 4 20.2091 4 18V6ZM6 6C6 4.89543 6.89543 4 8 4H8.11111C8.4793 4 8.77778 4.29848 8.77778 4.66667C8.77778 5.40305 9.37473 6 10.1111 6H13.8889C14.6253 6 15.2222 5.40305 15.2222 4.66667C15.2222 4.29848 15.5207 4 15.8889 4H16C17.1046 4 18 4.89543 18 6V18C18 19.1046 17.1046 20 16 20H8C6.89543 20 6 19.1046 6 18V6ZM15.7295 11.6839C16.1073 11.281 16.0869 10.6482 15.6839 10.2705C15.281 9.89274 14.6482 9.91315 14.2705 10.3161L11.1559 13.6383L9.62852 12.404C9.19896 12.0569 8.56933 12.1237 8.22221 12.5533C7.87508 12.9829 7.94192 13.6125 8.37148 13.9596L10.6215 15.7778C11.0289 16.107 11.6213 16.0661 11.9795 15.6839L15.7295 11.6839Z" fill="#C6C6C6"/>
</svg>
