<svg width="24" height="24" viewBox="0 0 24 24" fill="none" xmlns="http://www.w3.org/2000/svg">
<path fill-rule="evenodd" clip-rule="evenodd" d="M8 2C5.79086 2 4 3.79086 4 6V18C4 20.2091 5.79086 22 8 22H16C18.2091 22 20 20.2091 20 18V6C20 3.79086 18.2091 2 16 2H15.8889H8.11111H8ZM8 4C6.89543 4 6 4.89543 6 6V18C6 19.1046 6.89543 20 8 20H16C17.1046 20 18 19.1046 18 18V6C18 4.89543 17.1046 4 16 4H15.8889C15.5207 4 15.2222 4.29848 15.2222 4.66667C15.2222 5.40305 14.6253 6 13.8889 6H10.1111C9.37473 6 8.77778 5.40305 8.77778 4.66667C8.77778 4.29848 8.4793 4 8.11111 4H8Z" fill="#C6C6C6"/>
</svg>
