<svg width="24" height="24" viewBox="0 0 24 24" fill="none" xmlns="http://www.w3.org/2000/svg">
<path d="M12 0C14.6509 0 16.7997 2.14893 16.7998 4.7998V8.40039L17.0469 8.40625C19.5831 8.53474 21.5996 10.632 21.5996 13.2002V19.2002C21.5995 21.8511 19.4507 24 16.7998 24H7.2002C4.54929 24 2.4005 21.8511 2.40039 19.2002V13.2002C2.40039 10.632 4.41689 8.53474 6.95312 8.40625L7.2002 8.40039V4.7998C7.2003 2.14893 9.3491 0 12 0ZM7.2002 10.7998C5.87471 10.7998 4.7998 11.8747 4.7998 13.2002V19.2002C4.79991 20.5256 5.87478 21.5996 7.2002 21.5996H16.7998C18.1252 21.5996 19.2001 20.5256 19.2002 19.2002V13.2002C19.2002 11.8747 18.1253 10.7998 16.7998 10.7998H7.2002ZM12 2.40039C10.6746 2.40039 9.59971 3.47441 9.59961 4.7998V8.40039H14.4004V4.7998C14.4003 3.47441 13.3254 2.40039 12 2.40039Z" fill="#C6C6C6"/>
</svg>
