<svg width="25" height="24" viewBox="0 0 25 24" fill="none" xmlns="http://www.w3.org/2000/svg">
<path fill-rule="evenodd" clip-rule="evenodd" d="M0 5C0 2.23858 2.23858 0 5 0H14C14.5523 0 15 0.447715 15 1C15 1.55228 14.5523 2 14 2H5C3.34315 2 2 3.34315 2 5V19C2 20.6569 3.34315 22 5 22H14C14.5523 22 15 22.4477 15 23C15 23.5523 14.5523 24 14 24H5C2.23858 24 0 21.7614 0 19V5Z" fill="#C6C6C6"/>
<path fill-rule="evenodd" clip-rule="evenodd" d="M8 12C8 11.4477 8.44772 11 9 11H22C22.5523 11 23 11.4477 23 12C23 12.5523 22.5523 13 22 13H9C8.44772 13 8 12.5523 8 12Z" fill="#C6C6C6"/>
<path fill-rule="evenodd" clip-rule="evenodd" d="M22.1465 12.5607L17.2929 7.70716C16.9023 7.31664 16.9023 6.68347 17.2929 6.29295C17.6834 5.90242 18.3166 5.90242 18.7071 6.29294L23.5607 11.1465C23.9512 11.537 23.9512 12.1702 23.5607 12.5607C23.1701 12.9512 22.537 12.9512 22.1465 12.5607Z" fill="#C6C6C6"/>
<path fill-rule="evenodd" clip-rule="evenodd" d="M23.5607 12.7071L18.7071 17.5607C18.3166 17.9512 17.6834 17.9512 17.2929 17.5607C16.9024 17.1702 16.9024 16.537 17.2929 16.1465L22.1464 11.2929C22.537 10.9024 23.1701 10.9024 23.5607 11.2929C23.9512 11.6834 23.9512 12.3166 23.5607 12.7071Z" fill="#C6C6C6"/>
</svg>
