<svg width="24" height="24" viewBox="0 0 24 24" fill="none" xmlns="http://www.w3.org/2000/svg">
<path fill-rule="evenodd" clip-rule="evenodd" d="M2 16C2 18.2091 3.79086 20 6 20H12C12.5523 20 13 19.5523 13 19C13 18.4477 12.5523 18 12 18H6C4.89543 18 4 17.1046 4 16V8C4 6.89543 4.89543 6 6 6H18C19.1046 6 20 6.89543 20 8V10C20 10.5523 20.4477 11 21 11C21.5523 11 22 10.5523 22 10V8C22 5.79086 20.2091 4 18 4H6C3.79086 4 2 5.79086 2 8V16ZM6.21914 8.37528C6.56415 7.94402 7.19344 7.8741 7.6247 8.21911L12 11.7194L16.3753 8.21911C16.8066 7.8741 17.4359 7.94402 17.7809 8.37528C18.1259 8.80654 18.056 9.43583 17.6247 9.78084L12 14.2806L6.37531 9.78084C5.94405 9.43583 5.87413 8.80654 6.21914 8.37528ZM17 17C17 15.8954 17.8954 15 19 15C20.1046 15 21 15.8954 21 17C21 18.1046 20.1046 19 19 19C17.8954 19 17 18.1046 17 17ZM19 13C16.7909 13 15 14.7909 15 17C15 19.2091 16.7909 21 19 21C21.2091 21 23 19.2091 23 17C23 14.7909 21.2091 13 19 13Z" fill="#C6C6C6"/>
</svg>
