<svg width="24" height="24" viewBox="0 0 24 24" fill="none" xmlns="http://www.w3.org/2000/svg">
<path fill-rule="evenodd" clip-rule="evenodd" d="M4 12C4 7.58172 7.58172 4 12 4C16.4183 4 20 7.58172 20 12C20 16.4183 16.4183 20 12 20H4.64729L5.55213 18.0532C5.78673 17.5484 5.71533 16.9778 5.41916 16.5503C4.52425 15.2588 4 13.6921 4 12ZM12 2C6.47715 2 2 6.47715 2 12C2 14.0137 2.59621 15.8909 3.62175 17.4613L2.53406 19.8016C2.00986 20.7933 2.72736 22 3.86159 22H12C17.5228 22 22 17.5228 22 12C22 6.47715 17.5228 2 12 2ZM15.7071 11.2929L12.7071 8.29289C12.3166 7.90237 11.6834 7.90237 11.2929 8.29289C10.9024 8.68342 10.9024 9.31658 11.2929 9.70711L12.5858 11H9C8.44772 11 8 11.4477 8 12C8 12.5523 8.44772 13 9 13H12.5858L11.2929 14.2929C10.9024 14.6834 10.9024 15.3166 11.2929 15.7071C11.6834 16.0976 12.3166 16.0976 12.7071 15.7071L15.7071 12.7071C15.8946 12.5196 16 12.2652 16 12C16 11.7348 15.8946 11.4804 15.7071 11.2929Z" fill="#C6C6C6"/>
</svg>
