<svg width="24" height="24" viewBox="0 0 24 24" fill="none" xmlns="http://www.w3.org/2000/svg">
<path fill-rule="evenodd" clip-rule="evenodd" d="M4 12C4 7.58172 7.58172 4 12 4C16.6976 4 20.465 8.24156 19.9511 12.8901C19.8904 13.4391 20.2863 13.9333 20.8352 13.9939C21.3841 14.0546 21.8783 13.6588 21.939 13.1099C22.583 7.28427 17.8965 2 12 2C6.47715 2 2 6.47715 2 12C2 14.0137 2.59621 15.8909 3.62175 17.4613L2.53406 19.8016C2.00986 20.7933 2.72736 22 3.86159 22H10C10.5523 22 11 21.5523 11 21C11 20.4477 10.5523 20 10 20H4.64729L5.55213 18.0532C5.78673 17.5484 5.71533 16.9778 5.41916 16.5503C4.52425 15.2588 4 13.6921 4 12ZM14 18C14 16.8954 14.8954 16 16 16C17.1046 16 18 16.8954 18 18C18 19.1046 17.1046 20 16 20C14.8954 20 14 19.1046 14 18ZM16 14C13.7909 14 12 15.7909 12 18C12 20.2091 13.7909 22 16 22C18.2091 22 20 20.2091 20 18C20 15.7909 18.2091 14 16 14Z" fill="#C6C6C6"/>
</svg>
