<svg width="24" height="24" viewBox="0 0 24 24" fill="none" xmlns="http://www.w3.org/2000/svg">
<path fill-rule="evenodd" clip-rule="evenodd" d="M7 2C4.23858 2 2 4.23858 2 7V17C2 19.7614 4.23858 22 7 22H17C19.7614 22 22 19.7614 22 17V7C22 4.23858 19.7614 2 17 2H7ZM4 7C4 5.34315 5.34315 4 7 4H17C18.6569 4 20 5.34315 20 7V17C20 18.6569 18.6569 20 17 20H7C5.34315 20 4 18.6569 4 17V7ZM11.9999 9.30001C11.282 9.30001 10.6999 8.71798 10.6999 8.00001C10.6999 7.28204 11.282 6.70001 11.9999 6.70001C12.7179 6.70001 13.2999 7.28204 13.2999 8.00001C13.2999 8.71798 12.7179 9.30001 11.9999 9.30001ZM10.6999 16C10.6999 16.718 11.282 17.3 11.9999 17.3C12.7179 17.3 13.2999 16.718 13.2999 16C13.2999 15.282 12.7179 14.7 11.9999 14.7C11.282 14.7 10.6999 15.282 10.6999 16ZM11.9999 13.3C11.282 13.3 10.6999 12.718 10.6999 12C10.6999 11.282 11.282 10.7 11.9999 10.7C12.7179 10.7 13.2999 11.282 13.2999 12C13.2999 12.718 12.7179 13.3 11.9999 13.3Z" fill="#C6C6C6"/>
</svg>
