<svg width="24" height="24" viewBox="0 0 24 24" fill="none" xmlns="http://www.w3.org/2000/svg">
<path fill-rule="evenodd" clip-rule="evenodd" d="M7 2C4.23858 2 2 4.23858 2 7V17C2 19.7614 4.23858 22 7 22H17C19.7614 22 22 19.7614 22 17V7C22 4.23858 19.7614 2 17 2H7ZM4 7C4 5.34315 5.34315 4 7 4H17C18.6569 4 20 5.34315 20 7V17C20 18.6569 18.6569 20 17 20H7C5.34315 20 4 18.6569 4 17V7ZM9.29995 12C9.29995 12.718 8.71792 13.3 7.99995 13.3C7.28198 13.3 6.69995 12.718 6.69995 12C6.69995 11.282 7.28198 10.7 7.99995 10.7C8.71792 10.7 9.29995 11.282 9.29995 12ZM16 13.3C16.7179 13.3 17.3 12.718 17.3 12C17.3 11.282 16.7179 10.7 16 10.7C15.282 10.7 14.7 11.282 14.7 12C14.7 12.718 15.282 13.3 16 13.3ZM13.3 12C13.3 12.718 12.7179 13.3 12 13.3C11.282 13.3 10.7 12.718 10.7 12C10.7 11.282 11.282 10.7 12 10.7C12.7179 10.7 13.3 11.282 13.3 12Z" fill="#C6C6C6"/>
</svg>
