<svg width="24" height="24" viewBox="0 0 24 24" fill="none" xmlns="http://www.w3.org/2000/svg">
<path d="M2.66699 9.33301C4.1396 9.33318 5.33301 10.5273 5.33301 12C5.33301 13.4727 4.1396 14.6668 2.66699 14.667C1.19423 14.667 0 13.4728 0 12C4.83199e-08 10.5272 1.19423 9.33301 2.66699 9.33301ZM12 9.33301C13.4728 9.33301 14.667 10.5272 14.667 12C14.667 13.4728 13.4728 14.667 12 14.667C10.5272 14.667 9.33301 13.4728 9.33301 12C9.33301 10.5272 10.5272 9.33301 12 9.33301ZM21.333 9.33301C22.8058 9.33301 24 10.5272 24 12C24 13.4728 22.8058 14.667 21.333 14.667C19.8604 14.6668 18.667 13.4727 18.667 12C18.667 10.5273 19.8604 9.33318 21.333 9.33301Z" fill="#C6C6C6"/>
</svg>
