<svg width="24" height="24" viewBox="0 0 24 24" fill="none" xmlns="http://www.w3.org/2000/svg">
<path fill-rule="evenodd" clip-rule="evenodd" d="M7 2C4.23858 2 2 4.23858 2 7V17C2 19.7614 4.23858 22 7 22H17C19.7614 22 22 19.7614 22 17V7C22 4.23858 19.7614 2 17 2H7ZM4 7C4 5.34315 5.34315 4 7 4H17C18.6569 4 20 5.34315 20 7V17C20 18.6569 18.6569 20 17 20H7C5.34315 20 4 18.6569 4 17V7ZM15.89 9.71065C16.3452 8.69513 15.3049 7.65479 14.2893 8.11003L8.87047 10.5392C7.74835 11.0422 7.70021 12.6175 8.78953 13.1881L9.92394 13.7823C10.0495 13.8481 10.1519 13.9505 10.2177 14.0761L10.8119 15.2105C11.3825 16.2998 12.9578 16.2517 13.4608 15.1295L15.89 9.71065ZM9.76247 11.8921L14.0135 9.9865L12.1079 14.2375L11.6345 13.3339C11.4178 12.9201 11.0799 12.5822 10.6661 12.3655L9.76247 11.8921Z" fill="#C6C6C6"/>
</svg>
