<svg width="24" height="24" viewBox="0 0 24 24" fill="none" xmlns="http://www.w3.org/2000/svg">
<path fill-rule="evenodd" clip-rule="evenodd" d="M12 2C6.47715 2 2 6.47715 2 12C2 17.5228 6.47715 22 12 22C17.5228 22 22 17.5228 22 12C22 6.47715 17.5228 2 12 2ZM4 12C4 7.58172 7.58172 4 12 4C16.4183 4 20 7.58172 20 12C20 16.4183 16.4183 20 12 20C7.58172 20 4 16.4183 4 12ZM15.89 9.71065C16.3452 8.69513 15.3049 7.65479 14.2893 8.11003L8.87047 10.5392C7.74835 11.0422 7.70021 12.6175 8.78953 13.1881L9.92394 13.7823C10.0495 13.8481 10.1519 13.9505 10.2177 14.0761L10.8119 15.2105C11.3825 16.2998 12.9578 16.2517 13.4608 15.1295L15.89 9.71065ZM9.76247 11.8921L14.0135 9.9865L12.1079 14.2375L11.6345 13.3339C11.4178 12.9201 11.0799 12.5822 10.6661 12.3655L9.76247 11.8921Z" fill="#C6C6C6"/>
</svg>
