<svg width="24" height="24" viewBox="0 0 24 24" fill="none" xmlns="http://www.w3.org/2000/svg">
<path fill-rule="evenodd" clip-rule="evenodd" d="M18.462 2.92552C20.2228 2.13619 22.0266 3.94001 21.2373 5.7008L14.7427 20.1888C13.7865 22.3218 10.792 22.4133 9.70737 20.3426L8.11866 17.3096C7.83541 16.7689 7.39394 16.3274 6.85319 16.0442L3.82021 14.4555C1.74952 13.3708 1.84102 10.3763 3.97408 9.42012L18.462 2.92552ZM19.3383 4.73935C19.3317 4.73795 19.3156 4.73463 19.2801 4.75053L4.79219 11.2451C4.18274 11.5183 4.1566 12.3739 4.74823 12.6838L7.7812 14.2725C8.68246 14.7446 9.41824 15.4804 9.89033 16.3816L11.479 19.4146C11.7889 20.0062 12.6445 19.9801 12.9177 19.3707L19.4123 4.88269C19.4282 4.84722 19.4249 4.83114 19.4235 4.82449C19.4208 4.81172 19.4119 4.79124 19.3918 4.77107C19.3716 4.75091 19.3511 4.74206 19.3383 4.73935Z" fill="#C6C6C6"/>
</svg>
