<svg width="24" height="24" viewBox="0 0 24 24" fill="none" xmlns="http://www.w3.org/2000/svg">
<path fill-rule="evenodd" clip-rule="evenodd" d="M14.6652 3.0404C13.1472 1.68404 10.8527 1.68404 9.33478 3.0404L9.0931 3.25635C8.75531 3.55818 8.32506 3.7364 7.87277 3.76182L7.54918 3.78002C5.51674 3.89429 3.89429 5.51674 3.78002 7.54918L3.76182 7.87277C3.7364 8.32506 3.55818 8.75531 3.25635 9.0931L3.04039 9.33478C1.68404 10.8527 1.68404 13.1472 3.0404 14.6652L3.25635 14.9069C3.55818 15.2447 3.7364 15.6749 3.76182 16.1272L3.78002 16.4508C3.89429 18.4832 5.51674 20.1057 7.54918 20.2199L7.87277 20.2381C8.32506 20.2636 8.75531 20.4418 9.0931 20.7436L9.33478 20.9596C10.8527 22.3159 13.1472 22.3159 14.6652 20.9596L14.9069 20.7436C15.2447 20.4418 15.6749 20.2636 16.1272 20.2381L16.4508 20.2199C18.4832 20.1057 20.1057 18.4832 20.2199 16.4508L20.2381 16.1272C20.2636 15.6749 20.4418 15.2447 20.7436 14.9069L20.9596 14.6652C22.3159 13.1472 22.3159 10.8527 20.9596 9.33478L20.7436 9.0931C20.4418 8.75531 20.2636 8.32506 20.2381 7.87277L20.2199 7.54918C20.1057 5.51674 18.4832 3.89429 16.4508 3.78002L16.1272 3.76182C15.6749 3.7364 15.2447 3.55818 14.9069 3.25635L14.6652 3.0404ZM10.6674 4.53176C11.4264 3.85359 12.5736 3.85359 13.3326 4.53176L13.5743 4.74772C14.2498 5.35138 15.1104 5.70781 16.0149 5.75867L16.3385 5.77686C17.3547 5.834 18.166 6.64523 18.2231 7.66144L18.2413 7.98504C18.2922 8.8896 18.6486 9.75011 19.2522 10.4257L19.4682 10.6674C20.1464 11.4264 20.1464 12.5736 19.4682 13.3326L19.2523 13.5743C18.6486 14.2499 18.2922 15.1104 18.2413 16.0149L18.2231 16.3385C18.166 17.3547 17.3547 18.166 16.3385 18.2231L16.0149 18.2413C15.1104 18.2922 14.2499 18.6486 13.5743 19.2522L13.3326 19.4682C12.5736 20.1464 11.4264 20.1464 10.6674 19.4682L10.4257 19.2522C9.75011 18.6486 8.88961 18.2922 7.98504 18.2413L7.66144 18.2231C6.64523 18.166 5.834 17.3547 5.77686 16.3385L5.75867 16.0149C5.70781 15.1104 5.35138 14.2498 4.74772 13.5743L4.53176 13.3326C3.85359 12.5736 3.85359 11.4264 4.53176 10.6674L4.74772 10.4257C5.35138 9.75011 5.70781 8.88961 5.75867 7.98504L5.77686 7.66144C5.834 6.64523 6.64523 5.834 7.66144 5.77686L7.98504 5.75867C8.88961 5.70781 9.75011 5.35138 10.4257 4.74772L10.6674 4.53176ZM15.7071 9.70711C16.0976 9.31658 16.0976 8.68342 15.7071 8.29289C15.3166 7.90237 14.6834 7.90237 14.2929 8.29289L8.29289 14.2929C7.90237 14.6834 7.90237 15.3166 8.29289 15.7071C8.68342 16.0976 9.31658 16.0976 9.70711 15.7071L15.7071 9.70711ZM14.5 16C15.3284 16 16 15.3284 16 14.5C16 13.6716 15.3284 13 14.5 13C13.6716 13 13 13.6716 13 14.5C13 15.3284 13.6716 16 14.5 16ZM11 9.5C11 10.3284 10.3284 11 9.5 11C8.67157 11 8 10.3284 8 9.5C8 8.67157 8.67157 8 9.5 8C10.3284 8 11 8.67157 11 9.5Z" fill="#C6C6C6"/>
</svg>
