<svg width="24" height="24" viewBox="0 0 24 24" fill="none" xmlns="http://www.w3.org/2000/svg">
<path d="M18 0C21.3137 0 24 2.68629 24 6V18C24 21.3137 21.3137 24 18 24H6C2.68629 24 0 21.3137 0 18V6C1.28855e-07 2.68629 2.68629 1.28851e-07 6 0H18ZM6 2.40039C4.01178 2.40039 2.40039 4.01178 2.40039 6V18C2.40039 19.9882 4.01178 21.5996 6 21.5996H18C19.9882 21.5996 21.5996 19.9882 21.5996 18V6C21.5996 4.01178 19.9882 2.40039 18 2.40039H6ZM14.752 7.55176C15.2206 7.08323 15.9796 7.08316 16.4482 7.55176C16.9168 8.02035 16.9168 8.77941 16.4482 9.24805L9.24805 16.4482C8.77941 16.9168 8.02035 16.9168 7.55176 16.4482C7.08316 15.9796 7.08323 15.2206 7.55176 14.752L14.752 7.55176ZM15 13.2002C15.9941 13.2002 16.7998 14.0059 16.7998 15C16.7998 15.9941 15.9941 16.7998 15 16.7998C14.0059 16.7998 13.2002 15.9941 13.2002 15C13.2002 14.0059 14.0059 13.2002 15 13.2002ZM9 7.2002C9.99411 7.2002 10.7998 8.00589 10.7998 9C10.7998 9.99411 9.99411 10.7998 9 10.7998C8.00589 10.7998 7.2002 9.99411 7.2002 9C7.2002 8.00589 8.00589 7.2002 9 7.2002Z" fill="#C6C6C6"/>
</svg>
