<svg width="24" height="24" viewBox="0 0 24 24" fill="none" xmlns="http://www.w3.org/2000/svg">
<path fill-rule="evenodd" clip-rule="evenodd" d="M15.7142 2.99994C15.1619 2.99994 14.7142 3.44765 14.7142 3.99994C14.7142 4.55222 15.1619 4.99994 15.7142 4.99994H17.5858L14.2928 8.29289C13.9023 8.68342 13.9023 9.31658 14.2928 9.70711C14.6834 10.0976 15.3165 10.0976 15.707 9.70711L19 6.41415V8.28571C19 8.83799 19.4477 9.28571 20 9.28571C20.5523 9.28571 21 8.83799 21 8.28571V3.99994C21 3.44765 20.5523 2.99994 20 2.99994H15.7142ZM10.5089 8.37607C9.83018 5.92363 7.38653 4.40887 4.96833 5.21546C3.39283 5.74093 2.43378 6.72127 2.11584 8.02886C1.82033 9.24425 2.12834 10.5559 2.60671 11.7149C3.57003 14.0491 5.47664 16.3616 6.55613 17.4419C7.61074 18.4973 9.91992 20.4122 12.2585 21.3843C13.4196 21.867 14.7361 22.1804 15.9571 21.8856C17.2711 21.5683 18.2564 20.6043 18.7848 19.0178C19.5901 16.5997 18.0782 14.1541 15.6262 13.4745C13.9502 13.0099 12.1926 13.4529 10.9932 14.5295C10.7116 14.3114 10.4408 14.0733 10.1826 13.8149C9.92311 13.5552 9.68407 13.2828 9.46531 12.9994C10.5334 11.7995 10.9715 10.0472 10.5089 8.37607ZM5.60116 7.1127C6.79749 6.71367 8.16872 7.41847 8.58141 8.90955C8.88742 10.0152 8.53515 11.1518 7.81452 11.8312C7.3491 12.27 7.08635 13.1011 7.57877 13.8081C7.92751 14.3087 8.3239 14.7842 8.76787 15.2285C9.21113 15.6721 9.68553 16.0684 10.1851 16.417C10.895 16.9126 11.7294 16.6453 12.1672 16.1765C12.8451 15.4505 13.9841 15.0947 15.092 15.4018C16.5807 15.8144 17.2866 17.1867 16.8872 18.3858C16.5331 19.4492 16.007 19.8161 15.4876 19.9415C14.8752 20.0894 14.0361 19.9574 13.0262 19.5376C11.0228 18.7047 8.92821 16.9863 7.97088 16.0282C6.9898 15.0464 5.27992 12.9497 4.45545 10.952C4.03992 9.94512 3.91121 9.11013 4.05922 8.50138C4.18482 7.98482 4.54956 7.46344 5.60116 7.1127Z" fill="#C6C6C6"/>
</svg>
