<svg width="24" height="24" viewBox="0 0 24 24" fill="none" xmlns="http://www.w3.org/2000/svg">
<path d="M4.05566 4.29493C6.79467 3.38134 9.56221 5.0972 10.331 7.87501C10.8549 9.76776 10.3591 11.7522 9.14941 13.1113C9.39719 13.4322 9.66799 13.741 9.96191 14.0352C10.2544 14.3279 10.561 14.5978 10.8799 14.8447C12.2385 13.6253 14.2296 13.1233 16.1279 13.6494C18.9051 14.4193 20.6172 17.1899 19.7051 19.9287C19.1066 21.7257 17.9903 22.8174 16.5019 23.1768C15.1192 23.5105 13.6284 23.1559 12.3135 22.6094C9.66472 21.5083 7.04907 19.339 5.85449 18.1436C4.63183 16.92 2.47204 14.3009 1.38085 11.6572C0.839019 10.3444 0.490465 8.8581 0.825189 7.48145C1.18537 6.00053 2.27127 4.89008 4.05566 4.29493ZM8.14843 8.4795C7.68098 6.79058 6.12751 5.99237 4.77245 6.44434C3.58169 6.84154 3.16869 7.43165 3.02636 8.01661C2.85871 8.70613 3.00394 9.65255 3.4746 10.793C4.4085 13.0557 6.34583 15.43 7.45702 16.542C8.54138 17.6272 10.9134 19.5743 13.1826 20.5176C14.3265 20.9931 15.277 21.1421 15.9707 20.9746C16.5589 20.8326 17.1545 20.4171 17.5557 19.2129C18.008 17.8547 17.2086 16.3004 15.5225 15.833C14.2678 15.4853 12.9778 15.8879 12.21 16.71C11.7141 17.241 10.769 17.5437 9.96484 16.9824C9.39907 16.5875 8.86142 16.1391 8.35937 15.6367C7.8565 15.1335 7.40769 14.5944 7.01269 14.0274C6.45503 13.2267 6.75215 12.2851 7.27929 11.7881C8.09542 11.0186 8.49487 9.73175 8.14843 8.4795ZM13.0791 6.30176C13.3122 5.72136 13.9723 5.43981 14.5527 5.67286C15.4349 6.02707 16.2332 6.56227 16.8955 7.24415C17.5579 7.92608 18.07 8.73969 18.3984 9.63184C18.6144 10.2188 18.3134 10.8698 17.7266 11.0859C17.1395 11.3021 16.4886 11.0011 16.2725 10.4141C16.0535 9.81954 15.7119 9.27774 15.2705 8.82325C14.8289 8.36863 14.2962 8.01154 13.708 7.7754C13.1277 7.54222 12.8461 6.88219 13.0791 6.30176ZM13.5644 1.83985C13.7264 1.23561 14.3479 0.877162 14.9521 1.03907C16.8725 1.55369 18.6234 2.56487 20.0293 3.97071C21.4351 5.37656 22.4463 7.12745 22.9609 9.04786C23.1228 9.6521 22.7644 10.2736 22.1602 10.4356C21.5561 10.5974 20.9355 10.2387 20.7734 9.63477C20.3618 8.09837 19.5524 6.697 18.4277 5.57227C17.303 4.44754 15.9016 3.63825 14.3652 3.22657C13.7613 3.0645 13.4027 2.44391 13.5644 1.83985Z" fill="#C6C6C6"/>
</svg>
