<svg width="24" height="24" viewBox="0 0 24 24" fill="none" xmlns="http://www.w3.org/2000/svg">
<path fill-rule="evenodd" clip-rule="evenodd" d="M11 5.07089C7.60771 5.55612 5 8.47353 5 12C5 15.866 8.13401 19 12 19C15.5265 19 18.4439 16.3923 18.9291 13L13 13C11.8954 13 11 12.1046 11 11V5.07089ZM20.9695 12.7458C20.5904 17.3675 16.7194 21 12 21C7.02944 21 3 16.9706 3 12C3 7.28057 6.63255 3.40957 11.2542 3.03046C11.6026 2.40501 12.2807 1.96928 13.1088 2.06168C14.0414 2.16572 14.9565 2.40072 15.8268 2.76122C17.0401 3.26376 18.1425 4.00036 19.0711 4.92894C19.9997 5.85753 20.7362 6.95992 21.2388 8.17318C21.5993 9.04349 21.8343 9.95863 21.9383 10.8912C22.0307 11.7193 21.595 12.3974 20.9695 12.7458ZM13 11V4.06276C13.707 4.15183 14.4004 4.33514 15.0615 4.60897C16.0321 5.01101 16.914 5.60029 17.6569 6.34316C18.3997 7.08603 18.989 7.96794 19.391 8.93854C19.6649 9.59963 19.8482 10.293 19.9373 11L13 11Z" fill="#C6C6C6"/>
</svg>
