<svg width="24" height="24" viewBox="0 0 24 24" fill="none" xmlns="http://www.w3.org/2000/svg">
<path fill-rule="evenodd" clip-rule="evenodd" d="M15.139 2.08151C13.8925 1.90222 13 2.94114 13 4.00002V9.90002C13 10.5075 13.4925 11 14.1 11L20 11C21.0589 11 22.0978 10.1075 21.9185 8.86104C21.8237 8.20219 21.6469 7.55626 21.391 6.93855C20.989 5.96795 20.3997 5.08603 19.6569 4.34317C18.914 3.6003 18.0321 3.01102 17.0615 2.60898C16.4438 2.35312 15.7978 2.17628 15.139 2.08151ZM19.5433 7.70392C19.7163 8.12155 19.8411 8.55639 19.9161 9.00002L15 9.00002V4.08394C15.4436 4.15893 15.8785 4.28375 16.2961 4.45674C17.0241 4.75827 17.6855 5.20023 18.2426 5.75738C18.7998 6.31453 19.2417 6.97597 19.5433 7.70392ZM7.11101 7.17972C7.98279 6.59721 8.97057 6.22039 10 6.0718V12C10 13.1046 10.8954 14 12 14H17.9282C17.7796 15.0294 17.4028 16.0172 16.8203 16.889C16.0511 18.0401 14.9579 18.9373 13.6788 19.4672C12.3997 19.997 10.9922 20.1356 9.63437 19.8655C8.2765 19.5954 7.02922 18.9287 6.05026 17.9498C5.07129 16.9708 4.4046 15.7235 4.13451 14.3656C3.86441 13.0078 4.00303 11.6003 4.53285 10.3212C5.06266 9.04214 5.95987 7.94889 7.11101 7.17972ZM12 6.00001C12 4.93442 11.1074 3.91572 9.8779 4.07022C8.49549 4.24394 7.16686 4.73702 5.99987 5.51678C4.51983 6.50571 3.36628 7.91132 2.68509 9.55586C2.0039 11.2004 1.82567 13.01 2.17294 14.7558C2.5202 16.5016 3.37737 18.1053 4.63604 19.364C5.89472 20.6226 7.49836 21.4798 9.24419 21.8271C10.99 22.1743 12.7996 21.9961 14.4442 21.3149C16.0887 20.6337 17.4943 19.4802 18.4832 18.0001C19.263 16.8331 19.7561 15.5045 19.9298 14.1221C20.0843 12.8926 19.0656 12 18 12H12V6.00001Z" fill="#C6C6C6"/>
</svg>
