<svg width="24" height="24" viewBox="0 0 24 24" fill="none" xmlns="http://www.w3.org/2000/svg">
<path d="M12 0C18.6274 0 24 5.37258 24 12C24 18.6274 18.6274 24 12 24C5.37258 24 0 18.6274 0 12C2.57711e-07 5.37258 5.37258 2.57703e-07 12 0ZM12 2.40039C6.69807 2.40039 2.40039 6.69807 2.40039 12C2.40039 17.3019 6.69807 21.5996 12 21.5996C17.3019 21.5996 21.5996 17.3019 21.5996 12C21.5996 6.69807 17.3019 2.40039 12 2.40039ZM8.40039 9.92188C8.40039 8.0744 10.4 6.91915 12 7.84277L15.5996 9.92188C17.1996 10.8456 17.1996 13.1544 15.5996 14.0781L12 16.1572C10.4 17.0808 8.40039 15.9256 8.40039 14.0781V9.92188ZM10.7998 14.0781L14.4004 12L10.7998 9.92188V14.0781Z" fill="#C6C6C6"/>
</svg>
