<svg width="24" height="24" viewBox="0 0 24 24" fill="none" xmlns="http://www.w3.org/2000/svg">
<path d="M14.1719 17.4414C14.7718 17.4414 15.2578 17.9304 15.2578 18.5342C15.2578 19.1379 14.7718 19.627 14.1719 19.627H9.82715C9.22724 19.627 8.74121 19.1379 8.74121 18.5342C8.74122 17.9304 9.22724 17.4414 9.82715 17.4414H14.1719Z" fill="#C6C6C6"/>
<path d="M14.165 7.65234C14.7687 7.65238 15.2578 8.1414 15.2578 8.74512C15.2578 9.34882 14.7687 9.83785 14.165 9.83789H12.0068C11.4031 9.83789 10.9131 9.34885 10.9131 8.74512C10.9131 8.14138 11.4031 7.65234 12.0068 7.65234H14.165Z" fill="#C6C6C6"/>
<path d="M18.5166 7.60254C19.1164 7.60254 19.6034 8.09167 19.6035 8.69531C19.6035 9.29905 19.1165 9.78906 18.5166 9.78906C17.9168 9.7889 17.4307 9.29896 17.4307 8.69531C17.4308 8.09177 17.9169 7.6027 18.5166 7.60254Z" fill="#C6C6C6"/>
<path fill-rule="evenodd" clip-rule="evenodd" d="M16.3633 0C18.7732 0 20.7275 1.82072 20.7275 4.06641V4.2998C22.6537 5.14699 24 7.08124 24 9.33203V13.1748C23.9998 15.8304 22.1255 18.0443 19.6357 18.5527L19.6025 18.5684V22C19.6025 23.1046 18.7071 24 17.6025 24H6.39551C5.29111 23.9998 4.39551 23.1044 4.39551 22V18.5674L4.36426 18.5527C1.87459 18.0442 0.000238669 15.8304 0 13.1748V9.33203C3.12252e-05 7.08122 1.34626 5.14697 3.27246 4.2998V4.06641C3.27251 1.82072 5.22677 0 7.63672 0H16.3633ZM6.39551 22H17.6025V15.0684H6.39551V22ZM5.4541 6.03809C3.64683 6.03831 2.18168 7.51317 2.18164 9.33203V13.1748C2.18186 14.6083 3.09385 15.824 4.36426 16.2764L4.39551 16.2705V13.5684C4.39553 13.2924 4.61955 13.0686 4.89551 13.0684H19.1025C19.3787 13.0684 19.6025 13.2922 19.6025 13.5684V16.2705L19.6357 16.2764C20.9062 15.824 21.8181 14.6083 21.8184 13.1748V9.33203C21.8183 7.51319 20.3531 6.03833 18.5459 6.03809H5.4541ZM7.63672 1.62598C6.44054 1.62598 5.43299 2.37446 5.12012 3.39551L5.05664 3.8584C5.18793 3.84887 5.3204 3.84278 5.4541 3.84277H18.5459C18.6945 3.84279 18.8417 3.84958 18.9873 3.86133L18.9688 3.83398C18.8432 2.59556 17.7252 1.62598 16.3633 1.62598H7.63672Z" fill="#C6C6C6"/>
</svg>
