<svg width="24" height="24" viewBox="0 0 24 24" fill="none" xmlns="http://www.w3.org/2000/svg">
<path fill-rule="evenodd" clip-rule="evenodd" d="M2.4 10.8C2.4 6.16081 6.16081 2.4 10.8 2.4C15.4392 2.4 19.2 6.16081 19.2 10.8C19.2 15.4392 15.4392 19.2 10.8 19.2C6.16081 19.2 2.4 15.4392 2.4 10.8ZM10.8 0C4.83532 0 0 4.83532 0 10.8C0 16.7647 4.83532 21.6 10.8 21.6C13.35 21.6 15.6936 20.7162 17.5412 19.2383L21.9515 23.6485C22.4201 24.1172 23.1799 24.1172 23.6485 23.6485C24.1172 23.1799 24.1172 22.4201 23.6485 21.9515L19.2383 17.5412C20.7162 15.6936 21.6 13.35 21.6 10.8C21.6 4.83532 16.7647 0 10.8 0Z" fill="#C6C6C6"/>
</svg>
