<svg width="24" height="24" viewBox="0 0 24 24" fill="none" xmlns="http://www.w3.org/2000/svg">
<path fill-rule="evenodd" clip-rule="evenodd" d="M6.5 16.2C5.89249 16.2 5.4 15.7075 5.4 15.1L5.4 4.75564L2.87782 7.27782C2.44824 7.7074 1.75176 7.7074 1.32218 7.27782C0.892606 6.84824 0.892607 6.15176 1.32218 5.72218L5.72218 1.32218C5.92847 1.1159 6.20826 1 6.5 1C6.79174 1 7.07153 1.1159 7.27782 1.32219L11.6778 5.72219C12.1074 6.15176 12.1074 6.84824 11.6778 7.27782C11.2482 7.7074 10.5518 7.7074 10.1222 7.27782L7.6 4.75564L7.6 15.1C7.6 15.7075 7.10751 16.2 6.5 16.2Z" fill="#C6C6C6"/>
<path fill-rule="evenodd" clip-rule="evenodd" d="M17.5 8C18.1075 8 18.6 8.49249 18.6 9.1V19.4444L21.1222 16.9222C21.5518 16.4926 22.2482 16.4926 22.6778 16.9222C23.1074 17.3518 23.1074 18.0482 22.6778 18.4778L18.2778 22.8778C18.0715 23.0841 17.7917 23.2 17.5 23.2C17.2083 23.2 16.9285 23.0841 16.7222 22.8778L12.3222 18.4778C11.8926 18.0482 11.8926 17.3518 12.3222 16.9222C12.7518 16.4926 13.4482 16.4926 13.8778 16.9222L16.4 19.4444L16.4 9.1C16.4 8.49249 16.8925 8 17.5 8Z" fill="#C6C6C6"/>
</svg>
