<svg width="24" height="24" viewBox="0 0 24 24" fill="none" xmlns="http://www.w3.org/2000/svg">
<path fill-rule="evenodd" clip-rule="evenodd" d="M7 2C4.23858 2 2 4.23858 2 7V17C2 19.7614 4.23858 22 7 22H17C19.7614 22 22 19.7614 22 17V7C22 4.23858 19.7614 2 17 2H7ZM4 7C4 5.34315 5.34315 4 7 4H17C18.6569 4 20 5.34315 20 7V17C20 18.6569 18.6569 20 17 20H7C5.34315 20 4 18.6569 4 17V7ZM13.2852 7.19621C12.7022 6.22748 11.2978 6.22748 10.7148 7.19621L9.71582 8.85612L7.82847 9.29323C6.727 9.54833 6.293 10.884 7.03417 11.7378L8.30414 13.2008L8.13663 15.1309C8.03888 16.2573 9.1751 17.0828 10.2162 16.6418L12 15.886L13.7838 16.6418C14.8249 17.0828 15.9611 16.2573 15.8633 15.1309L15.6958 13.2008L16.9658 11.7378C17.707 10.884 17.273 9.54833 16.1715 9.29323L14.2841 8.85611L13.2852 7.19621ZM11.3202 10.0689L12 8.93934L12.6797 10.0689C12.8892 10.4169 13.2308 10.6651 13.6265 10.7567L14.9108 11.0542L14.0466 12.0497C13.7804 12.3565 13.6499 12.7581 13.685 13.1627L13.799 14.4761L12.5851 13.9618C12.2111 13.8034 11.7888 13.8034 11.4148 13.9618L10.201 14.4761L10.315 13.1627C10.3501 12.7581 10.2196 12.3565 9.95333 12.0497L9.08913 11.0542L10.3734 10.7567C10.7692 10.6651 11.1108 10.4169 11.3202 10.0689Z" fill="#C6C6C6"/>
</svg>
