<svg width="24" height="24" viewBox="0 0 24 24" fill="none" xmlns="http://www.w3.org/2000/svg">
<path d="M5.08615 12.3958C6.42603 11.832 7.54616 11.9332 8.49533 12.187C8.9404 12.306 9.37809 12.4677 9.71864 12.5831C10.0842 12.707 10.3753 12.7917 10.6457 12.8241H10.6494L11.0915 12.8778C11.6132 12.9367 12.3645 13.0016 13.2316 12.9675C14.0133 12.9325 14.7929 13.0767 15.3978 13.5539C15.8721 13.9282 16.1565 14.4407 16.2735 15.0205C16.8053 14.6211 17.2852 14.2176 17.779 13.8457C19.432 12.5934 21.2211 12.7279 22.2666 13.8837C23.3017 15.0288 23.2912 16.8768 21.9134 18.1496L21.9096 18.1535C21.507 18.5217 20.4863 19.4019 19.4004 20.2737C18.3421 21.1234 17.1184 22.0501 16.3492 22.4388L16.3482 22.4398C15.4546 22.8902 13.8244 23.9997 11.6139 24C10.0582 24 7.9562 23.4826 7.41221 23.3833L7.40754 23.3824C6.14517 23.1468 4.85336 23.233 3.85631 23.3882C3.36266 23.4651 2.95142 23.5571 2.66665 23.6292C2.5248 23.6652 2.41399 23.6968 2.34143 23.718C2.30579 23.7284 2.2787 23.7363 2.26199 23.7414C2.25405 23.7439 2.24757 23.7462 2.24424 23.7473L2.24143 23.7483C1.73739 23.912 1.2019 23.6178 1.0443 23.0916C0.88694 22.5652 1.16725 22.0045 1.67137 21.8398H1.67417L1.67698 21.8388C1.67933 21.838 1.68287 21.837 1.68632 21.8359C1.69385 21.8335 1.70462 21.83 1.71716 21.8261C1.74299 21.8181 1.77974 21.8063 1.82557 21.7929C1.91785 21.766 2.05007 21.7294 2.21527 21.6875C2.54578 21.6038 3.01423 21.4986 3.57408 21.4114C4.68405 21.2386 6.20018 21.1277 7.74023 21.4143C8.49842 21.5526 10.2788 22.0017 11.6139 22.0017C12.852 22.0015 13.7846 21.5604 14.6558 21.0963L15.5156 20.6396C16.0762 20.3562 17.1428 19.5646 18.2332 18.6892C19.2929 17.8383 20.2783 16.9881 20.6452 16.6528C21.2552 16.0893 21.1297 15.5376 20.8751 15.2556C20.6305 14.9852 19.9547 14.6655 18.9014 15.4644L18.8986 15.4664C18.3615 15.8709 17.4928 16.6112 16.6183 17.1914C15.7216 17.7863 14.6228 18.3579 13.4315 18.4384C13.4236 18.4389 13.4152 18.4381 13.4072 18.4384C13.2163 18.4612 13.0224 18.4728 12.8278 18.4686C11.4147 18.4402 10.2259 18.5502 9.39529 18.6657C8.98066 18.7234 8.65498 18.7829 8.43739 18.8267C8.32942 18.8485 8.24737 18.8663 8.19441 18.8784C8.1683 18.8844 8.14828 18.8892 8.13647 18.8921C8.13107 18.8934 8.12574 18.8936 8.12339 18.8941L8.12432 18.895C7.61101 19.0263 7.09312 18.6982 6.96737 18.1623C6.84195 17.6264 7.156 17.0855 7.66921 16.9543H7.67107L7.67294 16.9534C7.67481 16.9529 7.67782 16.952 7.68042 16.9514C7.68598 16.9501 7.69387 16.9487 7.70285 16.9465C7.72194 16.9419 7.74934 16.9348 7.78322 16.927C7.85151 16.9113 7.94975 16.8898 8.07479 16.8646C8.32571 16.814 8.68757 16.7482 9.14203 16.685C9.93731 16.5744 11.0222 16.4701 12.3036 16.4665L12.8643 16.4713L12.8661 16.4723L13.0465 16.4684C13.4591 16.4452 13.8256 16.3136 14.0792 16.1367C14.3744 15.9305 14.4221 15.745 14.4221 15.6634C14.4221 15.3289 14.3228 15.2108 14.2437 15.1483C14.1257 15.0553 13.8511 14.9388 13.3138 14.9629H13.3091C11.9849 15.0155 10.899 14.868 10.4233 14.8087C9.95308 14.7519 9.51139 14.6137 9.12801 14.4838C8.71869 14.3451 8.3877 14.221 8.02059 14.1228C7.34518 13.9422 6.66053 13.8868 5.7992 14.2496L5.7964 14.2506C5.2485 14.4794 4.92608 14.8076 4.46749 15.3141C4.00253 15.8278 3.42041 16.4965 2.4246 17.0782L2.33676 17.1241C1.89181 17.3253 1.36384 17.146 1.12186 16.6948C0.863909 16.2132 1.02889 15.604 1.49007 15.3346L1.74333 15.1766C2.30349 14.8036 2.66454 14.3968 3.07691 13.9413C3.5545 13.4137 4.1207 12.7988 5.08615 12.3958Z" fill="#C6C6C6"/>
<path d="M8.77569 1.13498C10.5476 -0.37826 13.1017 -0.378394 14.8735 1.13498L20.0284 5.5384C20.9172 6.2978 21.4328 7.43293 21.433 8.62949V12.4894C20.8664 12.2088 20.2047 12.1268 19.5116 12.2679V8.62949C19.5114 8.03151 19.2539 7.46354 18.8098 7.08395L13.654 2.68052C12.591 1.77262 11.0593 1.77304 9.99619 2.68052L4.83944 7.08395C4.39529 7.46355 4.13787 8.03146 4.1376 8.62949V11.4815C3.70121 11.8037 3.37221 12.1632 3.07691 12.4894C2.79322 12.8028 2.53276 13.0916 2.2162 13.3637V8.62949C2.21646 7.43287 2.73197 6.2978 3.62081 5.5384L8.77569 1.13498Z" fill="#C6C6C6"/>
</svg>
