<svg width="24" height="24" viewBox="0 0 24 24" fill="none" xmlns="http://www.w3.org/2000/svg">
<path fill-rule="evenodd" clip-rule="evenodd" d="M8.77778 3.33333C8.77778 2.59695 9.37473 2 10.1111 2H13.8889C14.6253 2 15.2222 2.59695 15.2222 3.33333C15.2222 3.70126 15.5203 3.99956 15.8881 4H19C19.5523 4 20 4.44772 20 5C20 5.55228 19.5523 6 19 6L16 6H15.8889L15.8873 6L8.11111 6H8L5 6C4.44772 6 4 5.55228 4 5C4 4.44772 4.44772 4 5 4L8 4L8.11111 4C8.4793 4 8.77778 3.70152 8.77778 3.33333ZM9 12C8.44772 12 8 12.4477 8 13C8 13.5523 8.44772 14 9 14H11V16C11 16.5523 11.4477 17 12 17C12.5523 17 13 16.5523 13 16V14H15C15.5523 14 16 13.5523 16 13C16 12.4477 15.5523 12 15 12H13V10C13 9.44772 12.5523 9 12 9C11.4477 9 11 9.44772 11 10V12H9ZM6.99655 8.91695C6.95068 8.36657 6.46733 7.95758 5.91696 8.00345C5.36658 8.04931 4.95759 8.53266 5.00346 9.08304L5.77422 18.3322C5.94698 20.4053 7.68005 22 9.7604 22H14.2396C16.32 22 18.053 20.4053 18.2258 18.3322L18.9965 9.08304C19.0424 8.53266 18.6334 8.04931 18.083 8.00345C17.5327 7.95758 17.0493 8.36657 17.0035 8.91695L16.2327 18.1661C16.1463 19.2027 15.2798 20 14.2396 20H9.7604C8.72022 20 7.85369 19.2027 7.76731 18.1661L6.99655 8.91695Z" fill="#C6C6C6"/>
</svg>
