<svg width="24" height="24" viewBox="0 0 24 24" fill="none" xmlns="http://www.w3.org/2000/svg">
<path fill-rule="evenodd" clip-rule="evenodd" d="M9.66667 0C8.86335 0 8.21212 0.651221 8.21212 1.45455C8.21212 1.85621 7.88651 2.18182 7.48485 2.18182H7.36364V2.18185H4.09091C3.48842 2.18185 3 2.67026 3 3.27276C3 3.87525 3.48842 4.36367 4.09091 4.36367H19.3636C19.9661 4.36367 20.4545 3.87525 20.4545 3.27276C20.4545 2.67026 19.9661 2.18185 19.3636 2.18185H16.0909V2.18182H15.9697C15.568 2.18182 15.2424 1.85621 15.2424 1.45455C15.2424 0.651222 14.5912 0 13.7879 0H9.66667ZM13.1523 2.18185L13.1523 2.18182L10.3023 2.18182L10.3023 2.18185H13.1523ZM7.45455 12C7.45455 11.4477 7.90226 11 8.45455 11H10.7273V8.72727C10.7273 8.17498 11.175 7.72727 11.7273 7.72727C12.2796 7.72727 12.7273 8.17498 12.7273 8.72727V11H15C15.5523 11 16 11.4477 16 12C16 12.5523 15.5523 13 15 13H12.7273V15.2727C12.7273 15.825 12.2796 16.2727 11.7273 16.2727C11.175 16.2727 10.7273 15.825 10.7273 15.2727V13H8.45455C7.90226 13 7.45455 12.5523 7.45455 12ZM5.09122 6.54925C5.69164 6.49921 6.21893 6.94538 6.26896 7.54579L7.10979 17.6358C7.20403 18.7666 8.14933 19.6364 9.28407 19.6364H10.0909C10.6934 19.6364 11.1818 20.1248 11.1818 20.7273C11.1818 21.3298 10.6934 21.8182 10.0909 21.8182H9.28407C7.01459 21.8182 5.12398 20.0786 4.93551 17.8169L4.09468 7.72698C4.04464 7.12657 4.49081 6.59928 5.09122 6.54925ZM18.3633 6.54925C18.9637 6.59928 19.4099 7.12657 19.3599 7.72698L19.0971 10.8801C19.0471 11.4805 18.5198 11.9267 17.9194 11.8766C17.319 11.8266 16.8728 11.2993 16.9228 10.6989L17.1856 7.54579C17.2356 6.94538 17.7629 6.49921 18.3633 6.54925ZM15 19.6364C15 18.4314 15.9768 17.4546 17.1818 17.4546C18.3868 17.4546 19.3636 18.4314 19.3636 19.6364C19.3636 20.8414 18.3868 21.8182 17.1818 21.8182C15.9768 21.8182 15 20.8414 15 19.6364ZM17.1818 15.2727C14.7718 15.2727 12.8182 17.2264 12.8182 19.6364C12.8182 22.0464 14.7718 24 17.1818 24C19.5918 24 21.5455 22.0464 21.5455 19.6364C21.5455 17.2264 19.5918 15.2727 17.1818 15.2727Z" fill="#C6C6C6"/>
</svg>
