<svg width="24" height="24" viewBox="0 0 24 24" fill="none" xmlns="http://www.w3.org/2000/svg">
<path fill-rule="evenodd" clip-rule="evenodd" d="M16 2.99999L19 3C19.5523 3 20 3.44772 20 4C20 4.55228 19.5523 5 19 5H5C4.44772 5 4 4.55228 4 4C4 3.44772 4.44772 3 5 3H8V2.99999L9.84479 2.99999C10.2321 2.99999 10.5939 2.8064 10.8087 2.4841C11.3754 1.63404 12.6246 1.63405 13.1913 2.4841C13.4061 2.8064 13.7679 2.99999 14.1552 2.99999L16 2.99999ZM8 13C8 12.4477 8.44772 12 9 12H11V10C11 9.44772 11.4477 9 12 9C12.5523 9 13 9.44772 13 10V12H15C15.5523 12 16 12.4477 16 13C16 13.5523 15.5523 14 15 14H13V16C13 16.5523 12.5523 17 12 17C11.4477 17 11 16.5523 11 16V14H9C8.44772 14 8 13.5523 8 13ZM5.92331 7.00293C6.47396 6.96057 6.9547 7.37263 6.99706 7.92329L7.78399 18.1534C7.86414 19.1954 8.73302 20 9.7781 20H14.2219C15.267 20 16.1359 19.1954 16.216 18.1534L17.0029 7.92329C17.0453 7.37263 17.526 6.96057 18.0767 7.00293C18.6274 7.04529 19.0394 7.52603 18.9971 8.07668L18.2101 18.3068C18.0498 20.3908 16.3121 22 14.2219 22H9.7781C7.68795 22 5.95019 20.3908 5.78988 18.3068L5.00295 8.07668C4.96059 7.52603 5.37265 7.04529 5.92331 7.00293Z" fill="#C6C6C6"/>
</svg>
