<svg width="24" height="24" viewBox="0 0 24 24" fill="none" xmlns="http://www.w3.org/2000/svg">
<path fill-rule="evenodd" clip-rule="evenodd" d="M12.4 0C9.74903 0 7.6 2.14903 7.6 4.8V8.4C7.6 8.49728 7.61158 8.59186 7.63343 8.68243C5.43841 10.1978 4 12.7309 4 15.6C4 20.2392 7.76081 24 12.4 24C17.0392 24 20.8 20.2392 20.8 15.6C20.8 10.9608 17.0392 7.2 12.4 7.2C11.566 7.2 10.7605 7.32153 10 7.54785V4.8C10 3.47452 11.0745 2.4 12.4 2.4C13.7255 2.4 14.8 3.47452 14.8 4.8V5.07692C14.8 5.73967 15.3373 6.27692 16 6.27692C16.6627 6.27692 17.2 5.73967 17.2 5.07692V4.8C17.2 2.14903 15.051 0 12.4 0ZM12.4 9.6C9.08629 9.6 6.4 12.2863 6.4 15.6C6.4 18.9137 9.08629 21.6 12.4 21.6C15.7137 21.6 18.4 18.9137 18.4 15.6C18.4 12.2863 15.7137 9.6 12.4 9.6ZM12.4 13.2C13.0627 13.2 13.6 13.7373 13.6 14.4V16.8C13.6 17.4627 13.0627 18 12.4 18C11.7373 18 11.2 17.4627 11.2 16.8V14.4C11.2 13.7373 11.7373 13.2 12.4 13.2Z" fill="#C6C6C6"/>
</svg>
