<svg width="24" height="24" viewBox="0 0 24 24" fill="none" xmlns="http://www.w3.org/2000/svg">
<path fill-rule="evenodd" clip-rule="evenodd" d="M12 2C9.79086 2 8 3.79086 8 6V9C5.79086 9 4 10.7909 4 13V18C4 20.2091 5.79086 22 8 22H16C18.2091 22 20 20.2091 20 18V13C20 10.7909 18.2091 9 16 9H10V6C10 4.89543 10.8954 4 12 4C13.1046 4 14 4.89543 14 6V6.5C14 7.05228 14.4477 7.5 15 7.5C15.5523 7.5 16 7.05228 16 6.5V6C16 3.79086 14.2091 2 12 2ZM9 11H8C6.89543 11 6 11.8954 6 13V18C6 19.1046 6.89543 20 8 20H16C17.1046 20 18 19.1046 18 18V13C18 11.8954 17.1046 11 16 11H9Z" fill="#C6C6C6"/>
</svg>
