<svg width="24" height="24" viewBox="0 0 24 24" fill="none" xmlns="http://www.w3.org/2000/svg">
<path d="M16.7998 0C17.4625 0 18 0.537454 18 1.2002L18.3086 1.20801C21.4789 1.36863 24 3.98999 24 7.2002V18C24 21.3137 21.3137 24 18 24H6C2.68629 24 5.15405e-07 21.3137 0 18V7.2002C0 3.98999 2.52111 1.36863 5.69141 1.20801L6 1.2002C6 0.537454 6.53745 0 7.2002 0C7.86285 0.000105517 8.40039 0.537519 8.40039 1.2002H15.5996C15.5996 0.537519 16.1372 0.000105774 16.7998 0ZM8.40039 4.7998C8.40039 5.46248 7.86285 5.99989 7.2002 6C6.53745 6 6 5.46255 6 4.7998V3.59961C4.01178 3.59961 2.40039 5.21197 2.40039 7.2002V18C2.40039 19.9882 4.01178 21.5996 6 21.5996H18C19.9882 21.5996 21.5996 19.9882 21.5996 18V7.2002C21.5996 5.21197 19.9882 3.59961 18 3.59961V4.7998C18 5.46255 17.4625 6 16.7998 6C16.1372 5.99989 15.5996 5.46248 15.5996 4.7998V3.59961H8.40039V4.7998ZM11.293 8.29297C11.6835 7.90245 12.3165 7.90245 12.707 8.29297L15.707 11.293C16.0975 11.6835 16.0975 12.3165 15.707 12.707C15.3165 13.0975 14.6835 13.0975 14.293 12.707L13 11.4141V18C13 18.5523 12.5523 19 12 19C11.4477 19 11 18.5523 11 18V11.4141L9.70703 12.707C9.31651 13.0975 8.68349 13.0975 8.29297 12.707C7.90244 12.3165 7.90244 11.6835 8.29297 11.293L11.293 8.29297Z" fill="#C6C6C6"/>
</svg>
