<svg width="24" height="24" viewBox="0 0 24 24" fill="none" xmlns="http://www.w3.org/2000/svg">
<path fill-rule="evenodd" clip-rule="evenodd" d="M0 6C0 2.68629 2.68629 0 6 0H18C21.3137 0 24 2.68629 24 6V18C24 21.3137 21.3137 24 18 24H6C2.68629 24 0 21.3137 0 18V6ZM6 2.4C4.01178 2.4 2.4 4.01178 2.4 6V18C2.4 19.0424 2.84303 19.9813 3.55106 20.6387C5.17361 17.6394 8.34745 15.6 12 15.6C15.6525 15.6 18.8264 17.6394 20.4489 20.6387C21.157 19.9813 21.6 19.0424 21.6 18V6C21.6 4.01178 19.9882 2.4 18 2.4H6ZM18.2328 21.5926C16.9861 19.4434 14.6605 18 12 18C9.33947 18 7.01384 19.4434 5.76717 21.5926C5.84415 21.5975 5.92178 21.6 6 21.6H18C18.0782 21.6 18.1558 21.5975 18.2328 21.5926ZM12 7.2C10.6745 7.2 9.6 8.27452 9.6 9.6C9.6 10.9255 10.6745 12 12 12C13.3255 12 14.4 10.9255 14.4 9.6C14.4 8.27452 13.3255 7.2 12 7.2ZM7.2 9.6C7.2 6.94903 9.34903 4.8 12 4.8C14.651 4.8 16.8 6.94903 16.8 9.6C16.8 12.251 14.651 14.4 12 14.4C9.34903 14.4 7.2 12.251 7.2 9.6Z" fill="#C6C6C6"/>
</svg>
