<svg width="24" height="24" viewBox="0 0 24 24" fill="none" xmlns="http://www.w3.org/2000/svg">
<path fill-rule="evenodd" clip-rule="evenodd" d="M8.39999 6C8.39999 4.01178 10.0118 2.4 12 2.4C13.9882 2.4 15.6 4.01178 15.6 6C15.6 7.98823 13.9882 9.6 12 9.6C10.0118 9.6 8.39999 7.98823 8.39999 6ZM12 0C8.68629 0 5.99999 2.68629 5.99999 6C5.99999 9.31371 8.68629 12 12 12C15.3137 12 18 9.31371 18 6C18 2.68629 15.3137 0 12 0ZM8.39999 14.4C5.08629 14.4 2.39999 17.0863 2.39999 20.4C2.39999 22.3882 4.01177 24 5.99999 24H18C19.9882 24 21.6 22.3882 21.6 20.4C21.6 17.0863 18.9137 14.4 15.6 14.4H8.39999ZM4.79999 20.4C4.79999 18.4118 6.41177 16.8 8.39999 16.8H15.6C17.5882 16.8 19.2 18.4118 19.2 20.4C19.2 21.0627 18.6627 21.6 18 21.6H5.99999C5.33725 21.6 4.79999 21.0627 4.79999 20.4Z" fill="#C6C6C6"/>
</svg>
