<svg width="24" height="24" viewBox="0 0 24 24" fill="none" xmlns="http://www.w3.org/2000/svg">
<path fill-rule="evenodd" clip-rule="evenodd" d="M0 12C0 5.37258 5.37258 0 12 0C18.6274 0 24 5.37258 24 12C24 18.6274 18.6274 24 12 24C5.37258 24 0 18.6274 0 12ZM12 2.4C6.69807 2.4 2.4 6.69807 2.4 12C2.4 14.4347 3.30635 16.6577 4.80006 18.35C6.70991 16.641 9.23395 15.6 12 15.6C14.7661 15.6 17.2901 16.641 19.2 18.35C20.6937 16.6577 21.6 14.4347 21.6 12C21.6 6.69807 17.3019 2.4 12 2.4ZM17.3822 19.9505C15.9239 18.7319 14.0479 18 12 18C9.95209 18 8.07609 18.7319 6.61778 19.9505C8.15284 20.9917 10.0054 21.6 12 21.6C13.9946 21.6 15.8472 20.9917 17.3822 19.9505ZM12 7.2C10.6745 7.2 9.6 8.27452 9.6 9.6C9.6 10.9255 10.6745 12 12 12C13.3255 12 14.4 10.9255 14.4 9.6C14.4 8.27452 13.3255 7.2 12 7.2ZM7.2 9.6C7.2 6.94903 9.34903 4.8 12 4.8C14.651 4.8 16.8 6.94903 16.8 9.6C16.8 12.251 14.651 14.4 12 14.4C9.34903 14.4 7.2 12.251 7.2 9.6Z" fill="#C6C6C6"/>
</svg>
