<svg width="24" height="24" viewBox="0 0 24 24" fill="none" xmlns="http://www.w3.org/2000/svg">
<path d="M9.00018 18.4004C9.00018 17.627 9.62629 17.0002 10.3996 17C11.173 17 11.8 17.6272 11.8 18.4004C11.8 18.5365 11.7812 18.6656 11.7463 18.7871L11.7453 18.7881C11.5774 19.3729 11.0362 19.7998 10.3996 19.7998C9.76301 19.7996 9.22366 19.3742 9.05487 18.79C9.01948 18.6674 9.00022 18.5372 9.00018 18.4004ZM7.00018 18.4004C7.00022 18.7268 7.04612 19.0437 7.133 19.3447C7.54229 20.7622 8.84858 21.7996 10.3996 21.7998C11.8539 21.7998 13.0958 20.8861 13.5812 19.6016L13.6682 19.3398C13.7545 19.0397 13.8 18.7247 13.8 18.4004C13.8 16.5229 12.2778 15 10.3996 15C8.52172 15.0002 7.00018 16.5225 7.00018 18.4004Z" fill="#C6C6C6"/>
<path d="M4.08401 8.00391C4.22887 8.01201 4.37857 8.0328 4.51077 8.06836C4.59689 8.09155 4.66238 8.11763 4.70803 8.1416C4.75123 8.1643 4.76661 8.1797 4.76663 8.17969C4.79149 8.20652 4.81808 8.23191 4.84573 8.25586L6.8594 10H2.00003V8H3.94143L4.08401 8.00391ZM2.47955e-05 10.6025C2.47955e-05 11.2373 0.474792 11.9998 1.34475 12H8.72659C9.38788 11.9998 9.78842 11.5256 9.92581 11.126C10.0638 10.7246 10.0266 10.1868 9.64651 9.77637L9.56741 9.69922L6.16995 6.75781C5.81958 6.4117 5.38525 6.23303 5.03128 6.1377C4.64373 6.03334 4.25375 6.00001 3.94143 6H1.34475L1.18655 6.00879C0.4174 6.09493 2.47955e-05 6.8023 2.47955e-05 7.39746V10.6025Z" fill="#C6C6C6"/>
<path d="M1.00039 17C0.448106 17 0.000391006 17.4477 0.000391006 18C0.000391006 18.5523 0.448106 19 1.00039 19H7.6C8.15229 19 8.6 18.5523 8.6 18C8.6 17.4477 8.15229 17 7.6 17H1.00039Z" fill="#C6C6C6"/>
<path d="M2 3C1.44772 3 1 3.44772 1 4C1 4.55228 1.44772 5 2 5H5.20605C5.96472 5.00007 6.68862 5.27802 7.23047 5.76562L11.5859 9.68359C11.8468 9.91776 12.1613 10.085 12.5 10.1709L12.6465 10.2031C14.8466 10.6018 16.0106 11.4042 16.6357 12.1016C17.2678 12.8066 17.426 13.4913 17.4658 13.7705C17.5182 14.1364 17.687 14.4809 17.9531 14.7529C18.0279 15.2058 18.005 15.561 17.9434 15.8369L17.8857 16.0273C17.7434 16.3992 17.4418 16.7109 17.041 16.8828L16.833 16.957L16.6758 16.9893C16.6194 16.9966 16.5588 17 16.4951 17H13.2646L13.1631 17.0049C12.6587 17.056 12.2646 17.4821 12.2646 18C12.2646 18.5179 12.6587 18.944 13.1631 18.9951L13.2646 19H16.4951C16.7814 19 17.0826 18.9653 17.3818 18.8799C18.5209 18.555 19.4771 17.6901 19.832 16.5137L19.8955 16.2744C20.0231 15.7039 20.041 15.055 19.9082 14.3271C19.8443 13.9803 19.6781 13.6605 19.4326 13.4082C19.3386 12.8318 19.0449 11.7928 18.125 10.7666C17.1543 9.68381 15.563 8.69923 13.0039 8.23535L12.958 8.21973C12.9445 8.2131 12.9327 8.20514 12.9229 8.19629L8.56836 4.27832C7.65143 3.45319 6.44811 3.00007 5.20605 3H2Z" fill="#C6C6C6"/>
<path d="M14.4844 10C13.8196 10 13.3667 10.4352 13.1641 10.8564C12.9602 11.2803 12.93 11.8182 13.165 12.3047L13.3506 12.6885C13.8221 13.6655 14.6811 14.4123 15.7471 14.6064L17.8213 14.9834C18.3645 15.0821 18.8845 14.7219 18.9834 14.1787C19.0821 13.6355 18.7219 13.1155 18.1787 13.0166L16.1055 12.6387C15.8102 12.5849 15.4886 12.3803 15.252 12H16.5684C17.1205 11.9998 17.5684 11.5522 17.5684 11C17.5684 10.4478 17.1205 10.0002 16.5684 10H14.4844Z" fill="#C6C6C6"/>
<path d="M1.00002 15.4C0.44774 15.4 2.48347e-05 14.9523 2.4883e-05 14.4C2.49312e-05 13.8477 0.44774 13.4 1.00002 13.4H5.00002C5.55231 13.4 6.00002 13.8477 6.00002 14.4C6.00002 14.9523 5.55231 15.4 5.00002 15.4H1.00002Z" fill="#C6C6C6"/>
<path d="M18 0C21.3137 0 24 2.68629 24 6V18C24 21.3137 21.3137 24 18 24H6C2.68629 24 0.000391006 21.3137 0.000391006 18L0 6C0 2.68629 2.68629 0 6 0H18ZM6 2C3.79086 2 2 3.79086 2 6V18C2 20.2091 3.79086 22 6 22H18C20.2091 22 22 20.2091 22 18V6C22 3.79086 20.2091 2 18 2H6Z" fill="#C6C6C6"/>
</svg>
