<svg width="24" height="24" viewBox="0 0 24 24" fill="none" xmlns="http://www.w3.org/2000/svg">
<path d="M8.99999 17.4C8.99999 17.6317 9.03272 17.8553 9.09389 18.0672C9.3829 19.0682 10.3059 19.8 11.4 19.8C12.494 19.8 13.4192 19.0665 13.707 18.0637C13.7677 17.8527 13.8 17.6304 13.8 17.4C13.8 16.0747 12.7258 15 11.4 15C10.0742 15 8.99999 16.0742 8.99999 17.4Z" stroke="#C6C6C6" stroke-width="2" stroke-linecap="round" stroke-linejoin="round"/>
<path d="M3.19051 6H3.9413C4.43935 6 5.13674 6.10754 5.5 6.5L8.91312 9.4556C9.09388 9.65083 8.97372 10 8.72609 10H1.19051" stroke="#C6C6C6" stroke-width="2" stroke-linecap="round" stroke-linejoin="round"/>
<path d="M3 17H8.59998" stroke="#C6C6C6" stroke-width="2" stroke-linecap="round" stroke-linejoin="round"/>
<path d="M6.20577 3C7.20624 3 7.16951 3.36551 7.89896 4.02194L12.2544 7.9406C12.4134 8.08329 12.6109 8.18011 12.825 8.21902C17.5848 9.0816 18.3369 11.793 18.4562 12.6287C18.4804 12.7974 18.5596 12.9549 18.6857 13.0748L18.6968 13.0855C18.8161 13.1999 18.8954 13.3472 18.9248 13.5071C19.0355 14.1135 19.0157 14.6258 18.9195 15.0557C18.7157 15.9646 18.0026 16.6632 17.107 16.9185C16.9089 16.975 16.7022 17 16.4954 17H16.3447H14.2651" stroke="#C6C6C6" stroke-width="2" stroke-linecap="round" stroke-linejoin="round"/>
<path d="M16.568 10H14.4839C14.1116 10 13.8792 10.483 14.0658 10.8692L14.2515 11.2537C14.6073 11.9909 15.2233 12.4943 15.9259 12.6223L18 13" stroke="#C6C6C6" stroke-width="2" stroke-linecap="round" stroke-linejoin="round"/>
<path d="M2 13.4L7 13.4" stroke="#C6C6C6" stroke-width="2" stroke-linecap="round" stroke-linejoin="round"/>
<circle cx="12" cy="12" r="11" stroke="#C6C6C6" stroke-width="2"/>
</svg>
