<svg width="24" height="24" viewBox="0 0 24 24" fill="none" xmlns="http://www.w3.org/2000/svg">
<path d="M13.2002 2.40039C15.8511 2.4005 18 4.54929 18 7.2002V7.50488L19.9941 5.71094C21.5385 4.321 23.9998 5.41649 24 7.49414V16.5059C23.9998 18.5835 21.5385 19.679 19.9941 18.2891L18 16.4941V16.7998C18 19.4507 15.8511 21.5995 13.2002 21.5996H4.7998C2.14893 21.5995 0 19.4507 0 16.7998V7.2002C0 4.54929 2.14893 2.4005 4.7998 2.40039H13.2002ZM4.7998 4.7998C3.47441 4.79991 2.40039 5.87478 2.40039 7.2002V16.7998C2.40039 18.1252 3.47441 19.2001 4.7998 19.2002H13.2002C14.5256 19.2001 15.5996 18.1252 15.5996 16.7998V7.2002C15.5996 5.87478 14.5256 4.79991 13.2002 4.7998H4.7998ZM18 10.7344V13.2656L21.5996 16.5059V7.49414L18 10.7344Z" fill="#C6C6C6"/>
</svg>
