<svg width="24" height="24" viewBox="0 0 24 24" fill="none" xmlns="http://www.w3.org/2000/svg">
<path fill-rule="evenodd" clip-rule="evenodd" d="M3.70711 2.29289C3.31658 1.90237 2.68342 1.90237 2.29289 2.29289C1.90237 2.68342 1.90237 3.31658 2.29289 3.70711L3.19177 4.60598C2.46779 5.15368 2 6.02221 2 7V16C2 18.2091 3.79086 20 6 20H13C14.5123 20 15.8285 19.1608 16.5085 17.9227L20.2929 21.7071C20.6834 22.0976 21.3166 22.0976 21.7071 21.7071C22.0976 21.3166 22.0976 20.6834 21.7071 20.2929L3.70711 2.29289ZM14.9642 16.3785L4.64909 6.0633C4.2699 6.20542 4 6.57119 4 7V16C4 17.1046 4.89543 18 6 18H13C13.9752 18 14.7873 17.3021 14.9642 16.3785ZM9 5C9 4.44772 9.44772 4 10 4H13C15.2091 4 17 5.79086 17 8V8.25467L18.6621 6.75879C19.9491 5.60045 22 6.51384 22 8.24538V16C22 16.5523 21.5523 17 21 17C20.4477 17 20 16.5523 20 16V8.24538L17 10.9454V11.5C17 12.0523 16.5523 12.5 16 12.5C15.4477 12.5 15 12.0523 15 11.5V8C15 6.89543 14.1046 6 13 6H10C9.44772 6 9 5.55228 9 5Z" fill="#C6C6C6"/>
</svg>
