<svg width="24" height="24" viewBox="0 0 24 24" fill="none" xmlns="http://www.w3.org/2000/svg">
<path fill-rule="evenodd" clip-rule="evenodd" d="M10.8397 4C9.38012 4 7.99337 4.63781 7.04346 5.74604L6.92054 5.88945C6.62705 6.23185 6.22645 6.46502 5.78377 6.55109L5.23652 6.6575C3.35695 7.02297 2 8.6692 2 10.584V13.416C2 15.3308 3.35696 16.977 5.23652 17.3425L5.78377 17.4489C6.22645 17.535 6.62705 17.7681 6.92054 18.1106L7.04346 18.254C7.99337 19.3622 9.38012 20 10.8397 20H11C12.6569 20 14 18.6569 14 17V7C14 5.34315 12.6569 4 11 4H10.8397ZM8.56197 7.04763C9.13192 6.38269 9.96396 6 10.8397 6H11C11.5523 6 12 6.44772 12 7V17C12 17.5523 11.5523 18 11 18H10.8397C9.96397 18 9.13192 17.6173 8.56197 16.9524L8.43905 16.809C7.85207 16.1242 7.05087 15.6578 6.1655 15.4857L5.61826 15.3793C4.67848 15.1965 4 14.3734 4 13.416V10.584C4 9.62658 4.67848 8.80347 5.61826 8.62073L6.1655 8.51433C7.05087 8.34217 7.85207 7.87584 8.43905 7.19103L8.56197 7.04763ZM17.7071 9.29289C17.3166 8.90237 16.6834 8.90237 16.2929 9.29289C15.9024 9.68342 15.9024 10.3166 16.2929 10.7071L17.5858 12L16.2929 13.2929C15.9024 13.6834 15.9024 14.3166 16.2929 14.7071C16.6834 15.0976 17.3166 15.0976 17.7071 14.7071L19 13.4142L20.2929 14.7071C20.6834 15.0976 21.3166 15.0976 21.7071 14.7071C22.0976 14.3166 22.0976 13.6834 21.7071 13.2929L20.4142 12L21.7071 10.7071C22.0976 10.3166 22.0976 9.68342 21.7071 9.29289C21.3166 8.90237 20.6834 8.90237 20.2929 9.29289L19 10.5858L17.7071 9.29289Z" fill="#C6C6C6"/>
</svg>
