<svg width="24" height="24" viewBox="0 0 24 24" fill="none" xmlns="http://www.w3.org/2000/svg">
<path d="M13.4059 0C14.3606 0 15.2766 0.379556 15.9518 1.05469L20.5455 5.64844C21.2206 6.32357 21.6002 7.23956 21.6002 8.19434V19.2002C21.6001 21.8509 19.4511 23.9998 16.8004 24H7.1998C4.54899 23.9999 2.4001 21.851 2.39999 19.2002V4.7998C2.4001 2.14899 4.54899 0.000105652 7.1998 0H13.4059ZM7.1998 2.40039C5.87447 2.4005 4.80049 3.47448 4.80038 4.7998V19.2002C4.80049 20.5255 5.87447 21.5995 7.1998 21.5996H16.8004C18.1256 21.5994 19.1997 20.5255 19.1998 19.2002V9.59961H17.9996C14.6861 9.5994 11.9996 6.91319 11.9996 3.59961V2.40039H7.1998ZM14.4 3.59961C14.4 5.5877 16.0116 7.19998 17.9996 7.2002H18.7027L14.4 2.89746V3.59961Z" fill="#C6C6C6"/>
<path d="M12.3865 10C13.1307 10 13.7341 10.5689 13.7342 11.2705C13.7342 11.3721 13.8087 11.5076 13.9861 11.5986C14.0408 11.6266 14.0951 11.6563 14.1482 11.6865C14.3255 11.7873 14.4919 11.7803 14.5896 11.7275C15.2387 11.3775 16.0657 11.5872 16.4422 12.1963L16.8162 12.8008C17.1931 13.411 16.9703 14.1942 16.3201 14.5449C16.226 14.5959 16.1372 14.7249 16.1414 14.917C16.142 14.9445 16.1424 14.9724 16.1424 15C16.1424 15.0276 16.142 15.0555 16.1414 15.083C16.1372 15.2751 16.226 15.4041 16.3201 15.4551C16.9703 15.8058 17.1931 16.589 16.8162 17.1992L16.4422 17.8037C16.0657 18.4128 15.2387 18.6225 14.5896 18.2725C14.4919 18.2197 14.3255 18.2127 14.1482 18.3135C14.0951 18.3437 14.0408 18.3734 13.9861 18.4014C13.8087 18.4924 13.7342 18.6279 13.7342 18.7295C13.7341 19.4311 13.1307 20 12.3865 20H11.6131C10.8688 20 10.2655 19.4311 10.2654 18.7295C10.2654 18.6279 10.191 18.4924 10.0134 18.4014C9.95874 18.3734 9.9045 18.3437 9.85134 18.3135C9.67406 18.2128 9.50764 18.2198 9.40993 18.2725C8.7609 18.6224 7.93379 18.4128 7.55739 17.8037L7.18337 17.1992C6.80653 16.589 7.02929 15.8058 7.67946 15.4551C7.77364 15.4042 7.86239 15.2752 7.85817 15.083C7.85756 15.0555 7.8572 15.0276 7.8572 15C7.8572 14.9724 7.85756 14.9445 7.85817 14.917C7.86238 14.7248 7.77364 14.5958 7.67946 14.5449C7.02928 14.1942 6.80653 13.411 7.18337 12.8008L7.55739 12.1963C7.93379 11.5872 8.76089 11.3776 9.40993 11.7275C9.50765 11.7802 9.67406 11.7872 9.85134 11.6865C9.9045 11.6563 9.95874 11.6266 10.0134 11.5986C10.191 11.5076 10.2654 11.3721 10.2654 11.2705C10.2655 10.5689 10.8688 10 11.6131 10H12.3865ZM11.6131 11C11.4546 11 11.326 11.1212 11.3259 11.2705C11.3259 11.8235 10.9518 12.2561 10.5193 12.4775C10.4786 12.4984 10.4387 12.5205 10.3992 12.543C9.97738 12.7827 9.39305 12.8704 8.88356 12.5957C8.74018 12.5184 8.55657 12.5647 8.47341 12.6992L8.10036 13.3037C8.01979 13.4341 8.06702 13.6017 8.20583 13.6768C8.71621 13.952 8.92913 14.4744 8.91872 14.9385C8.91826 14.9589 8.91774 14.9794 8.91774 15C8.91774 15.0206 8.91826 15.0411 8.91872 15.0615C8.92914 15.5256 8.7162 16.048 8.20583 16.3232C8.06703 16.3983 8.01979 16.5659 8.10036 16.6963L8.47341 17.3008C8.55657 17.4353 8.74018 17.4816 8.88356 17.4043C9.39305 17.1296 9.97738 17.2173 10.3992 17.457C10.4387 17.4795 10.4786 17.5016 10.5193 17.5225C10.9518 17.7439 11.3259 18.1765 11.3259 18.7295C11.326 18.8788 11.4546 19 11.6131 19H12.3865C12.5449 19 12.6735 18.8788 12.6736 18.7295C12.6736 18.1765 13.0478 17.7439 13.4802 17.5225C13.5209 17.5017 13.5608 17.4795 13.6004 17.457C14.0222 17.2173 14.6074 17.1295 15.117 17.4043C15.2603 17.4814 15.4431 17.4352 15.5261 17.3008L15.8992 16.6963C15.9798 16.5659 15.9326 16.3983 15.7937 16.3232C15.2833 16.048 15.0704 15.5256 15.0808 15.0615C15.0813 15.0411 15.0818 15.0206 15.0818 15C15.0818 14.9794 15.0813 14.9589 15.0808 14.9385C15.0704 14.4744 15.2833 13.952 15.7937 13.6768C15.9326 13.6017 15.9798 13.4341 15.8992 13.3037L15.5261 12.6992C15.4431 12.5648 15.2603 12.5186 15.117 12.5957C14.6074 12.8705 14.0223 12.7827 13.6004 12.543C13.5608 12.5205 13.5209 12.4983 13.4802 12.4775C13.0478 12.2561 12.6736 11.8235 12.6736 11.2705C12.6735 11.1212 12.5449 11 12.3865 11H11.6131ZM11.9998 13C13.1714 13 14.1209 13.8955 14.1209 15C14.1209 16.1045 13.1714 17 11.9998 17C10.8282 17 9.87868 16.1045 9.87868 15C9.87868 13.8955 10.8282 13 11.9998 13ZM11.9998 14C11.414 14 10.9392 14.4478 10.9392 15C10.9392 15.5522 11.414 16 11.9998 16C12.5856 16 13.0603 15.5523 13.0603 15C13.0603 14.4477 12.5856 14 11.9998 14Z" fill="#C6C6C6"/>
</svg>
