<svg width="24" height="24" viewBox="0 0 24 24" fill="none" xmlns="http://www.w3.org/2000/svg">
<g clip-path="url(#clip0_4317_3)">
<path d="M6.24983 1.38744C8.29273 -0.52386 11.4722 -0.460553 13.4393 1.57885L13.5389 1.69018C13.8861 2.10849 14.043 2.64476 13.9881 3.17357L15.4422 1.72826L15.6317 1.55736C16.5482 0.813657 17.8695 0.813533 18.786 1.55736L18.9754 1.72826L22.741 5.47436L22.868 5.6101C23.1102 5.88992 23.2865 6.21858 23.3856 6.57103L23.4285 6.74877L23.4295 6.75365L23.951 9.3474L23.9774 9.50268C24.0761 10.2273 23.8512 10.9562 23.3699 11.4988L23.2625 11.613L22.6004 12.2712C21.685 13.1817 20.2395 13.2385 19.2576 12.4421L19.0672 12.2712L18.4188 11.6267L16.866 13.0378C17.4189 13.5345 17.9779 14.0237 18.5457 14.5017L19.3807 15.1941L21.5487 16.9617C23.2811 18.3747 23.4812 20.9901 22.0457 22.6687L21.9022 22.8288H21.9012C20.2744 24.5324 17.5772 24.3485 16.1756 22.4597L14.491 20.1902V20.1892L13.8299 19.3122C13.3796 18.7243 12.9189 18.1453 12.451 17.573C11.9529 18.1316 11.4627 18.6973 10.9823 19.2703L10.2459 20.1628L8.36897 22.4744L8.36799 22.4753C6.88916 24.2948 4.14824 24.5061 2.39045 22.9968L2.22346 22.8454C0.443938 21.1398 0.634817 18.3138 2.6092 16.8425L5.02131 15.0456L5.95393 14.3396C6.67263 13.787 7.37992 13.2203 8.07698 12.6433L6.79475 11.2371L6.74104 11.2996L5.78694 12.2898C4.93038 13.1775 3.54694 13.2329 2.62483 12.4558L2.44709 12.2898L0.655101 10.4314C-0.21857 9.52495 -0.218652 8.08386 0.655101 7.17748L1.5926 6.20678L1.78694 6.02416C2.00999 5.83613 2.25886 5.69441 2.51936 5.59545C2.64119 5.24564 2.83662 4.9153 3.1092 4.63256L6.05549 1.57885V1.57787L6.24983 1.38744ZM13.5086 10.4851C11.5008 12.4067 9.38591 14.2228 7.17268 15.9246L6.21565 16.6492L3.80354 18.446C2.81126 19.1857 2.72954 20.5598 3.60725 21.4011C4.51802 22.2733 6.03386 22.1763 6.81623 21.2136L8.69416 18.9021L9.45002 17.9851C11.2311 15.861 13.1318 13.8314 15.1434 11.905L15.1522 11.8962L15.1619 11.8874L16.9998 10.2146L15.4676 8.69018L13.5086 10.4851ZM15.4237 14.4304C14.8794 14.9735 14.3435 15.524 13.8172 16.0828C14.3619 16.744 14.8959 17.415 15.4178 18.0964L16.0975 18.9978L17.7821 21.2683C18.4528 22.1722 19.6936 22.245 20.4549 21.448L20.5936 21.2859C21.2355 20.444 21.1057 19.1811 20.285 18.5115L18.117 16.7439L17.2576 16.032C16.6371 15.5096 16.0267 14.9744 15.4237 14.4304ZM8.3719 9.60912C8.31039 9.67287 8.24537 9.73146 8.17952 9.78783L9.60041 11.3474C10.078 10.9303 10.55 10.5075 11.0164 10.0788L9.51545 8.4226L8.3719 9.60912ZM11.9998 2.96654C10.7561 1.67735 8.73929 1.6773 7.49495 2.96654L4.54866 6.02123C4.31034 6.26894 4.31024 6.67104 4.54866 6.91869L4.67952 7.05443L3.98127 7.77807L3.80549 7.59447C3.5922 7.37343 3.24536 7.37345 3.03205 7.59447L2.09553 8.56615C1.96881 8.6979 1.96866 8.91204 2.09553 9.04369L3.88655 10.9011C3.9976 11.0162 4.16946 11.0302 4.29573 10.9441L4.34651 10.9011L5.30159 9.91088C5.50559 9.69931 5.5055 9.35717 5.30159 9.14623L5.10725 8.94408L5.80549 8.22045C6.11614 8.54253 6.62066 8.54226 6.93147 8.22045L9.1844 5.88549C9.49518 5.56327 9.49518 5.03974 9.1844 4.71752L10.077 3.79271C10.5865 3.26443 11.279 2.96666 11.9998 2.96654ZM17.5653 3.14623C17.3688 2.95081 17.0489 2.95091 16.8524 3.14623L15.1473 4.84252C14.9509 5.03796 14.9509 5.35507 15.1473 5.55053L20.4774 10.8533C20.6493 11.024 20.9158 11.0458 21.1112 10.9177L21.1903 10.8533L21.8524 10.1951C21.9564 10.0916 22.0093 9.94775 21.9989 9.80346L21.9901 9.74193L21.4686 7.14818C21.4538 7.07565 21.4228 7.0072 21.3787 6.94799L21.3309 6.89232L17.5653 3.14623ZM13.0584 4.66186C12.7472 4.85604 12.3825 4.96654 11.9998 4.96654C11.8745 4.96663 11.744 5.00523 11.6278 5.08568L11.5164 5.18041L11.4168 5.28295C11.4206 5.87057 11.2423 6.45715 10.8856 6.95482L12.4803 8.71361L14.0487 7.27807L13.7371 6.9685C13.1086 6.34324 12.8828 5.46753 13.0584 4.66186Z" fill="#C6C6C6"/>
</g>
<defs>
<clipPath id="clip0_4317_3">
<rect width="24" height="23.9995" fill="white"/>
</clipPath>
</defs>
</svg>
