<svg width="24" height="24" viewBox="0 0 24 24" fill="none" xmlns="http://www.w3.org/2000/svg">
<g clip-path="url(#clip0_230_4266)">
<path d="M12 0C18.6274 0 24 5.37258 24 12C24 18.6274 18.6274 24 12 24C5.37258 24 0 18.6274 0 12C2.57711e-07 5.37258 5.37258 2.57703e-07 12 0ZM12 2.40039C6.69807 2.40039 2.40039 6.69807 2.40039 12C2.40039 17.3019 6.69807 21.5996 12 21.5996C17.3019 21.5996 21.5996 17.3019 21.5996 12C21.5996 6.69807 17.3019 2.40039 12 2.40039ZM12.0117 15.5996C12.6744 15.5996 13.2118 16.1372 13.2119 16.7998C13.2119 17.4625 12.6745 18 12.0117 18H12C11.3373 18 10.7998 17.4625 10.7998 16.7998C10.7999 16.1372 11.3373 15.5996 12 15.5996H12.0117ZM12 6C12.6627 6 13.2002 6.53745 13.2002 7.2002V12C13.2002 12.6627 12.6627 13.2002 12 13.2002C11.3373 13.2002 10.7998 12.6627 10.7998 12V7.2002C10.7998 6.53745 11.3373 6 12 6Z" fill="#C6C6C6"/>
</g>
<defs>
<clipPath id="clip0_230_4266">
<rect width="24" height="24" fill="white"/>
</clipPath>
</defs>
</svg>
