<svg width="24" height="24" viewBox="0 0 24 24" fill="none" xmlns="http://www.w3.org/2000/svg">
<path fill-rule="evenodd" clip-rule="evenodd" d="M8 2C5.79086 2 4 3.79086 4 6L4 18C4 20.2091 5.79086 22 8 22L16 22C18.2091 22 20 20.2091 20 18L20 6C20 3.79086 18.2091 2 16 2L14.3575 2L9.64251 2L8 2ZM8 4L9.64251 4C10.0957 4 10.51 4.25605 10.7127 4.66139C11.2431 5.72221 12.7569 5.72221 13.2873 4.66139C13.49 4.25605 13.9043 4 14.3575 4L16 4C17.1046 4 18 4.89543 18 6L18 18C18 19.1046 17.1046 20 16 20L8 20C6.89543 20 6 19.1046 6 18L6 6C6 4.89543 6.89543 4 8 4ZM13 12.4142L14.2929 13.7071C14.6834 14.0976 15.3166 14.0976 15.7071 13.7071C16.0976 13.3166 16.0976 12.6834 15.7071 12.2929L12.7071 9.29289C12.6112 9.19702 12.5007 9.12468 12.3828 9.07588C12.2649 9.02699 12.1356 9 12 9C11.8644 9 11.7351 9.02699 11.6172 9.07588C11.4993 9.12468 11.3888 9.19702 11.2929 9.29289L8.29289 12.2929C7.90237 12.6834 7.90237 13.3166 8.29289 13.7071C8.68342 14.0976 9.31658 14.0976 9.70711 13.7071L11 12.4142L11 16C11 16.5523 11.4477 17 12 17C12.5523 17 13 16.5523 13 16L13 12.4142Z" fill="#C6C6C6"/>
</svg>
