<svg width="24" height="24" viewBox="0 0 24 24" fill="none" xmlns="http://www.w3.org/2000/svg">
<path fill-rule="evenodd" clip-rule="evenodd" d="M4 6C4 3.79086 5.79086 2 8 2H9.64251H14.3575H16C18.2091 2 20 3.79086 20 6V12C20 12.5523 19.5523 13 19 13C18.4477 13 18 12.5523 18 12V6C18 4.89543 17.1046 4 16 4H14.3575C13.9043 4 13.49 4.25604 13.2873 4.66139C12.7569 5.72221 11.2431 5.72221 10.7127 4.66139C10.51 4.25604 10.0957 4 9.64251 4H8C6.89543 4 6 4.89543 6 6V18C6 19.1046 6.89543 20 8 20H10C10.5523 20 11 20.4477 11 21C11 21.5523 10.5523 22 10 22H8C5.79086 22 4 20.2091 4 18V6ZM14 18C14 16.8954 14.8954 16 16 16C17.1046 16 18 16.8954 18 18C18 19.1046 17.1046 20 16 20C14.8954 20 14 19.1046 14 18ZM16 14C13.7909 14 12 15.7909 12 18C12 20.2091 13.7909 22 16 22C18.2091 22 20 20.2091 20 18C20 15.7909 18.2091 14 16 14Z" fill="#C6C6C6"/>
</svg>
