<svg width="24" height="24" viewBox="0 0 24 24" fill="none" xmlns="http://www.w3.org/2000/svg">
<path d="M18 0C21.3137 0 24 2.68629 24 6V18C24 21.3137 21.3137 24 18 24H6C2.68629 24 0 21.3137 0 18V6C1.28855e-07 2.68629 2.68629 1.28851e-07 6 0H18ZM6 2.40039C4.01178 2.40039 2.40039 4.01178 2.40039 6V18C2.40039 19.9882 4.01178 21.5996 6 21.5996H18C19.9882 21.5996 21.5996 19.9882 21.5996 18V6C21.5996 4.01178 19.9882 2.40039 18 2.40039H6ZM12 6C12.3183 6 12.6236 6.12652 12.8486 6.35156L17.6484 11.1514C18.1171 11.62 18.1171 12.38 17.6484 12.8486C17.1798 13.3172 16.4198 13.3172 15.9512 12.8486L13.2002 10.0967V16.7998C13.2002 17.4625 12.6627 18 12 18C11.3373 18 10.7998 17.4625 10.7998 16.7998V10.0967L8.04883 12.8486C7.58023 13.3172 6.8202 13.3172 6.35156 12.8486C5.88293 12.38 5.88293 11.62 6.35156 11.1514L11.1514 6.35156C11.3764 6.12652 11.6817 6 12 6Z" fill="#C6C6C6"/>
</svg>
