<svg width="24" height="24" viewBox="0 0 24 24" fill="none" xmlns="http://www.w3.org/2000/svg">
<path fill-rule="evenodd" clip-rule="evenodd" d="M7 2C4.23858 2 2 4.23858 2 7V17C2 19.7614 4.23858 22 7 22H17C19.7614 22 22 19.7614 22 17V7C22 4.23858 19.7614 2 17 2H7ZM4 7C4 5.34315 5.34315 4 7 4H17C18.6569 4 20 5.34315 20 7V17C20 18.6569 18.6569 20 17 20H7C5.34315 20 4 18.6569 4 17V7ZM12.7072 7.29289C12.3166 6.90237 11.6835 6.90237 11.293 7.29289C10.9024 7.68342 10.9024 8.31658 11.293 8.70711L13.5858 11H8.00006C7.44778 11 7.00006 11.4477 7.00006 12C7.00006 12.5523 7.44778 13 8.00006 13H13.5858L11.293 15.2929C10.9024 15.6834 10.9024 16.3166 11.293 16.7071C11.6835 17.0976 12.3166 17.0976 12.7072 16.7071L16.7072 12.7071C16.8947 12.5196 17.0001 12.2652 17.0001 12C17.0001 11.7348 16.8947 11.4804 16.7072 11.2929L12.7072 7.29289Z" fill="#C6C6C6"/>
</svg>
