<svg width="24" height="24" viewBox="0 0 24 24" fill="none" xmlns="http://www.w3.org/2000/svg">
<path fill-rule="evenodd" clip-rule="evenodd" d="M15.8944 2.55282C15.6474 2.05884 15.0468 1.85862 14.5528 2.10561C14.0588 2.3526 13.8586 2.95327 14.1056 3.44725L15.382 6.00003H8.61805L9.89443 3.44727C10.1414 2.95329 9.94119 2.35262 9.44722 2.10563C8.95324 1.85864 8.35256 2.05886 8.10557 2.55284L6.38162 6.00075C3.98534 6.04588 2.15864 8.18158 2.49923 10.5657L3.51943 17.7071C3.87132 20.1704 5.98093 22 8.46918 22H15.5308C18.0191 22 20.1287 20.1704 20.4806 17.7071L21.5008 10.5657C21.8414 8.18159 20.0147 6.04588 17.6184 6.00075L15.8944 2.55282ZM6.45903 8.00003C5.24193 8.00003 4.307 9.078 4.47913 10.2829L5.49933 17.4243C5.71047 18.9022 6.97623 20 8.46918 20H15.5308C17.0238 20 18.2895 18.9022 18.5007 17.4243L19.5209 10.2829C19.693 9.078 18.7581 8.00003 17.541 8.00003H6.45903Z" fill="#C6C6C6"/>
</svg>
