<svg width="24" height="24" viewBox="0 0 24 24" fill="none" xmlns="http://www.w3.org/2000/svg">
<path d="M12.6338 0C14.9063 0.000123208 16.9836 1.28388 18 3.31641L18.7422 4.80176C21.6177 4.85594 23.8101 7.41833 23.4014 10.2793L22.1768 18.8486C21.7545 21.8045 19.2231 23.9999 16.2373 24H7.7627C4.77687 23.9999 2.24551 21.8045 1.82324 18.8486L0.598633 10.2793C0.189969 7.41865 2.38177 4.8565 5.25684 4.80176L6 3.31641C7.01637 1.28367 9.0938 0.000128669 11.3662 0H12.6338ZM5.35059 7.2002C3.89012 7.20029 2.76807 8.49365 2.97461 9.93945L4.19922 18.5088C4.45257 20.2823 5.97124 21.6005 7.7627 21.6006H16.2373C18.0288 21.6005 19.5474 20.2823 19.8008 18.5088L21.0254 9.93945C21.2319 8.49365 20.1099 7.20029 18.6494 7.2002H5.35059ZM11.3662 2.39941C10.0026 2.39954 8.7562 3.17021 8.14648 4.38965L7.94141 4.7998H16.0586L15.8535 4.38965C15.2437 3.17022 13.9972 2.39954 12.6338 2.39941H11.3662Z" fill="#C6C6C6"/>
</svg>
