<svg width="24" height="24" viewBox="0 0 24 24" fill="none" xmlns="http://www.w3.org/2000/svg">
<path fill-rule="evenodd" clip-rule="evenodd" d="M7.00015 4.76363C7.84715 3.06962 9.57837 2 11.4721 2H12.5279C14.4218 2 16.1531 3.07003 17 4.76396L17.6184 6.00073C20.0147 6.04586 21.8414 8.18157 21.5008 10.5657L20.4806 17.7071C20.1287 20.1704 18.0191 22 15.5308 22H8.46918C5.98093 22 3.87132 20.1704 3.51943 17.7071L2.49923 10.5657C2.15864 8.18156 3.98533 6.04586 6.3816 6.00073L7.00015 4.76363ZM17.0217 8C17.0077 8.00029 16.9938 8.00029 16.9799 8H7.02012C7.00621 8.00029 6.99228 8.00029 6.97833 8H6.45903C5.24193 8 4.307 9.07798 4.47913 10.2828L5.49933 17.4243C5.71047 18.9022 6.97623 20 8.46918 20H15.5308C17.0238 20 18.2895 18.9022 18.5007 17.4243L19.5209 10.2828C19.693 9.07798 18.7581 8 17.541 8H17.0217ZM15.2112 5.65838L15.382 6H8.61803L8.789 5.65805C9.29714 4.64179 10.3357 4 11.4721 4H12.5279C13.6642 4 14.703 4.64202 15.2112 5.65838ZM15.7295 12.6839C16.1073 12.281 16.0869 11.6482 15.6839 11.2705C15.281 10.8927 14.6482 10.9131 14.2705 11.3161L11.1559 14.6383L9.62852 13.404C9.19896 13.0569 8.56933 13.1237 8.22221 13.5533C7.87509 13.9829 7.94192 14.6125 8.37148 14.9596L10.6215 16.7778C11.0289 17.107 11.6213 17.0661 11.9795 16.6839L15.7295 12.6839Z" fill="#C6C6C6"/>
</svg>
