<svg width="24" height="24" viewBox="0 0 24 24" fill="none" xmlns="http://www.w3.org/2000/svg">
<path fill-rule="evenodd" clip-rule="evenodd" d="M14.5528 2.10561C15.0468 1.85862 15.6474 2.05884 15.8944 2.55282L17.6184 6.00075C20.0147 6.04588 21.8414 8.18159 21.5008 10.5657L20.4806 17.7071C20.1287 20.1704 18.0191 22 15.5308 22H8.46919C5.98093 22 3.87133 20.1704 3.51944 17.7071L2.49924 10.5657C2.15865 8.18158 3.98535 6.04588 6.38162 6.00075L8.10558 2.55284C8.35257 2.05886 8.95324 1.85864 9.44722 2.10563C9.9412 2.35262 10.1414 2.95329 9.89444 3.44727L8.61806 6.00003H15.382L14.1056 3.44725C13.8586 2.95327 14.0588 2.3526 14.5528 2.10561ZM4.47914 10.2829C4.30701 9.078 5.24193 8.00003 6.45903 8.00003H17.541C18.7581 8.00003 19.693 9.078 19.5209 10.2829L18.5007 17.4243C18.2895 18.9022 17.0238 20 15.5308 20H8.46919C6.97624 20 5.71047 18.9022 5.49934 17.4243L4.47914 10.2829ZM13 11C13 10.4477 12.5523 10 12 10C11.4477 10 11 10.4477 11 11V13H9C8.44772 13 8 13.4477 8 14C8 14.5523 8.44772 15 9 15H11V17C11 17.5523 11.4477 18 12 18C12.5523 18 13 17.5523 13 17V15H15C15.5523 15 16 14.5523 16 14C16 13.4477 15.5523 13 15 13H13V11Z" fill="#C6C6C6"/>
</svg>
