<svg width="24" height="24" viewBox="0 0 24 24" fill="none" xmlns="http://www.w3.org/2000/svg">
<path fill-rule="evenodd" clip-rule="evenodd" d="M14.5528 2.10561C15.0468 1.85862 15.6474 2.05884 15.8944 2.55282L17.6184 6.00075C20.0147 6.04586 21.8414 8.18158 21.5008 10.5657L21.2103 12.5992C21.1322 13.1459 20.6257 13.5258 20.0789 13.4477C19.5322 13.3696 19.1523 12.8631 19.2304 12.3164L19.5209 10.2829C19.693 9.078 18.7581 8.00003 17.541 8.00003H6.45906C5.24196 8.00003 4.30704 9.078 4.47917 10.2829L5.49937 17.4243C5.7105 18.9022 6.97627 20 8.46922 20H10C10.5523 20 11 20.4477 11 21C11 21.5523 10.5523 22 10 22H8.46922C5.98096 22 3.87136 20.1704 3.51947 17.7071L2.49927 10.5657C2.15868 8.1816 3.98535 6.0459 6.38161 6.00076L8.10557 2.55284C8.35256 2.05886 8.95323 1.85864 9.44721 2.10563C9.94119 2.35262 10.1414 2.95329 9.89442 3.44727L8.61804 6.00003H15.382L14.1056 3.44725C13.8586 2.95327 14.0588 2.3526 14.5528 2.10561ZM14 18C14 16.8955 14.8954 16 16 16C17.1046 16 18 16.8955 18 18C18 19.1046 17.1046 20 16 20C14.8954 20 14 19.1046 14 18ZM16 14C13.7909 14 12 15.7909 12 18C12 20.2092 13.7909 22 16 22C18.2091 22 20 20.2092 20 18C20 15.7909 18.2091 14 16 14Z" fill="#C6C6C6"/>
</svg>
