<svg width="24" height="24" viewBox="0 0 24 24" fill="none" xmlns="http://www.w3.org/2000/svg">
<path fill-rule="evenodd" clip-rule="evenodd" d="M14.5528 2.10561C15.0468 1.85862 15.6474 2.05884 15.8944 2.55282L17.6184 6.00075C20.0147 6.04588 21.8414 8.18159 21.5008 10.5657L20.4806 17.7071C20.1287 20.1704 18.0191 22 15.5308 22H8.46919C5.98093 22 3.87133 20.1704 3.51944 17.7071L2.49924 10.5657C2.15865 8.18159 3.98534 6.04589 6.38161 6.00076L8.10557 2.55284C8.35256 2.05886 8.95323 1.85864 9.44721 2.10563C9.94119 2.35262 10.1414 2.95329 9.89442 3.44727L8.61804 6.00003H15.382L14.1056 3.44725C13.8586 2.95327 14.0588 2.3526 14.5528 2.10561ZM4.47914 10.2829C4.30701 9.078 5.24193 8.00003 6.45903 8.00003H17.541C18.7581 8.00003 19.693 9.078 19.5209 10.2829L18.5007 17.4243C18.2895 18.9022 17.0238 20 15.5308 20H8.46919C6.97624 20 5.71047 18.9022 5.49934 17.4243L4.47914 10.2829ZM10.2071 11.2929C9.81658 10.9024 9.18342 10.9024 8.79289 11.2929C8.40237 11.6834 8.40237 12.3166 8.79289 12.7071L10.5858 14.5L8.79289 16.2929C8.40237 16.6834 8.40237 17.3166 8.79289 17.7071C9.18342 18.0977 9.81658 18.0977 10.2071 17.7071L12 15.9142L13.7929 17.7071C14.1834 18.0977 14.8166 18.0977 15.2071 17.7071C15.5976 17.3166 15.5976 16.6834 15.2071 16.2929L13.4142 14.5L15.2071 12.7071C15.5976 12.3166 15.5976 11.6834 15.2071 11.2929C14.8166 10.9024 14.1834 10.9024 13.7929 11.2929L12 13.0858L10.2071 11.2929Z" fill="#C6C6C6"/>
</svg>
