<svg width="24" height="24" viewBox="0 0 24 24" fill="none" xmlns="http://www.w3.org/2000/svg">
<path fill-rule="evenodd" clip-rule="evenodd" d="M9 3C9 2.44772 8.55228 2 8 2C7.44772 2 7 2.44772 7 3C4.23858 3 2 5.23858 2 8V17C2 19.7614 4.23858 22 7 22H17C19.7614 22 22 19.7614 22 17V8C22 5.23858 19.7614 3 17 3C17 2.44772 16.5523 2 16 2C15.4477 2 15 2.44772 15 3H9ZM15 6V5H9V6C9 6.55228 8.55228 7 8 7C7.44772 7 7 6.55228 7 6V5C5.34315 5 4 6.34315 4 8V17C4 18.6569 5.34315 20 7 20H17C18.6569 20 20 18.6569 20 17V8C20 6.34315 18.6569 5 17 5V6C17 6.55228 16.5523 7 16 7C15.4477 7 15 6.55228 15 6ZM9 12C8.44772 12 8 12.4477 8 13C8 13.5523 8.44772 14 9 14H15C15.5523 14 16 13.5523 16 13C16 12.4477 15.5523 12 15 12H9Z" fill="#C6C6C6"/>
</svg>
