<svg width="24" height="24" viewBox="0 0 24 24" fill="none" xmlns="http://www.w3.org/2000/svg">
<path d="M16.7998 0C17.4625 0 18 0.537454 18 1.2002L18.3086 1.20801C21.4789 1.36863 24 3.98999 24 7.2002V12C24 12.6627 23.4625 13.2002 22.7998 13.2002C22.1372 13.2001 21.5996 12.6627 21.5996 12V7.2002C21.5996 5.2742 20.0875 3.70105 18.1855 3.60449L18 3.59961V4.7998C18 5.46255 17.4625 6 16.7998 6C16.1372 5.99989 15.5996 5.46248 15.5996 4.7998V3.59961H8.40039V4.7998C8.40039 5.46248 7.86285 5.99989 7.2002 6C6.53745 6 6 5.46255 6 4.7998V3.59961C4.01178 3.59961 2.40039 5.21197 2.40039 7.2002V18C2.40039 19.9882 4.01178 21.5996 6 21.5996H12C12.6627 21.5996 13.2001 22.1372 13.2002 22.7998C13.2002 23.4625 12.6627 24 12 24H6C2.68629 24 5.15405e-07 21.3137 0 18V7.2002C0 3.98999 2.52111 1.36863 5.69141 1.20801L6 1.2002C6 0.537454 6.53745 0 7.2002 0C7.86285 0.000105517 8.40039 0.537519 8.40039 1.2002H15.5996C15.5996 0.537519 16.1372 0.000105774 16.7998 0ZM19.2002 14.4004C21.8511 14.4005 24 16.5493 24 19.2002C23.9999 21.851 21.851 23.9999 19.2002 24C16.5493 24 14.4005 21.8511 14.4004 19.2002C14.4004 16.5492 16.5492 14.4004 19.2002 14.4004ZM19.2002 16.7998C17.8747 16.7998 16.7998 17.8747 16.7998 19.2002C16.7999 20.5256 17.8748 21.5996 19.2002 21.5996C20.5255 21.5995 21.5995 20.5255 21.5996 19.2002C21.5996 17.8748 20.5256 16.7999 19.2002 16.7998ZM18 8.40039C18.6626 8.40039 19.2 8.93705 19.2002 9.59961C19.2002 10.2624 18.6627 10.7998 18 10.7998H6C5.33726 10.7998 4.7998 10.2624 4.7998 9.59961C4.80002 8.93705 5.33739 8.40039 6 8.40039H18Z" fill="#C6C6C6"/>
</svg>
