<svg width="24" height="24" viewBox="0 0 24 24" fill="none" xmlns="http://www.w3.org/2000/svg">
<path fill-rule="evenodd" clip-rule="evenodd" d="M7.2 0C7.86274 0 8.4 0.537258 8.4 1.2H15.6C15.6 0.537258 16.1373 0 16.8 0C17.4627 0 18 0.537258 18 1.2C21.3137 1.2 24 3.88629 24 7.2V18C24 21.3137 21.3137 24 18 24H6C2.68629 24 0 21.3137 0 18V7.2C0 3.88629 2.68629 1.2 6 1.2C6 0.537258 6.53726 0 7.2 0ZM15.6 3.6V4.8C15.6 5.46274 16.1373 6 16.8 6C17.4627 6 18 5.46274 18 4.8V3.6C19.9882 3.6 21.6 5.21177 21.6 7.2V18C21.6 19.9882 19.9882 21.6 18 21.6H6C4.01178 21.6 2.4 19.9882 2.4 18V7.2C2.4 5.21177 4.01178 3.6 6 3.6V4.8C6 5.46274 6.53726 6 7.2 6C7.86274 6 8.4 5.46274 8.4 4.8V3.6H15.6ZM6 8.4C5.33726 8.4 4.8 8.93726 4.8 9.6C4.8 10.2627 5.33726 10.8 6 10.8H18C18.6627 10.8 19.2 10.2627 19.2 9.6C19.2 8.93726 18.6627 8.4 18 8.4H6ZM15.6 18C15.6 17.3373 16.1373 16.8 16.8 16.8H18C18.6627 16.8 19.2 17.3373 19.2 18C19.2 18.6627 18.6627 19.2 18 19.2H16.8C16.1373 19.2 15.6 18.6627 15.6 18Z" fill="#C6C6C6"/>
</svg>
