<svg width="24" height="24" viewBox="0 0 24 24" fill="none" xmlns="http://www.w3.org/2000/svg">
<path fill-rule="evenodd" clip-rule="evenodd" d="M8.4 1.2C8.4 0.537258 7.86274 0 7.2 0C6.53726 0 6 0.537258 6 1.2C2.68629 1.2 0 3.88629 0 7.2V18C0 21.3137 2.68629 24 6 24H18C21.3137 24 24 21.3137 24 18V7.2C24 3.88629 21.3137 1.2 18 1.2C18 0.537258 17.4627 0 16.8 0C16.1373 0 15.6 0.537258 15.6 1.2H8.4ZM15.6 4.8V3.6H8.4V4.8C8.4 5.46274 7.86274 6 7.2 6C6.53726 6 6 5.46274 6 4.8L6 3.6C4.01178 3.6 2.4 5.21177 2.4 7.2V18C2.4 19.9882 4.01178 21.6 6 21.6H18C19.9882 21.6 21.6 19.9882 21.6 18V7.2C21.6 5.21177 19.9882 3.6 18 3.6V4.8C18 5.46274 17.4627 6 16.8 6C16.1373 6 15.6 5.46274 15.6 4.8ZM13.2 9.6C13.2 8.93726 12.6627 8.4 12 8.4C11.3373 8.4 10.8 8.93726 10.8 9.6V12H8.4C7.73726 12 7.2 12.5373 7.2 13.2C7.2 13.8627 7.73726 14.4 8.4 14.4H10.8L10.8 16.8C10.8 17.4627 11.3373 18 12 18C12.6627 18 13.2 17.4627 13.2 16.8V14.4H15.6C16.2627 14.4 16.8 13.8627 16.8 13.2C16.8 12.5373 16.2627 12 15.6 12H13.2V9.6Z" fill="#C6C6C6"/>
</svg>
