<svg width="24" height="24" viewBox="0 0 24 24" fill="none" xmlns="http://www.w3.org/2000/svg">
<path d="M16.7998 0C17.4625 0 18 0.537454 18 1.2002L18.3086 1.20801C21.4789 1.36863 24 3.98999 24 7.2002V18C24 21.3137 21.3137 24 18 24H6C2.68629 24 0 21.3137 0 18V7.2002C0 3.88649 2.68629 1.2002 6 1.2002C6 0.537454 6.53745 0 7.2002 0C7.86285 0.000105388 8.40039 0.537519 8.40039 1.2002H15.5996C15.5996 0.537519 16.1372 0.000105774 16.7998 0ZM8.40039 4.7998C8.40039 5.46248 7.86285 5.99989 7.2002 6C6.53745 6 6 5.46255 6 4.7998V3.59961C4.01178 3.59961 2.40039 5.21197 2.40039 7.2002V18C2.40039 19.9882 4.01178 21.5996 6 21.5996H18C19.9882 21.5996 21.5996 19.9882 21.5996 18V7.2002C21.5996 5.21197 19.9882 3.59961 18 3.59961V4.7998C18 5.46255 17.4625 6 16.7998 6C16.1372 5.99989 15.5996 5.46248 15.5996 4.7998V3.59961H8.40039V4.7998ZM13.793 9.99316C14.1835 9.60264 14.8165 9.60264 15.207 9.99316C15.5974 10.3837 15.5975 11.0167 15.207 11.4072L13.4141 13.2002L15.207 14.9932C15.5974 15.3837 15.5975 16.0167 15.207 16.4072C14.8165 16.7976 14.1835 16.7976 13.793 16.4072L12 14.6143L10.207 16.4072C9.81654 16.7976 9.18347 16.7976 8.79297 16.4072C8.40248 16.0167 8.40254 15.3837 8.79297 14.9932L10.5859 13.2002L8.79297 11.4072C8.40248 11.0167 8.40254 10.3837 8.79297 9.99316C9.18349 9.60264 9.81651 9.60264 10.207 9.99316L12 11.7861L13.793 9.99316Z" fill="#C6C6C6"/>
</svg>
