<svg width="24" height="24" viewBox="0 0 24 24" fill="none" xmlns="http://www.w3.org/2000/svg">
<path d="M18 0C21.3137 0 24 2.68629 24 6V18C24 21.3137 21.3137 24 18 24H6C2.68629 24 0 21.3137 0 18V6C1.28855e-07 2.68629 2.68629 1.28851e-07 6 0H18ZM6 2.40039C4.01178 2.40039 2.40039 4.01178 2.40039 6V18C2.40039 19.9882 4.01178 21.5996 6 21.5996H18C19.9882 21.5996 21.5996 19.9882 21.5996 18V6C21.5996 4.01178 19.9882 2.40039 18 2.40039H6ZM15.8779 7.4502C16.3022 6.91985 17.0592 6.84809 17.5684 7.29004C18.0772 7.73198 18.1457 8.51954 17.7217 9.0498L11.7217 16.5498C11.5122 16.8117 11.2093 16.9735 10.8828 16.9971C10.5565 17.0206 10.2353 16.904 9.99316 16.6748L6.39258 13.2656C5.90241 12.8012 5.86676 12.0107 6.3125 11.5C6.75828 10.9895 7.51652 10.9519 8.00684 11.416L10.6797 13.9473L15.8779 7.4502Z" fill="#C6C6C6"/>
</svg>
