<svg width="24" height="24" viewBox="0 0 24 24" fill="none" xmlns="http://www.w3.org/2000/svg">
<path d="M18 0C21.3137 0 24 2.68629 24 6V18C24 21.3137 21.3137 24 18 24H6C2.68629 24 0 21.3137 0 18V6C1.28855e-07 2.68629 2.68629 1.28851e-07 6 0H18ZM6 2.40039C4.01178 2.40039 2.40039 4.01178 2.40039 6V18C2.40039 19.9882 4.01178 21.5996 6 21.5996H18C19.9882 21.5996 21.5996 19.9882 21.5996 18V6C21.5996 4.01178 19.9882 2.40039 18 2.40039H6ZM12 6C12.6627 6 13.2002 6.53745 13.2002 7.2002V11.5029L15.248 13.5518C15.7167 14.0204 15.7167 14.7794 15.248 15.248C14.7794 15.7167 14.0204 15.7167 13.5518 15.248L11.1514 12.8486C11.1134 12.8107 11.0797 12.77 11.0479 12.7285C11.0082 12.6768 10.9723 12.6223 10.9414 12.5645C10.9142 12.5135 10.8914 12.4609 10.8721 12.4072C10.8392 12.3163 10.8156 12.2207 10.8057 12.1211C10.8016 12.0809 10.7998 12.0404 10.7998 12V7.2002C10.7998 6.53745 11.3373 6 12 6Z" fill="#C6C6C6"/>
</svg>
