<svg width="24" height="24" viewBox="0 0 24 24" fill="none" xmlns="http://www.w3.org/2000/svg">
<path fill-rule="evenodd" clip-rule="evenodd" d="M3.51472 3.51472C5.68498 1.34446 8.68662 0 12 0C15.3134 0 18.315 1.34446 20.4853 3.51472C22.6555 5.68498 24 8.68662 24 12C24 15.3134 22.6555 18.315 20.4853 20.4853C18.315 22.6555 15.3134 24 12 24C8.68662 24 5.68498 22.6555 3.51472 20.4853C1.34446 18.315 0 15.3134 0 12C0 8.68662 1.34446 5.68498 3.51472 3.51472ZM12 2.4C9.3487 2.4 6.95035 3.4732 5.21177 5.21177C3.4732 6.95035 2.4 9.3487 2.4 12C2.4 14.6513 3.4732 17.0497 5.21177 18.7882C6.95035 20.5268 9.3487 21.6 12 21.6C14.6513 21.6 17.0497 20.5268 18.7882 18.7882C20.5268 17.0497 21.6 14.6513 21.6 12C21.6 9.3487 20.5268 6.95035 18.7882 5.21177C17.0497 3.4732 14.6513 2.4 12 2.4ZM12 6C12.5523 6 13 6.52233 13 7.16667V11.2498C13.0467 11.2849 13.0914 11.3237 13.1339 11.3661L15.6339 13.8661C16.122 14.3543 16.122 15.1457 15.6339 15.6339C15.1457 16.122 14.3543 16.122 13.8661 15.6339L11.3661 13.1339C11.07 12.8378 10.9535 12.4302 11.0166 12.0463C11.0057 11.9772 11 11.9061 11 11.8333V7.16667C11 6.52233 11.4477 6 12 6Z" fill="#C6C6C6"/>
</svg>
