<svg width="24" height="24" viewBox="0 0 24 24" fill="none" xmlns="http://www.w3.org/2000/svg">
<path fill-rule="evenodd" clip-rule="evenodd" d="M21.0735 0.502103C21.743 -0.167368 22.8284 -0.167368 23.4979 0.502103C24.1674 1.17157 24.1674 2.257 23.4979 2.92647L14.4244 12L23.4979 21.0735C24.1674 21.743 24.1674 22.8284 23.4979 23.4979C22.8284 24.1674 21.743 24.1674 21.0735 23.4979L12 14.4244L2.92647 23.4979C2.257 24.1674 1.17157 24.1674 0.502102 23.4979C-0.167367 22.8284 -0.167367 21.743 0.502102 21.0735L9.57563 12L0.502104 2.92647C-0.167366 2.257 -0.167366 1.17157 0.502104 0.502103C1.17157 -0.167368 2.257 -0.167368 2.92647 0.502103L12 9.57563L21.0735 0.502103Z" fill="#C6C6C6"/>
</svg>
