<svg width="24" height="24" viewBox="0 0 24 24" fill="none" xmlns="http://www.w3.org/2000/svg">
<path fill-rule="evenodd" clip-rule="evenodd" d="M6 0C2.68629 0 0 2.68629 0 6V18C0 21.3137 2.68629 24 6 24H18C21.3137 24 24 21.3137 24 18V6C24 2.68629 21.3137 0 18 0H6ZM2.4 6C2.4 4.01178 4.01178 2.4 6 2.4H18C19.9882 2.4 21.6 4.01178 21.6 6V18C21.6 19.9882 19.9882 21.6 18 21.6H6C4.01178 21.6 2.4 19.9882 2.4 18V6ZM9.24854 7.55145C8.77991 7.08282 8.02011 7.08282 7.55148 7.55145C7.08285 8.02007 7.08285 8.77987 7.55148 9.2485L10.303 12L7.55148 14.7514C7.08285 15.2201 7.08285 15.9799 7.55148 16.4485C8.02011 16.9171 8.77991 16.9171 9.24854 16.4485L12 13.697L14.7515 16.4485C15.2201 16.9171 15.9799 16.9171 16.4485 16.4485C16.9172 15.9799 16.9172 15.2201 16.4485 14.7514L13.6971 12L16.4485 9.2485C16.9172 8.77987 16.9172 8.02007 16.4485 7.55145C15.9799 7.08282 15.2201 7.08282 14.7515 7.55145L12 10.3029L9.24854 7.55145Z" fill="#C6C6C6"/>
</svg>
