<svg width="24" height="24" viewBox="0 0 24 24" fill="none" xmlns="http://www.w3.org/2000/svg">
<path d="M13.4059 0C14.3606 0 15.2766 0.379556 15.9518 1.05469L20.5455 5.64844C21.2206 6.32357 21.6002 7.23956 21.6002 8.19434V19.2002C21.6001 21.8509 19.4511 23.9998 16.8004 24H7.1998C4.54899 23.9999 2.4001 21.851 2.39999 19.2002V4.7998C2.4001 2.14899 4.54899 0.000105652 7.1998 0H13.4059ZM7.1998 2.40039C5.87447 2.4005 4.80049 3.47448 4.80038 4.7998V19.2002C4.80049 20.5255 5.87447 21.5995 7.1998 21.5996H16.8004C18.1256 21.5994 19.1997 20.5255 19.1998 19.2002V9.59961H17.9996C14.6861 9.5994 11.9996 6.91319 11.9996 3.59961V2.40039H7.1998ZM15.232 11.3594C15.5856 10.9355 16.2161 10.8781 16.6402 11.2314C17.0645 11.585 17.1217 12.2163 16.7682 12.6406L11.7682 18.6406C11.5936 18.8499 11.3409 18.9792 11.0689 18.998C10.7971 19.0168 10.5294 18.9234 10.3277 18.7402L7.32773 16.0127C6.91907 15.6412 6.88884 15.0083 7.26035 14.5996C7.6319 14.1913 8.26393 14.1618 8.67245 14.5332L10.9 16.5576L15.232 11.3594ZM14.4 3.59961C14.4 5.5877 16.0116 7.19998 17.9996 7.2002H18.7027L14.4 2.89746V3.59961Z" fill="#C6C6C6"/>
</svg>
