<svg width="24" height="24" viewBox="0 0 24 24" fill="none" xmlns="http://www.w3.org/2000/svg">
<path d="M13.4062 0C14.3609 9.59442e-05 15.2761 0.379651 15.9512 1.05469L20.5459 5.64844C21.221 6.32356 21.5996 7.23961 21.5996 8.19434V19.2002C21.5995 21.8511 19.4507 24 16.7998 24H7.2002C4.54929 24 2.4005 21.8511 2.40039 19.2002V4.7998C2.4005 2.14893 4.54929 0 7.2002 0H13.4062ZM7.2002 2.40039C5.87478 2.40039 4.79991 3.47441 4.7998 4.7998V19.2002C4.79991 20.5256 5.87478 21.5996 7.2002 21.5996H16.7998C18.1252 21.5996 19.2001 20.5256 19.2002 19.2002V9.59961H18C14.6863 9.59961 12 6.91332 12 3.59961V2.40039H7.2002ZM11.1514 9.95117C11.62 9.48267 12.38 9.48267 12.8486 9.95117L16.4482 13.5518C16.9168 14.0204 16.9168 14.7794 16.4482 15.248C15.9796 15.7167 15.2206 15.7167 14.752 15.248L13.2002 13.6973V18C13.2002 18.6627 12.6627 19.2002 12 19.2002C11.3373 19.2002 10.7998 18.6627 10.7998 18V13.6973L9.24805 15.248C8.77942 15.7167 8.02039 15.7167 7.55176 15.248C7.08323 14.7794 7.08316 14.0204 7.55176 13.5518L11.1514 9.95117ZM14.4004 3.59961C14.4004 5.58783 16.0118 7.2002 18 7.2002H18.7031L14.4004 2.89746V3.59961Z" fill="#C6C6C6"/>
</svg>
