<svg width="24" height="24" viewBox="0 0 24 24" fill="none" xmlns="http://www.w3.org/2000/svg">
<path d="M13.4062 0C14.3609 9.59442e-05 15.2761 0.379651 15.9512 1.05469L20.5459 5.64844C21.221 6.32356 21.5996 7.23961 21.5996 8.19434V19.2002C21.5995 21.8511 19.4507 24 16.7998 24H7.2002C4.54929 24 2.4005 21.8511 2.40039 19.2002V4.7998C2.4005 2.14893 4.54929 0 7.2002 0H13.4062ZM7.2002 2.40039C5.87478 2.40039 4.79991 3.47441 4.7998 4.7998V19.2002C4.79991 20.5256 5.87478 21.5996 7.2002 21.5996H16.7998C18.1252 21.5996 19.2001 20.5256 19.2002 19.2002V9.59961H18C14.6863 9.59961 12 6.91332 12 3.59961V2.40039H7.2002ZM15.5996 13.2002C16.2624 13.2002 16.7998 13.7376 16.7998 14.4004C16.7996 15.063 16.2622 15.5996 15.5996 15.5996H8.40039C7.73778 15.5996 7.20041 15.063 7.2002 14.4004C7.2002 13.7376 7.73765 13.2002 8.40039 13.2002H15.5996ZM14.4004 3.59961C14.4004 5.58783 16.0118 7.2002 18 7.2002H18.7031L14.4004 2.89746V3.59961Z" fill="#C6C6C6"/>
</svg>
