<svg width="24" height="24" viewBox="0 0 24 24" fill="none" xmlns="http://www.w3.org/2000/svg">
<path fill-rule="evenodd" clip-rule="evenodd" d="M4 6C4 4.89543 4.89543 4 6 4H8.92157C9.18679 4 9.44114 4.10536 9.62868 4.29289L10.7071 5.37132C11.2697 5.93393 12.0328 6.25 12.8284 6.25H18C19.1046 6.25 20 7.14543 20 8.25V18C20 19.1046 19.1046 20 18 20H6C4.89543 20 4 19.1046 4 18V6ZM6 2C3.79086 2 2 3.79086 2 6V18C2 20.2091 3.79086 22 6 22H18C20.2091 22 22 20.2091 22 18V8.25C22 6.04086 20.2091 4.25 18 4.25H12.8284C12.5632 4.25 12.3089 4.14464 12.1213 3.95711L11.0429 2.87868C10.4803 2.31607 9.71722 2 8.92157 2H6ZM13 10C13 9.44772 12.5523 9 12 9C11.4477 9 11 9.44772 11 10V12H9C8.44772 12 8 12.4477 8 13C8 13.5523 8.44772 14 9 14H11V16C11 16.5523 11.4477 17 12 17C12.5523 17 13 16.5523 13 16V14H15C15.5523 14 16 13.5523 16 13C16 12.4477 15.5523 12 15 12H13V10Z" fill="#C6C6C6"/>
</svg>
