<svg width="24" height="24" viewBox="0 0 24 24" fill="none" xmlns="http://www.w3.org/2000/svg">
<path fill-rule="evenodd" clip-rule="evenodd" d="M4 6C4 4.89543 4.89543 4 6 4H8.75C9.06476 4 9.36115 4.14819 9.55 4.4L10.6 5.8C11.1666 6.55542 12.0557 7 13 7H18C19.1046 7 20 7.89543 20 9V18C20 19.1046 19.1046 20 18 20H6C4.89543 20 4 19.1046 4 18V6ZM6 2C3.79086 2 2 3.79086 2 6V18C2 20.2091 3.79086 22 6 22H18C20.2091 22 22 20.2091 22 18V9C22 6.79086 20.2091 5 18 5H13C12.6852 5 12.3889 4.85181 12.2 4.6L11.15 3.2C10.5834 2.44458 9.69427 2 8.75 2H6ZM10.2071 11.2929C9.81658 10.9024 9.18342 10.9024 8.79289 11.2929C8.40237 11.6834 8.40237 12.3166 8.79289 12.7071L10.5858 14.5L8.79289 16.2929C8.40237 16.6834 8.40237 17.3166 8.79289 17.7071C9.18342 18.0976 9.81658 18.0976 10.2071 17.7071L12 15.9142L13.7929 17.7071C14.1834 18.0976 14.8166 18.0976 15.2071 17.7071C15.5976 17.3166 15.5976 16.6834 15.2071 16.2929L13.4142 14.5L15.2071 12.7071C15.5976 12.3166 15.5976 11.6834 15.2071 11.2929C14.8166 10.9024 14.1834 10.9024 13.7929 11.2929L12 13.0858L10.2071 11.2929Z" fill="#C6C6C6"/>
</svg>
