<svg width="24" height="24" viewBox="0 0 24 24" fill="none" xmlns="http://www.w3.org/2000/svg">
<path d="M14.2394 21.0001C13.984 21.0001 13.7385 20.8821 13.586 20.6752C13.3958 20.4172 13.3868 20.0736 13.5638 19.8075C14.7327 18.0474 13.8428 17.1273 12.9822 16.2373L12.9643 16.2186C12.6059 15.8485 11.9138 15.1344 11.6235 14.1086C10.7109 15.0127 10.0406 16.415 10.0406 17.1738C10.0406 18.0889 10.3739 18.9152 11.0598 19.7004C11.2869 19.9606 11.3119 20.3334 11.1207 20.6191C10.93 20.9053 10.5679 21.0375 10.2289 20.9454C8.80792 20.5599 7.50919 19.6972 6.57161 18.5173C5.54338 17.2226 5 15.6262 5 13.9003C5 11.6339 5.85213 9.40451 7.46434 7.45307C8.97127 5.62924 11.0796 4.11166 13.5615 3.06484C13.8509 2.94271 14.187 2.99603 14.4211 3.20019C14.6553 3.40436 14.7436 3.72246 14.6468 4.01231C13.8683 6.34565 15.0698 7.81857 16.4601 9.52391C17.6508 10.9836 19 12.6384 19 14.9558C19 18.376 16.7042 20.445 14.4287 20.9778C14.3659 20.9924 14.3022 20.9997 14.2394 20.9997V21.0001ZM12.3312 11.906C12.5073 11.906 12.6815 11.9621 12.825 12.0701C13.0549 12.2433 13.1691 12.5226 13.1243 12.8006C12.9416 13.9263 13.7196 14.7288 14.1374 15.1604L14.1558 15.1795C14.6232 15.6626 15.2624 16.3239 15.5631 17.2217C15.7204 17.6915 15.768 18.1751 15.7062 18.6695C15.946 18.4804 16.166 18.2648 16.3619 18.0269C17.038 17.2048 17.3949 16.143 17.3949 14.9562C17.3949 13.1757 16.3279 11.8673 15.1987 10.4828C14.0052 9.01942 12.6819 7.39656 12.8004 5.15482C11.1665 6.03165 9.77336 7.14318 8.71917 8.41922C7.3364 10.0931 6.60513 11.9885 6.60513 13.9003C6.60513 15.2825 7.03426 16.5531 7.84579 17.5744C8.0639 17.8492 8.30703 18.1017 8.56952 18.3286C8.48076 17.9531 8.43591 17.568 8.43591 17.1738C8.43591 16.3562 8.82445 15.2689 9.47594 14.2658C9.89091 13.6259 10.7737 12.4771 12.0182 11.9675C12.1187 11.9265 12.2254 11.906 12.3312 11.906Z" fill="#C6C6C6"/>
</svg>
