<svg width="24" height="24" viewBox="0 0 24 24" fill="none" xmlns="http://www.w3.org/2000/svg">
<path fill-rule="evenodd" clip-rule="evenodd" d="M12 2.4C11.7277 2.4 11.378 2.51916 10.9589 2.91799C10.5336 3.32271 10.096 3.96506 9.70246 4.85061C9.42401 5.47712 9.17936 6.19888 8.97951 6.99674C9.9521 7.12792 10.9908 7.19997 12.0769 7.19997C13.1073 7.19997 14.0955 7.13509 15.0254 7.01627C14.8246 6.21066 14.5783 5.48223 14.2975 4.85061C13.904 3.96506 13.4664 3.32271 13.0411 2.91799C12.622 2.51916 12.2723 2.4 12 2.4ZM15.4502 9.38095C14.3694 9.52461 13.2371 9.59997 12.0769 9.59997C10.863 9.59997 9.67901 9.51744 8.55227 9.36031C8.4535 10.1967 8.4 11.0814 8.4 12C8.4 12.9223 8.45394 13.8104 8.55346 14.6498C9.71429 14.4861 10.9363 14.4 12.19 14.4C13.3108 14.4 14.4052 14.4688 15.4524 14.5999C15.5482 13.7753 15.6 12.9041 15.6 12C15.6 11.0889 15.5474 10.2112 15.4502 9.38095ZM6.62183 6.53338C6.85799 5.56372 7.15661 4.66946 7.50931 3.87588C7.58163 3.71317 7.65676 3.55347 7.73474 3.39719C6.53431 3.99351 5.47642 4.83368 4.62586 5.85291C5.22129 6.11013 5.89068 6.33975 6.62183 6.53338ZM3.3187 7.89654C4.17662 8.29705 5.14356 8.63464 6.19057 8.90095C6.06574 9.8927 6 10.9324 6 12C6 13.0718 6.06625 14.1155 6.19204 15.1107C5.14567 15.3766 4.1794 15.7124 3.32168 16.1098C2.73066 14.8639 2.4 13.4706 2.4 12C2.4 10.5319 2.72955 9.14077 3.3187 7.89654ZM17.8141 8.93828C18.8674 8.67902 19.8418 8.34833 20.7086 7.95476C21.2806 9.1841 21.6 10.5548 21.6 12C21.6 13.4154 21.2937 14.7593 20.7437 15.9689C19.8646 15.5884 18.8805 15.2694 17.8192 15.0206C17.9377 14.0526 18 13.0395 18 12C18 10.9458 17.9359 9.91878 17.8141 8.93828ZM19.4143 5.90131C18.8078 6.15576 18.128 6.38176 17.3873 6.57101C17.1497 5.58684 16.8479 4.67972 16.4907 3.87588C16.4184 3.71317 16.3432 3.55347 16.2653 3.39719C17.4846 4.00292 18.5569 4.86027 19.4143 5.90131ZM6.62458 17.4779C5.89496 17.6707 5.22653 17.8986 4.63122 18.1535C5.48086 19.1698 6.53683 20.0077 7.73474 20.6028C7.65676 20.4465 7.58163 20.2868 7.50931 20.1241C7.15798 19.3336 6.86031 18.4432 6.62458 17.4779ZM12.19 16.8C11.0637 16.8 9.98754 16.8756 8.98196 17.013C9.18136 17.807 9.42515 18.5254 9.70246 19.1494C10.096 20.0349 10.5336 20.6773 10.9589 21.082C11.378 21.4808 11.7277 21.6 12 21.6C12.2723 21.6 12.622 21.4808 13.0411 21.082C13.4664 20.6773 13.904 20.0349 14.2975 19.1494C14.5803 18.5131 14.8283 17.7786 15.0298 16.9659C14.1303 16.8584 13.179 16.8 12.19 16.8ZM16.4907 20.1241C16.853 19.3089 17.1582 18.3875 17.3973 17.3873C18.1499 17.5694 18.8433 17.7884 19.4652 18.0363C18.5996 19.1055 17.5089 19.985 16.2653 20.6028C16.3432 20.4465 16.4184 20.2868 16.4907 20.1241ZM12 24C18.6274 24 24 18.6274 24 12C24 5.37258 18.6274 0 12 0C5.37258 0 0 5.37258 0 12C0 18.6274 5.37258 24 12 24Z" fill="#C6C6C6"/>
</svg>
