<svg width="24" height="24" viewBox="0 0 24 24" fill="none" xmlns="http://www.w3.org/2000/svg">
<path d="M22.7998 19.2002C23.4623 19.2002 23.9997 19.7369 24 20.3994C24 21.0622 23.4625 21.5996 22.7998 21.5996H1.2002C0.537454 21.5996 7.15256e-08 21.0622 0 20.3994C0.00032321 19.7369 0.537653 19.2002 1.2002 19.2002H22.7998ZM22.7998 10.7998C23.4625 10.7998 23.9999 11.3373 24 12C23.9999 12.6627 23.4625 13.2002 22.7998 13.2002H1.2002C0.537519 13.2002 0.000105588 12.6627 0 12C0.000105684 11.3373 0.537519 10.7998 1.2002 10.7998H22.7998ZM22.7998 2.40039C23.4625 2.40039 24 2.93784 24 3.60059C23.9997 4.26306 23.4624 4.80078 22.7998 4.80078H1.2002C0.537649 4.80078 0.000316671 4.26306 0 3.60059C0 2.93785 0.537453 2.40039 1.2002 2.40039H22.7998Z" fill="#C6C6C6"/>
</svg>
