<svg width="24" height="24" viewBox="0 0 24 24" fill="none" xmlns="http://www.w3.org/2000/svg">
<path fill-rule="evenodd" clip-rule="evenodd" d="M10.0964 4.85667C11.2029 3.94825 12.7971 3.94825 13.9036 4.85667L19.2691 9.26165C19.7318 9.64155 20 10.2087 20 10.8074V18C20 19.1046 19.1046 20 18 20H16V17C16 14.7909 14.2091 13 12 13C9.79086 13 8 14.7909 8 17V20H6C4.89543 20 4 19.1046 4 18V10.8074C4 10.2087 4.2682 9.64155 4.73093 9.26165L10.0964 4.85667ZM10 20H14V17C14 15.8954 13.1046 15 12 15C10.8954 15 10 15.8954 10 17V20ZM15.1727 3.31089C13.3285 1.79684 10.6715 1.79684 8.82732 3.31089L3.46186 7.71587C2.53641 8.47565 2 9.61006 2 10.8074V18C2 20.2091 3.79086 22 6 22H18C20.2091 22 22 20.2091 22 18V10.8074C22 9.61006 21.4636 8.47565 20.5381 7.71587L15.1727 3.31089Z" fill="#C6C6C6"/>
</svg>
