<svg width="24" height="24" viewBox="0 0 24 24" fill="none" xmlns="http://www.w3.org/2000/svg">
<path fill-rule="evenodd" clip-rule="evenodd" d="M12 2C10.0222 2 8.08879 2.58649 6.44429 3.6853C4.7998 4.78412 3.51808 6.3459 2.7612 8.17317C2.00433 10.0004 1.80629 12.0111 2.19214 13.9509C2.578 15.8907 3.5304 17.6725 4.92893 19.0711C6.32745 20.4696 8.10928 21.422 10.0491 21.8079C11.9889 22.1937 13.9996 21.9957 15.8268 21.2388C17.6541 20.4819 19.2159 19.2002 20.3147 17.5557C21.4135 15.9112 22 13.9778 22 12C22 11.4477 21.5523 11 21 11C20.4477 11 20 11.4477 20 12C20 13.5823 19.5308 15.129 18.6518 16.4446C17.7727 17.7602 16.5233 18.7855 15.0615 19.391C13.5997 19.9965 11.9911 20.155 10.4393 19.8463C8.88743 19.5376 7.46196 18.7757 6.34314 17.6569C5.22432 16.538 4.4624 15.1126 4.15371 13.5607C3.84503 12.0089 4.00346 10.4003 4.60896 8.93853C5.21446 7.47672 6.23984 6.22729 7.55544 5.34824C8.87103 4.46919 10.4177 4 12 4C12.5523 4 13 3.55228 13 3C13 2.44772 12.5523 2 12 2ZM20.6603 6.99998C20.3841 6.52169 19.7725 6.35782 19.2942 6.63396C18.8159 6.9101 18.6521 7.52169 18.9282 7.99998C19.0138 8.14819 19.0946 8.2991 19.1704 8.45249C19.4153 8.94751 20.0152 9.15026 20.5102 8.90536C21.0052 8.66046 21.208 8.06063 20.9631 7.56562C20.8682 7.37388 20.7672 7.18524 20.6603 6.99998Z" fill="#C6C6C6"/>
</svg>
