<svg width="24" height="24" viewBox="0 0 24 24" fill="none" xmlns="http://www.w3.org/2000/svg">
<path fill-rule="evenodd" clip-rule="evenodd" d="M7.6 4.8C7.6 2.14903 9.74904 0 12.4 0C15.051 0 17.2 2.14903 17.2 4.8V8.7056C19.3762 10.2235 20.8 12.7455 20.8 15.6C20.8 20.2392 17.0392 24 12.4 24C7.76081 24 4 20.2392 4 15.6C4 12.7455 5.42382 10.2235 7.6 8.7056V4.8ZM14.8 4.8V7.54783C14.0395 7.32151 13.234 7.19997 12.4 7.19997C11.566 7.19997 10.7605 7.32151 10 7.54783V4.8C10 3.47452 11.0745 2.4 12.4 2.4C13.7255 2.4 14.8 3.47452 14.8 4.8ZM12.4 9.59997C9.08629 9.59997 6.4 12.2863 6.4 15.6C6.4 18.9137 9.08629 21.6 12.4 21.6C15.7137 21.6 18.4 18.9137 18.4 15.6C18.4 12.2863 15.7137 9.59997 12.4 9.59997ZM13.6 14.4C13.6 13.7372 13.0627 13.2 12.4 13.2C11.7373 13.2 11.2 13.7372 11.2 14.4V16.8C11.2 17.4627 11.7373 18 12.4 18C13.0627 18 13.6 17.4627 13.6 16.8V14.4Z" fill="#C6C6C6"/>
</svg>
