<svg width="24" height="24" viewBox="0 0 24 24" fill="none" xmlns="http://www.w3.org/2000/svg">
<path fill-rule="evenodd" clip-rule="evenodd" d="M4.8 2.40002C2.14903 2.40002 0 4.54906 0 7.20002V16.8C0 19.451 2.14903 21.6 4.8 21.6H19.2C21.851 21.6 24 19.451 24 16.8V7.20002C24 4.54906 21.851 2.40002 19.2 2.40002H4.8ZM2.4 7.20002C2.4 5.87454 3.47452 4.80002 4.8 4.80002H19.2C20.5255 4.80002 21.6 5.87454 21.6 7.20002V16.8C21.6 18.1255 20.5255 19.2 19.2 19.2H4.8C3.47452 19.2 2.4 18.1255 2.4 16.8V7.20002ZM6.74964 7.46295C6.23213 7.04894 5.47698 7.13285 5.06296 7.65036C4.64895 8.16788 4.73286 8.92303 5.25037 9.33704L12 14.7367L18.7496 9.33704C19.2672 8.92303 19.3511 8.16788 18.9371 7.65036C18.523 7.13285 17.7679 7.04894 17.2504 7.46295L12 11.6632L6.74964 7.46295Z" fill="#C6C6C6"/>
</svg>
