<svg width="24" height="24" viewBox="0 0 24 24" fill="none" xmlns="http://www.w3.org/2000/svg">
<path fill-rule="evenodd" clip-rule="evenodd" d="M15 3C14.4477 3 14 3.44772 14 4C14 4.55228 14.4477 5 15 5H17.5858L13.2929 9.2929C12.9024 9.68343 12.9024 10.3166 13.2929 10.7071C13.6834 11.0976 14.3166 11.0976 14.7071 10.7071L19 6.41423V9C19 9.55228 19.4477 10 20 10C20.5522 10 21 9.55228 21 9V4C21 3.44772 20.5522 3 20 3H15ZM10.7072 14.7071C11.0977 14.3166 11.0977 13.6834 10.7072 13.2929C10.3166 12.9024 9.68347 12.9024 9.29295 13.2929L5.00002 17.5858V14.8571C5.00002 14.3049 4.55231 13.8571 4.00002 13.8571C3.44774 13.8571 3.00002 14.3049 3.00002 14.8571V20C3.00002 20.5523 3.44774 21 4.00002 21H9.14293C9.69521 21 10.1429 20.5523 10.1429 20C10.1429 19.4478 9.69521 19 9.14293 19H6.41423L10.7072 14.7071Z" fill="#C6C6C6"/>
</svg>
