<svg width="24" height="24" viewBox="0 0 24 24" fill="none" xmlns="http://www.w3.org/2000/svg">
<path fill-rule="evenodd" clip-rule="evenodd" d="M2.4 12C2.4 6.69807 6.69807 2.4 12 2.4C17.3019 2.4 21.6 6.69807 21.6 12C21.6 17.3019 17.3019 21.6 12 21.6H3.17675L4.26256 19.2638C4.54407 18.6581 4.4584 17.9733 4.103 17.4604C3.0291 15.9106 2.4 14.0306 2.4 12ZM12 0C5.37258 0 0 5.37258 0 12C0 14.4164 0.715453 16.669 1.9461 18.5536L0.640867 21.3619C0.0118336 22.552 0.872837 24 2.23391 24H12C18.6274 24 24 18.6274 24 12C24 5.37258 18.6274 0 12 0ZM9.24853 7.55147C8.7799 7.08284 8.0201 7.08284 7.55147 7.55147C7.08284 8.0201 7.08284 8.7799 7.55147 9.24853L10.3029 12L7.55147 14.7515C7.08284 15.2201 7.08284 15.9799 7.55147 16.4485C8.0201 16.9172 8.7799 16.9172 9.24853 16.4485L12 13.6971L14.7515 16.4485C15.2201 16.9172 15.9799 16.9172 16.4485 16.4485C16.9172 15.9799 16.9172 15.2201 16.4485 14.7515L13.6971 12L16.4485 9.24853C16.9172 8.7799 16.9172 8.0201 16.4485 7.55147C15.9799 7.08284 15.2201 7.08284 14.7515 7.55147L12 10.3029L9.24853 7.55147Z" fill="#C6C6C6"/>
</svg>
