<svg width="24" height="24" viewBox="0 0 24 24" fill="none" xmlns="http://www.w3.org/2000/svg">
<path fill-rule="evenodd" clip-rule="evenodd" d="M12 2.4C6.69807 2.4 2.4 6.69807 2.4 12C2.4 14.0306 3.0291 15.9106 4.103 17.4604C4.4584 17.9733 4.54407 18.6581 4.26256 19.2638L3.17675 21.6H12C17.3019 21.6 21.6 17.3019 21.6 12C21.6 6.69807 17.3019 2.4 12 2.4ZM0 12C0 5.37258 5.37258 0 12 0C18.6274 0 24 5.37258 24 12C24 18.6274 18.6274 24 12 24H2.23391C0.872837 24 0.0118336 22.552 0.640867 21.3619L1.9461 18.5536C0.715453 16.669 0 14.4164 0 12ZM7 14.5C7 13.6716 7.55964 13 8.25 13H15.75C16.4404 13 17 13.6716 17 14.5C17 15.3284 16.4404 16 15.75 16H8.25C7.55964 16 7 15.3284 7 14.5ZM8.25 8C7.55964 8 7 8.67157 7 9.5C7 10.3284 7.55964 11 8.25 11H10.75C11.4404 11 12 10.3284 12 9.5C12 8.67157 11.4404 8 10.75 8H8.25Z" fill="#C6C6C6"/>
</svg>
