<svg width="24" height="24" viewBox="0 0 24 24" fill="none" xmlns="http://www.w3.org/2000/svg">
<path fill-rule="evenodd" clip-rule="evenodd" d="M4 12C4 7.58172 7.58172 4 12 4C16.4183 4 20 7.58172 20 12C20 16.4183 16.4183 20 12 20H4.64729L5.55213 18.0532C5.78673 17.5484 5.71533 16.9778 5.41916 16.5503C4.52425 15.2588 4 13.6921 4 12ZM12 2C6.47715 2 2 6.47715 2 12C2 14.0137 2.59621 15.8909 3.62175 17.4613L2.53406 19.8016C2.00986 20.7933 2.72736 22 3.86159 22H12C17.5228 22 22 17.5228 22 12C22 6.47715 17.5228 2 12 2ZM9.29995 12C9.29995 12.718 8.71792 13.3 7.99995 13.3C7.28198 13.3 6.69995 12.718 6.69995 12C6.69995 11.282 7.28198 10.7 7.99995 10.7C8.71792 10.7 9.29995 11.282 9.29995 12ZM16 13.3C16.7179 13.3 17.3 12.718 17.3 12C17.3 11.282 16.7179 10.7 16 10.7C15.282 10.7 14.7 11.282 14.7 12C14.7 12.718 15.282 13.3 16 13.3ZM13.3 12C13.3 12.718 12.7179 13.3 12 13.3C11.282 13.3 10.7 12.718 10.7 12C10.7 11.282 11.282 10.7 12 10.7C12.7179 10.7 13.3 11.282 13.3 12Z" fill="#C6C6C6"/>
</svg>
