<svg width="24" height="24" viewBox="0 0 24 24" fill="none" xmlns="http://www.w3.org/2000/svg">
<path fill-rule="evenodd" clip-rule="evenodd" d="M4 12C4 7.58172 7.58172 4 12 4C16.4183 4 20 7.58172 20 12C20 16.4183 16.4183 20 12 20H4.64729L5.55213 18.0532C5.78673 17.5484 5.71533 16.9778 5.41916 16.5503C4.52425 15.2588 4 13.6921 4 12ZM12 2C6.47715 2 2 6.47715 2 12C2 14.0137 2.59621 15.8909 3.62175 17.4613L2.53406 19.8016C2.00986 20.7933 2.72736 22 3.86159 22H12C17.5228 22 22 17.5228 22 12C22 6.47715 17.5228 2 12 2ZM15.7295 10.6839C16.1073 10.281 16.0869 9.6482 15.6839 9.27047C15.281 8.89274 14.6482 8.91315 14.2705 9.31606L11.1559 12.6383L9.62852 11.404C9.19896 11.0569 8.56933 11.1237 8.22221 11.5533C7.87509 11.9829 7.94192 12.6125 8.37148 12.9596L10.6215 14.7778C11.0289 15.107 11.6213 15.0661 11.9795 14.6839L15.7295 10.6839Z" fill="#C6C6C6"/>
</svg>
