<svg width="24" height="24" viewBox="0 0 24 24" fill="none" xmlns="http://www.w3.org/2000/svg">
<path fill-rule="evenodd" clip-rule="evenodd" d="M11 2C9.81524 2 8.74976 2.51635 8.01876 3.33309C7.65043 3.74461 7.68545 4.37681 8.09698 4.74513C8.50851 5.11346 9.1407 5.07844 9.50903 4.66691C9.87667 4.25615 10.4078 4 11 4H13C14.1046 4 15 4.89543 15 6V11.5C15 12.0523 15.4477 12.5 16 12.5C16.5523 12.5 17 12.0523 17 11.5V6C17 3.79086 15.2091 2 13 2H11ZM11 14C9.89543 14 9 13.1046 9 12V10.4142L12.5858 14H11ZM14.3514 15.7657C13.9285 15.9175 13.4731 16 13 16H11C8.79086 16 7 14.2091 7 12V8.41421L2.29289 3.70711C1.90237 3.31658 1.90237 2.68342 2.29289 2.29289C2.68342 1.90237 3.31658 1.90237 3.70711 2.29289L21.7071 20.2929C22.0976 20.6834 22.0976 21.3166 21.7071 21.7071C21.3166 22.0976 20.6834 22.0976 20.2929 21.7071L16.5939 18.0081C15.5429 18.6378 14.3127 19 13 19V21C13 21.5523 12.5523 22 12 22C11.4477 22 11 21.5523 11 21V19C7.13401 19 4 15.866 4 12V11C4 10.4477 4.44772 10 5 10C5.55228 10 6 10.4477 6 11V12C6 14.7614 8.23858 17 11 17H12H13C13.7576 17 14.4746 16.832 15.1171 16.5313L14.3514 15.7657ZM20 11C20 10.4477 19.5523 10 19 10C18.4477 10 18 10.4477 18 11V12C18 12.5862 17.8995 13.1467 17.7157 13.6668C17.5317 14.1875 17.8046 14.7588 18.3253 14.9428C18.8461 15.1269 19.4174 14.854 19.6014 14.3332C19.8598 13.6021 20 12.8164 20 12V11Z" fill="#C6C6C6"/>
</svg>
