<svg width="24" height="24" viewBox="0 0 24 24" fill="none" xmlns="http://www.w3.org/2000/svg">
<path fill-rule="evenodd" clip-rule="evenodd" d="M20.7072 4.70711C21.0977 4.31658 21.0977 3.68342 20.7072 3.29289C20.3166 2.90237 19.6835 2.90237 19.2929 3.29289L15 7.58583V4.85714C15 4.30485 14.5523 3.85714 14 3.85714C13.4477 3.85714 13 4.30485 13 4.85714V10C13 10.5523 13.4477 11 14 11H19.1429C19.6952 11 20.1429 10.5523 20.1429 10C20.1429 9.44776 19.6952 9.00004 19.1429 9.00004H16.4142L20.7072 4.70711ZM4.99993 13C4.44765 13 3.99993 13.4477 3.99993 14C3.99993 14.5523 4.44765 15 4.99993 15H7.58573L3.29286 19.2929C2.90234 19.6834 2.90234 20.3166 3.29287 20.7071C3.68339 21.0976 4.31656 21.0976 4.70708 20.7071L8.99993 16.4142V19C8.99993 19.5523 9.44765 20 9.99993 20C10.5522 20 10.9999 19.5523 10.9999 19V14C10.9999 13.4477 10.5522 13 9.99993 13H4.99993Z" fill="#C6C6C6"/>
</svg>
