<svg width="24" height="24" viewBox="0 0 24 24" fill="none" xmlns="http://www.w3.org/2000/svg">
<path d="M12 0C18.6274 0 24 5.37258 24 12C24 18.6274 18.6274 24 12 24C5.37258 24 0 18.6274 0 12C2.57711e-07 5.37258 5.37258 2.57703e-07 12 0ZM12 2.40039C6.69807 2.40039 2.40039 6.69807 2.40039 12C2.40039 17.3019 6.69807 21.5996 12 21.5996C17.3019 21.5996 21.5996 17.3019 21.5996 12C21.5996 6.69807 17.3019 2.40039 12 2.40039ZM16.7998 11C17.4625 11 18 11.4477 18 12C18 12.5523 17.4625 13 16.7998 13H7.2002C6.53745 13 6 12.5523 6 12C6 11.4477 6.53745 11 7.2002 11H16.7998Z" fill="#C6C6C6"/>
</svg>
