<svg width="24" height="24" viewBox="0 0 24 24" fill="none" xmlns="http://www.w3.org/2000/svg">
<path fill-rule="evenodd" clip-rule="evenodd" d="M12 2C6.47715 2 2 6.47715 2 12C2 17.5228 6.47715 22 12 22C17.5228 22 22 17.5228 22 12C22 6.47715 17.5228 2 12 2ZM4 12C4 7.58172 7.58172 4 12 4C16.4183 4 20 7.58172 20 12C20 16.4183 16.4183 20 12 20C7.58172 20 4 16.4183 4 12ZM11.9999 9.30001C11.282 9.30001 10.6999 8.71798 10.6999 8.00001C10.6999 7.28204 11.282 6.70001 11.9999 6.70001C12.7179 6.70001 13.2999 7.28204 13.2999 8.00001C13.2999 8.71798 12.7179 9.30001 11.9999 9.30001ZM10.6999 16C10.6999 16.718 11.282 17.3 11.9999 17.3C12.7179 17.3 13.2999 16.718 13.2999 16C13.2999 15.282 12.7179 14.7 11.9999 14.7C11.282 14.7 10.6999 15.282 10.6999 16ZM11.9999 13.3C11.282 13.3 10.6999 12.718 10.6999 12C10.6999 11.282 11.282 10.7 11.9999 10.7C12.7179 10.7 13.2999 11.282 13.2999 12C13.2999 12.718 12.7179 13.3 11.9999 13.3Z" fill="#C6C6C6"/>
</svg>
