<svg width="12" height="19" viewBox="0 0 12 19" fill="none" xmlns="http://www.w3.org/2000/svg">
<path fill-rule="evenodd" clip-rule="evenodd" d="M1.99998 7.00001C1.99998 7.71798 2.58201 8.30001 3.29998 8.30001C4.01795 8.30001 4.59998 7.71798 4.59998 7.00001C4.59998 6.28204 4.01795 5.70001 3.29998 5.70001C2.58201 5.70001 1.99998 6.28204 1.99998 7.00001Z" fill="#C6C6C6"/>
<path fill-rule="evenodd" clip-rule="evenodd" d="M1.99998 3.3C1.99998 4.01797 2.58201 4.6 3.29998 4.6C4.01795 4.6 4.59998 4.01797 4.59998 3.3C4.59998 2.58203 4.01795 2 3.29998 2C2.58201 2 1.99998 2.58203 1.99998 3.3Z" fill="#C6C6C6"/>
<path fill-rule="evenodd" clip-rule="evenodd" d="M1.99998 15C1.99998 15.718 2.58201 16.3 3.29998 16.3C4.01795 16.3 4.59998 15.718 4.59998 15C4.59998 14.282 4.01795 13.7 3.29998 13.7C2.58201 13.7 1.99998 14.282 1.99998 15Z" fill="#C6C6C6"/>
<path fill-rule="evenodd" clip-rule="evenodd" d="M1.99998 11C1.99998 11.718 2.58201 12.3 3.29998 12.3C4.01795 12.3 4.59998 11.718 4.59998 11C4.59998 10.282 4.01795 9.70001 3.29998 9.70001C2.58201 9.70001 1.99998 10.282 1.99998 11Z" fill="#C6C6C6"/>
<path fill-rule="evenodd" clip-rule="evenodd" d="M6.59995 7.00001C6.59995 7.71798 7.18198 8.30001 7.89995 8.30001C8.61792 8.30001 9.19995 7.71798 9.19995 7.00001C9.19995 6.28204 8.61792 5.70001 7.89995 5.70001C7.18198 5.70001 6.59995 6.28204 6.59995 7.00001Z" fill="#C6C6C6"/>
<path fill-rule="evenodd" clip-rule="evenodd" d="M6.59995 3.3C6.59995 4.01797 7.18198 4.6 7.89995 4.6C8.61792 4.6 9.19995 4.01797 9.19995 3.3C9.19995 2.58203 8.61792 2 7.89995 2C7.18198 2 6.59995 2.58203 6.59995 3.3Z" fill="#C6C6C6"/>
<path fill-rule="evenodd" clip-rule="evenodd" d="M6.59995 15C6.59995 15.718 7.18198 16.3 7.89995 16.3C8.61792 16.3 9.19995 15.718 9.19995 15C9.19995 14.282 8.61792 13.7 7.89995 13.7C7.18198 13.7 6.59995 14.282 6.59995 15Z" fill="#C6C6C6"/>
<path fill-rule="evenodd" clip-rule="evenodd" d="M6.59995 11C6.59995 11.718 7.18198 12.3 7.89995 12.3C8.61792 12.3 9.19995 11.718 9.19995 11C9.19995 10.282 8.61792 9.70001 7.89995 9.70001C7.18198 9.70001 6.59995 10.282 6.59995 11Z" fill="#C6C6C6"/>
</svg>
