<svg width="24" height="24" viewBox="0 0 24 24" fill="none" xmlns="http://www.w3.org/2000/svg">
<path fill-rule="evenodd" clip-rule="evenodd" d="M7.83705 3.04925C7.83705 1.36519 9.28521 0 11.0716 0H12.9284C14.7148 0 16.163 1.36519 16.163 3.04925C16.163 3.29331 16.3415 3.61892 16.7682 3.83738C16.8995 3.9046 17.029 3.97451 17.1566 4.04702C17.5821 4.28887 17.9816 4.27335 18.2162 4.14683C19.774 3.30656 21.7591 3.80799 22.6626 5.26995L23.5593 6.72091C24.4645 8.18568 23.9303 10.0652 22.3695 10.9071C22.1432 11.0291 21.9304 11.3396 21.9408 11.8015C21.9422 11.8676 21.943 11.9337 21.943 12C21.943 12.0663 21.9423 12.1325 21.9408 12.1985C21.9304 12.6605 22.1432 12.9709 22.3694 13.0929C23.9302 13.9348 24.4644 15.8143 23.5592 17.2791L22.6625 18.7301C21.7591 20.192 19.774 20.6934 18.2161 19.8532C17.9816 19.7267 17.5821 19.7111 17.1566 19.953C17.029 20.0255 16.8995 20.0954 16.7682 20.1626C16.3415 20.3811 16.163 20.7067 16.163 20.9508C16.163 22.6348 14.7148 24 12.9284 24H11.0716C9.28521 24 7.83705 22.6348 7.83705 20.9508C7.83705 20.7067 7.65851 20.3811 7.23182 20.1626C7.10052 20.0954 6.97103 20.0255 6.84343 19.953C6.41788 19.7111 6.0184 19.7267 5.78385 19.8532C4.22604 20.6934 2.24093 20.192 1.33747 18.7301L0.440766 17.279C-0.464425 15.8143 0.0697737 13.9348 1.63056 13.0929C1.85684 12.9709 2.0696 12.6605 2.05923 12.1985C2.05775 12.1325 2.05701 12.0663 2.05701 12C2.05701 11.9337 2.05775 11.8676 2.05923 11.8016C2.0696 11.3396 1.85683 11.0291 1.63054 10.9071C0.0697314 10.0652 -0.46447 8.18569 0.440731 6.72092L1.33741 5.26995C2.24087 3.80799 4.226 3.30658 5.78381 4.14684C6.01837 4.27336 6.41786 4.28888 6.84342 4.04703C6.97102 3.97452 7.10052 3.90461 7.23182 3.83738C7.65851 3.61892 7.83705 3.29331 7.83705 3.04925ZM11.0716 2.4C10.6913 2.4 10.3829 2.69068 10.3829 3.04925C10.3829 4.3765 9.48489 5.41495 8.44685 5.94641C8.34914 5.99644 8.25277 6.04847 8.15779 6.10244C7.14522 6.67788 5.74244 6.88961 4.51947 6.22996C4.17533 6.04433 3.73678 6.1551 3.53719 6.47807L2.64051 7.92904C2.447 8.24218 2.5612 8.64399 2.89487 8.82396C4.11982 9.48469 4.62951 10.7384 4.60452 11.8523C4.60342 11.9014 4.60287 11.9506 4.60287 12C4.60287 12.0494 4.60342 12.0986 4.60452 12.1477C4.62952 13.2616 4.11984 14.5153 2.89489 15.1761C2.56124 15.356 2.44705 15.7578 2.64055 16.0709L3.53725 17.5219C3.73684 17.8449 4.17537 17.9557 4.51951 17.7701C5.74246 17.1104 7.14523 17.3221 8.1578 17.8976C8.25278 17.9515 8.34915 18.0036 8.44685 18.0536C9.48489 18.585 10.3829 19.6235 10.3829 20.9508C10.3829 21.3093 10.6913 21.6 11.0716 21.6H12.9284C13.3087 21.6 13.6171 21.3093 13.6171 20.9508C13.6171 19.6235 14.5151 18.585 15.5532 18.0536C15.6508 18.0036 15.7472 17.9515 15.8422 17.8976C16.8548 17.3221 18.2575 17.1104 19.4805 17.7701C19.8246 17.9557 20.2632 17.8449 20.4627 17.522L21.3595 16.0709C21.553 15.7578 21.4388 15.356 21.1051 15.1761C19.8802 14.5153 19.3705 13.2616 19.3955 12.1477C19.3966 12.0986 19.3971 12.0494 19.3971 12C19.3971 11.9506 19.3966 11.9014 19.3955 11.8523C19.3705 10.7384 19.8802 9.48468 21.1051 8.82395C21.4388 8.64397 21.553 8.24217 21.3595 7.92903L20.4628 6.47807C20.2632 6.15509 19.8247 6.04432 19.4805 6.22995C18.2576 6.8896 16.8548 6.67788 15.8422 6.10244C15.7472 6.04846 15.6509 5.99644 15.5531 5.94641C14.5151 5.41495 13.6171 4.3765 13.6171 3.04925C13.6171 2.69068 13.3087 2.4 12.9284 2.4H11.0716Z" fill="#C6C6C6"/>
<path fill-rule="evenodd" clip-rule="evenodd" d="M12 7C12.6904 7 13.25 7.55964 13.25 8.25V10.75H15.75C16.4404 10.75 17 11.3096 17 12C17 12.6904 16.4404 13.25 15.75 13.25H13.25V15.75C13.25 16.4404 12.6904 17 12 17C11.3096 17 10.75 16.4404 10.75 15.75L10.75 13.25H8.25C7.55964 13.25 7 12.6904 7 12C7 11.3096 7.55964 10.75 8.25 10.75H10.75V8.25C10.75 7.55964 11.3096 7 12 7Z" fill="#C6C6C6"/>
</svg>
