<svg width="24" height="24" viewBox="0 0 24 24" fill="none" xmlns="http://www.w3.org/2000/svg">
<path fill-rule="evenodd" clip-rule="evenodd" d="M13.1715 3.41419C14.7336 1.85209 17.2663 1.85209 18.8284 3.41419C20.3905 4.97628 20.3905 7.50894 18.8284 9.07104L9.98957 17.9099C9.01326 18.8862 7.43035 18.8862 6.45403 17.9099C5.47772 16.9336 5.47772 15.3507 6.45403 14.3743L15.2929 5.53551C15.6834 5.14498 16.3166 5.14498 16.7071 5.53551C17.0976 5.92603 17.0976 6.5592 16.7071 6.94972L7.86825 15.7886C7.67299 15.9838 7.67299 16.3004 7.86825 16.4957C8.06351 16.6909 8.38009 16.6909 8.57536 16.4957L17.4142 7.65683C18.1952 6.87578 18.1952 5.60945 17.4142 4.8284C16.6331 4.04735 15.3668 4.04735 14.5858 4.8284L5.74693 13.6672C4.38009 15.0341 4.38009 17.2501 5.74693 18.617C7.11376 19.9838 9.32984 19.9838 10.6967 18.617L19.7929 9.52079C20.1834 9.13026 20.8166 9.13026 21.2071 9.52079C21.5976 9.91131 21.5976 10.5445 21.2071 10.935L12.1109 20.0312C9.96301 22.1791 6.4806 22.1791 4.33271 20.0312C2.18483 17.8833 2.18483 14.4009 4.33271 12.253L13.1715 3.41419Z" fill="#C6C6C6"/>
</svg>
