<svg width="24" height="24" viewBox="0 0 24 24" fill="none" xmlns="http://www.w3.org/2000/svg">
<path fill-rule="evenodd" clip-rule="evenodd" d="M7 2C4.23858 2 2 4.23858 2 7V17C2 19.7614 4.23858 22 7 22H17C19.7614 22 22 19.7614 22 17V7C22 4.23858 19.7614 2 17 2H7ZM4 7C4 5.34315 5.34315 4 7 4H17C18.6569 4 20 5.34315 20 7V17C20 18.6569 18.6569 20 17 20H7C5.34315 20 4 18.6569 4 17V7ZM11 10C11 9.44772 10.5523 9 10 9C9.44772 9 9 9.44772 9 10V14C9 14.5523 9.44772 15 10 15C10.5523 15 11 14.5523 11 14V10ZM15 10C15 9.44772 14.5523 9 14 9C13.4477 9 13 9.44772 13 10V14C13 14.5523 13.4477 15 14 15C14.5523 15 15 14.5523 15 14V10Z" fill="#C6C6C6"/>
</svg>
