<svg width="24" height="24" viewBox="0 0 24 24" fill="none" xmlns="http://www.w3.org/2000/svg">
<path fill-rule="evenodd" clip-rule="evenodd" d="M12 2C6.47715 2 2 6.47715 2 12C2 17.5228 6.47715 22 12 22C17.5228 22 22 17.5228 22 12C22 6.47715 17.5228 2 12 2ZM4 12C4 7.58172 7.58172 4 12 4C16.4183 4 20 7.58172 20 12C20 16.4183 16.4183 20 12 20C7.58172 20 4 16.4183 4 12ZM11 10C11 9.44772 10.5523 9 10 9C9.44772 9 9 9.44772 9 10V14C9 14.5523 9.44772 15 10 15C10.5523 15 11 14.5523 11 14V10ZM15 10C15 9.44772 14.5523 9 14 9C13.4477 9 13 9.44772 13 10V14C13 14.5523 13.4477 15 14 15C14.5523 15 15 14.5523 15 14V10Z" fill="#C6C6C6"/>
</svg>
