<svg width="24" height="24" viewBox="0 0 24 24" fill="none" xmlns="http://www.w3.org/2000/svg">
<path fill-rule="evenodd" clip-rule="evenodd" d="M4.19003 0.307829C7.60343 -0.830698 11.0528 1.30745 12.0109 4.76918C12.6637 7.12808 12.0454 9.60155 10.5377 11.2953C10.8465 11.6952 11.1839 12.0797 11.5502 12.4463C11.9148 12.8111 12.297 13.1472 12.6944 13.455C14.3875 11.9353 16.8684 11.3101 19.2342 11.9658C22.6952 12.9252 24.8294 16.3772 23.6926 19.7904C22.9468 22.0299 21.556 23.3906 19.7012 23.8385C17.9777 24.2546 16.1194 23.8122 14.4804 23.1309C11.1794 21.7587 7.91992 19.0558 6.43129 17.566C4.90753 16.0411 2.21626 12.7769 0.856481 9.48215C0.181244 7.84604 -0.25353 5.99466 0.163605 4.27907C0.612381 2.43335 1.96614 1.04956 4.19003 0.307829ZM9.29006 5.52221C8.70753 3.41748 6.77198 2.42262 5.08329 2.98587C3.59892 3.48095 3.08407 4.21691 2.90678 4.94606C2.69785 5.80534 2.87953 6.98395 3.46607 8.40516C4.62985 11.225 7.04343 14.1847 8.42827 15.5706C9.77959 16.9229 12.7361 19.3485 15.5641 20.5241C16.9896 21.1167 18.174 21.303 19.0385 21.0942C19.7717 20.9172 20.5143 20.3994 21.0142 18.8984C21.5779 17.2057 20.5814 15.2688 18.4801 14.6863C16.9162 14.2529 15.3084 14.7551 14.3515 15.7799C13.7337 16.4416 12.5558 16.8189 11.5537 16.1194C10.8486 15.6272 10.179 15.0679 9.55326 14.4417C8.92658 13.8146 8.36705 13.1434 7.8748 12.4367C7.17972 11.4388 7.55061 10.2656 8.20757 9.64623C9.22477 8.68726 9.72202 7.08294 9.29006 5.52221Z" fill="#C6C6C6"/>
</svg>
