<svg width="24" height="25" viewBox="0 0 24 25" fill="none" xmlns="http://www.w3.org/2000/svg">
<path fill-rule="evenodd" clip-rule="evenodd" d="M2.62551 10.2901C4.68734 9.39204 6.95323 10.5319 7.74164 12.6338C8.27887 14.0661 8.0311 15.6402 7.18642 16.7782C7.40083 17.01 7.6322 17.2307 7.88056 17.4386C8.12771 17.6455 8.38429 17.8335 8.64876 18.0031C9.61853 16.9632 11.1283 16.4364 12.6374 16.7134C14.8453 17.1187 16.3653 19.1494 15.8468 21.3373C15.5067 22.7728 14.7164 23.697 13.5865 24.0787C12.5366 24.4333 11.3553 24.261 10.2972 23.9277C8.16609 23.2565 5.98705 21.7545 4.97772 20.9097C3.94457 20.0448 2.08816 18.162 1.05896 16.1863C0.547883 15.2052 0.174564 14.0767 0.339118 12.9856C0.516155 11.8117 1.28219 10.8751 2.62551 10.2901ZM6.08959 13.2534C5.61024 11.9755 4.35013 11.4634 3.33009 11.9077C2.43347 12.2982 2.15376 12.7849 2.08383 13.2487C2.00141 13.7952 2.17986 14.5189 2.62381 15.3711C3.50466 17.062 5.17131 18.7707 6.11026 19.5567C7.02649 20.3236 9.00155 21.6697 10.8272 22.2448C11.7475 22.5346 12.4952 22.5849 13.0218 22.407C13.4684 22.2562 13.902 21.8926 14.1299 20.9305C14.387 19.8455 13.6593 18.6949 12.3188 18.4488C11.3213 18.2657 10.3482 18.6675 9.80932 19.3585C9.46135 19.8048 8.74902 20.1049 8.08637 19.725C7.62014 19.4577 7.17225 19.1467 6.74802 18.7916C6.32311 18.4359 5.93756 18.049 5.59194 17.6364C5.1039 17.0538 5.26973 16.3028 5.64437 15.8808C6.22444 15.2274 6.44504 14.2011 6.08959 13.2534Z" fill="#C6C6C6"/>
<path d="M10.8269 7.07683C10.8269 6.57609 10.3799 6.1679 9.82955 6.1679L8.37488 6.17265L9.3748 5.17829C10.3179 4.21952 11 3.52892 11 2.50608C11 2.42777 10.9948 2.34945 10.9897 2.27588C10.8734 0.885197 9.71069 0 7.9563 0C6.90471 0 6.04689 0.567191 5.34668 1.12252C5.14515 1.27677 5.02371 1.49748 5.00304 1.74192C4.98237 1.98398 5.06764 2.2213 5.24075 2.40403C5.42937 2.60575 5.70325 2.72204 5.99263 2.71967C6.23034 2.71967 6.4603 2.64135 6.64116 2.49896C7.03906 2.18333 7.55065 1.82023 7.95372 1.82023C9.01049 1.82023 9.01049 2.28063 9.01049 2.50133C9.01049 2.8051 8.61 3.22753 7.90721 3.94186L5.36736 6.46692C5.09864 6.73272 5.02888 7.11955 5.18649 7.45417C5.3441 7.78641 5.70325 8 6.09598 8L9.83213 7.99051C10.0983 7.99051 10.3463 7.89321 10.5349 7.72234C10.7106 7.56096 10.8088 7.34737 10.8191 7.12192C10.8191 7.10768 10.8243 7.09344 10.8243 7.07683H10.8269Z" fill="#C6C6C6"/>
<path d="M16.1381 4.48977V0.913134C16.1381 0.526534 15.9075 0.180255 15.5627 0.052179C15.471 0.0166024 15.3747 0 15.2762 0C15.0143 0 14.7702 0.123332 14.6068 0.339164L11.1905 4.82656C10.9823 5.09932 10.942 5.4788 11.0831 5.79188C11.2264 6.10732 11.5308 6.3113 11.8599 6.3113H14.4143V7.08687C14.4143 7.58968 14.8016 8 15.2762 8C15.7508 8 16.1381 7.58968 16.1381 7.08687V6.3113C16.6127 6.3113 17 5.90098 17 5.39816C17 4.89535 16.6127 4.48503 16.1381 4.48503V4.48977ZM14.6068 3.24933V4.74118H13.4718L14.6068 3.24933Z" fill="#C6C6C6"/>
<path d="M23.8284 12.396C23.6473 12.147 23.3506 12 23.0312 12H19.9682C19.4351 12 19 12.4102 19 12.9129C19 13.4155 19.4351 13.8257 19.9682 13.8257H21.6204L19.591 18.7576C19.3973 19.227 19.6463 19.7558 20.1442 19.9384C20.2574 19.9787 20.3731 20 20.4938 20C20.8911 20 21.2533 19.7653 21.3941 19.4167L23.934 13.2448C24.0497 12.965 24.012 12.6473 23.8309 12.3983L23.8284 12.396Z" fill="#C6C6C6"/>
<path d="M20.4533 5.88116C20.3939 5.84568 20.3319 5.81955 20.2658 5.80036C19.9291 5.70267 19.5679 5.83537 19.389 6.12454L15.2892 12.7429C15.1829 12.913 15.1536 13.1157 15.2045 13.3111C15.2554 13.5066 15.3821 13.6733 15.5606 13.7778C15.6199 13.8133 15.682 13.8394 15.7481 13.8586C16.0867 13.9569 16.446 13.8236 16.6249 13.5345L20.7246 6.91612C20.943 6.56331 20.8203 6.09933 20.4533 5.88116Z" fill="#C6C6C6"/>
</svg>
