<svg width="24" height="24" viewBox="0 0 24 24" fill="none" xmlns="http://www.w3.org/2000/svg">
<path fill-rule="evenodd" clip-rule="evenodd" d="M13.1088 2.06168C11.8926 1.92598 11 2.92944 11 4.00001V11C11 12.1046 11.8954 13 13 13L20 13C21.0706 13 22.074 12.1074 21.9383 10.8912C21.8343 9.95863 21.5993 9.04349 21.2388 8.17318C20.7362 6.95992 19.9997 5.85753 19.0711 4.92894C18.1425 4.00036 17.0401 3.26376 15.8268 2.76122C14.9565 2.40072 14.0414 2.16572 13.1088 2.06168ZM13 11V4.06276C13.707 4.15183 14.4004 4.33514 15.0615 4.60897C16.0321 5.01101 16.914 5.60029 17.6569 6.34316C18.3997 7.08603 18.989 7.96794 19.391 8.93854C19.6649 9.59963 19.8482 10.293 19.9373 11L13 11ZM9.33325 4.45495C9.85396 4.27091 10.1269 3.69958 9.94284 3.17887C9.75879 2.65815 9.18747 2.38523 8.66675 2.56927C4.78413 3.94158 2 7.64437 2 12C2 17.5228 6.47715 22 12 22C16.3699 22 20.0827 19.1976 21.4442 15.2949C21.6261 14.7734 21.3508 14.2032 20.8294 14.0213C20.3079 13.8394 19.7377 14.1146 19.5558 14.6361C18.4658 17.7606 15.4931 20 12 20C7.58172 20 4 16.4183 4 12C4 8.51831 6.22472 5.55366 9.33325 4.45495Z" fill="#C6C6C6"/>
</svg>
