<svg width="24" height="24" viewBox="0 0 24 24" fill="none" xmlns="http://www.w3.org/2000/svg">
<path d="M18 0C21.3137 0 24 2.68629 24 6V18C24 21.3137 21.3137 24 18 24H6C2.68629 24 0 21.3137 0 18V6C1.28855e-07 2.68629 2.68629 1.28851e-07 6 0H18ZM6 2.40039C4.01178 2.40039 2.40039 4.01178 2.40039 6V18C2.40039 19.9882 4.01178 21.5996 6 21.5996H18C19.9882 21.5996 21.5996 19.9882 21.5996 18V6C21.5996 4.01178 19.9882 2.40039 18 2.40039H6ZM8.40039 9.92188C8.40039 8.0744 10.4 6.91915 12 7.84277L15.5996 9.92188C17.1996 10.8456 17.1996 13.1544 15.5996 14.0781L12 16.1572C10.4 17.0808 8.40039 15.9256 8.40039 14.0781V9.92188ZM10.7998 14.0781L14.4004 12L10.7998 9.92188V14.0781Z" fill="#C6C6C6"/>
</svg>
