<svg width="24" height="24" viewBox="0 0 24 24" fill="none" xmlns="http://www.w3.org/2000/svg">
<g clip-path="url(#clip0_4193_18)">
<path d="M12.2666 0.266602C18.7468 0.266602 24 5.51982 24 12C24 18.4802 18.7468 23.7334 12.2666 23.7334C5.78642 23.7334 0.533203 18.4802 0.533203 12C0.533203 5.51982 5.78642 0.266602 12.2666 0.266602ZM12.2666 2.61328C7.08246 2.61328 2.87988 6.81586 2.87988 12C2.87988 17.1841 7.08246 21.3867 12.2666 21.3867C17.4507 21.3867 21.6533 17.1841 21.6533 12C21.6533 6.81586 17.4507 2.61328 12.2666 2.61328ZM12.2783 15.5205C12.9263 15.5205 13.4521 16.0453 13.4521 16.6934C13.4521 17.3414 12.9263 17.8672 12.2783 17.8672H12.2666C11.6186 17.8672 11.0938 17.3414 11.0938 16.6934C11.0938 16.0453 11.6186 15.5205 12.2666 15.5205H12.2783ZM12.498 6C14.4541 6.00018 16 7.61671 16 9.56055C16 10.6284 15.4796 11.6341 14.6016 12.2402L13.7188 12.8486C13.4327 13.0455 13.252 13.3819 13.252 13.752V14C13.252 14.5523 12.8042 15 12.252 15C11.6999 14.9998 11.252 14.5521 11.252 14V13.752C11.252 12.7363 11.7463 11.7783 12.585 11.2012L13.4668 10.5938C13.7951 10.3665 14 9.9808 14 9.56055C14 8.67723 13.306 8.00019 12.498 8C11.6927 8 11.0002 8.67429 11 9.55566V10.0488C11 10.6011 10.5523 11.0488 10 11.0488C9.44771 11.0488 9 10.6011 9 10.0488V9.55566C9.00015 7.61297 10.5453 6 12.498 6Z" fill="#17325E"/>
</g>
<defs>
<clipPath id="clip0_4193_18">
<rect width="24" height="24" fill="white"/>
</clipPath>
</defs>
</svg>
