<svg width="24" height="24" viewBox="0 0 24 24" fill="none" xmlns="http://www.w3.org/2000/svg">
<path fill-rule="evenodd" clip-rule="evenodd" d="M8 2C5.23858 2 3 4.23858 3 7V8C3 8.55228 3.44772 9 4 9C4.55228 9 5 8.55228 5 8V7C5 5.34315 6.34315 4 8 4H9C9.55228 4 10 3.55228 10 3C10 2.44772 9.55228 2 9 2H8ZM14 3C14 2.44772 14.4477 2 15 2H16C18.7614 2 21 4.23858 21 7V8C21 8.55228 20.5523 9 20 9C19.4477 9 19 8.55228 19 8V7C19 5.34315 17.6569 4 16 4H15C14.4477 4 14 3.55228 14 3ZM19 14V17C19 18.6569 17.6569 20 16 20H15C14.4477 20 14 20.4477 14 21C14 21.5523 14.4477 22 15 22H16C18.7614 22 21 19.7614 21 17V14H22C22.5523 14 23 13.5523 23 13C23 12.4477 22.5523 12 22 12H20.0019C20.0012 12 20.0006 12 20 12C19.9994 12 19.9988 12 19.9981 12L4.00062 12C4.00042 12 4.00021 12 4 12C3.99979 12 3.99958 12 3.99938 12H2C1.44772 12 1 12.4477 1 13C1 13.5523 1.44772 14 2 14H3V17C3 19.7614 5.23858 22 8 22H9C9.55228 22 10 21.5523 10 21C10 20.4477 9.55228 20 9 20H8C6.34315 20 5 18.6569 5 17V14L19 14Z" fill="#C6C6C6"/>
</svg>
