<svg width="24" height="24" viewBox="0 0 24 24" fill="none" xmlns="http://www.w3.org/2000/svg">
<path fill-rule="evenodd" clip-rule="evenodd" d="M21.2166 5.2496C21.6692 3.66546 20.2046 2.20088 18.6205 2.65349L4.6218 6.65311C2.2884 7.3198 1.8501 10.4367 3.90914 11.7211L8.3939 14.5185C8.78195 14.7606 9.10952 15.0881 9.35158 15.4762L12.149 19.961C13.4334 22.02 16.5503 21.5817 17.217 19.2483L21.2166 5.2496ZM19.1699 4.57654C19.1969 4.56884 19.2124 4.57121 19.2226 4.57405C19.236 4.57779 19.2526 4.58648 19.2681 4.60198C19.2836 4.61747 19.2923 4.63414 19.296 4.64753C19.2989 4.65774 19.3013 4.67321 19.2936 4.70016L15.2939 18.6988C15.1035 19.3655 14.2129 19.4908 13.8459 18.9025L11.0485 14.4177C11.0253 14.3804 11.0016 14.3435 10.9774 14.3069L14.4351 10.8492C14.8257 10.4587 14.8257 9.82549 14.4351 9.43497C14.0446 9.04444 13.4114 9.04444 13.0209 9.43497L9.56317 12.8927C9.52658 12.8685 9.48965 12.8448 9.45239 12.8216L4.96763 10.0242C4.37933 9.6572 4.50456 8.76664 5.17125 8.57616L19.1699 4.57654Z" fill="#C6C6C6"/>
</svg>
