<svg width="24" height="24" viewBox="0 0 24 24" fill="none" xmlns="http://www.w3.org/2000/svg">
<path fill-rule="evenodd" clip-rule="evenodd" d="M11.0716 0C9.28521 0 7.83705 1.36519 7.83705 3.04925C7.83705 3.29331 7.65851 3.61892 7.23182 3.83738C7.10052 3.90461 6.97102 3.97452 6.84342 4.04703C6.41786 4.28888 6.01837 4.27336 5.78381 4.14684C4.226 3.30658 2.24087 3.80799 1.33741 5.26995L0.440731 6.72092C-0.46447 8.18569 0.0697314 10.0652 1.63054 10.9071C1.85683 11.0291 2.0696 11.3396 2.05923 11.8016C2.05775 11.8676 2.05701 11.9337 2.05701 12C2.05701 12.0663 2.05775 12.1325 2.05923 12.1985C2.0696 12.6605 1.85684 12.9709 1.63056 13.0929C0.0697737 13.9348 -0.464425 15.8143 0.440766 17.279L1.33747 18.7301C2.24093 20.192 4.22604 20.6934 5.78385 19.8532C6.0184 19.7267 6.41788 19.7111 6.84343 19.953C6.97103 20.0255 7.10052 20.0954 7.23182 20.1626C7.65851 20.3811 7.83705 20.7067 7.83705 20.9508C7.83705 22.6348 9.28521 24 11.0716 24H12.9284C14.7148 24 16.163 22.6348 16.163 20.9508C16.163 20.7067 16.3415 20.3811 16.7682 20.1626C16.8995 20.0954 17.029 20.0255 17.1566 19.953C17.5821 19.7111 17.9816 19.7267 18.2161 19.8532C19.774 20.6934 21.7591 20.192 22.6625 18.7301L23.5592 17.2791C24.4644 15.8143 23.9302 13.9348 22.3694 13.0929C22.1432 12.9709 21.9304 12.6605 21.9408 12.1985C21.9423 12.1325 21.943 12.0663 21.943 12C21.943 11.9337 21.9422 11.8676 21.9408 11.8015C21.9304 11.3396 22.1432 11.0291 22.3695 10.9071C23.9303 10.0652 24.4645 8.18568 23.5593 6.72091L22.6626 5.26995C21.7591 3.80799 19.774 3.30656 18.2162 4.14683C17.9816 4.27335 17.5821 4.28887 17.1566 4.04702C17.029 3.97451 16.8995 3.9046 16.7682 3.83738C16.3415 3.61892 16.163 3.29331 16.163 3.04925C16.163 1.36519 14.7148 0 12.9284 0H11.0716ZM10.3829 3.04925C10.3829 2.69068 10.6913 2.4 11.0716 2.4H12.9284C13.3087 2.4 13.6171 2.69068 13.6171 3.04925C13.6171 4.3765 14.5151 5.41495 15.5531 5.94641C15.6509 5.99644 15.7472 6.04846 15.8422 6.10244C16.8548 6.67788 18.2576 6.8896 19.4805 6.22995C19.8247 6.04432 20.2632 6.15509 20.4628 6.47807L21.3595 7.92903C21.553 8.24217 21.4388 8.64397 21.1051 8.82395C19.8802 9.48468 19.3705 10.7384 19.3955 11.8523C19.3966 11.9014 19.3971 11.9506 19.3971 12C19.3971 12.0494 19.3966 12.0986 19.3955 12.1477C19.3705 13.2616 19.8802 14.5153 21.1051 15.1761C21.4388 15.356 21.553 15.7578 21.3595 16.0709L20.4627 17.522C20.2632 17.8449 19.8246 17.9557 19.4805 17.7701C18.2575 17.1104 16.8548 17.3221 15.8422 17.8976C15.7472 17.9515 15.6508 18.0036 15.5532 18.0536C14.5151 18.585 13.6171 19.6235 13.6171 20.9508C13.6171 21.3093 13.3087 21.6 12.9284 21.6H11.0716C10.6913 21.6 10.3829 21.3093 10.3829 20.9508C10.3829 19.6235 9.48489 18.585 8.44685 18.0536C8.34915 18.0036 8.25278 17.9515 8.1578 17.8976C7.14523 17.3221 5.74246 17.1104 4.51951 17.7701C4.17537 17.9557 3.73684 17.8449 3.53725 17.5219L2.64055 16.0709C2.44705 15.7578 2.56124 15.356 2.89489 15.1761C4.11984 14.5153 4.62952 13.2616 4.60452 12.1477C4.60342 12.0986 4.60287 12.0494 4.60287 12C4.60287 11.9506 4.60342 11.9014 4.60452 11.8523C4.62951 10.7384 4.11982 9.48469 2.89487 8.82396C2.5612 8.64399 2.447 8.24218 2.64051 7.92904L3.53719 6.47807C3.73678 6.1551 4.17533 6.04433 4.51947 6.22996C5.74244 6.88961 7.14522 6.67788 8.15779 6.10244C8.25277 6.04847 8.34914 5.99644 8.44685 5.94641C9.48489 5.41495 10.3829 4.3765 10.3829 3.04925ZM9.45413 12C9.45413 10.6745 10.594 9.60001 12 9.60001C13.406 9.60001 14.5458 10.6745 14.5458 12C14.5458 13.3255 13.406 14.4 12 14.4C10.594 14.4 9.45413 13.3255 9.45413 12ZM12 7.20001C9.18791 7.20001 6.90827 9.34905 6.90827 12C6.90827 14.651 9.18791 16.8 12 16.8C14.8121 16.8 17.0917 14.651 17.0917 12C17.0917 9.34905 14.8121 7.20001 12 7.20001Z" fill="#C6C6C6"/>
</svg>
