<svg width="24" height="24" viewBox="0 0 24 24" fill="none" xmlns="http://www.w3.org/2000/svg">
<path fill-rule="evenodd" clip-rule="evenodd" d="M12.8485 0.351472C12.3799 -0.117157 11.6201 -0.117157 11.1515 0.351472L6.35147 5.15147C5.88284 5.6201 5.88284 6.3799 6.35147 6.84853C6.8201 7.31716 7.57989 7.31716 8.04852 6.84853L10.8 4.09706V15.6857C10.8 16.3011 11.3373 16.8 12 16.8C12.6627 16.8 13.2 16.3011 13.2 15.6857V4.09706L15.9515 6.84853C16.4201 7.31716 17.1799 7.31716 17.6485 6.84853C18.1172 6.3799 18.1172 5.6201 17.6485 5.15147L12.8485 0.351472ZM3.59999 12C4.26274 12 4.79999 12.5373 4.79999 13.2V19.2C4.79999 20.5255 5.87451 21.6 7.19999 21.6H16.8C18.1255 21.6 19.2 20.5255 19.2 19.2V13.2C19.2 12.5373 19.7373 12 20.4 12C21.0627 12 21.6 12.5373 21.6 13.2V19.2C21.6 21.851 19.451 24 16.8 24H7.19999C4.54903 24 2.39999 21.851 2.39999 19.2V13.2C2.39999 12.5373 2.93725 12 3.59999 12Z" fill="#C6C6C6"/>
</svg>
