<svg width="24" height="24" viewBox="0 0 24 24" fill="none" xmlns="http://www.w3.org/2000/svg">
<path fill-rule="evenodd" clip-rule="evenodd" d="M11.7253 4.11849C11.9048 4.06719 12.0952 4.06719 12.2747 4.11849L17.2747 5.54706C17.704 5.66972 18 6.06211 18 6.50859V12C18 12.5523 18.4477 13 19 13C19.5523 13 20 12.5523 20 12V6.50859C20 5.16915 19.1121 3.99199 17.8242 3.62402L12.8242 2.19545C12.2855 2.04154 11.7145 2.04154 11.1758 2.19545L6.17584 3.62402C4.88793 3.99199 4 5.16915 4 6.50859V11.883C4 14.7896 5.40369 17.5172 7.76886 19.2066L9.41876 20.3851C9.86817 20.7062 10.4927 20.6021 10.8137 20.1527C11.1347 19.7032 11.0307 19.0787 10.5812 18.7577L8.93133 17.5792C7.09176 16.2652 6 14.1437 6 11.883V6.50859C6 6.06211 6.29598 5.66972 6.72528 5.54706L11.7253 4.11849ZM15.5 19C15.5 18.1716 16.1716 17.5 17 17.5C17.8284 17.5 18.5 18.1716 18.5 19C18.5 19.8284 17.8284 20.5 17 20.5C16.1716 20.5 15.5 19.8284 15.5 19ZM17 16C15.3431 16 14 17.3431 14 19C14 20.6569 15.3431 22 17 22C18.6569 22 20 20.6569 20 19C20 17.3431 18.6569 16 17 16Z" fill="#C6C6C6"/>
</svg>
