<svg width="24" height="24" viewBox="0 0 24 24" fill="none" xmlns="http://www.w3.org/2000/svg">
<path fill-rule="evenodd" clip-rule="evenodd" d="M11.7253 4.11849C11.9048 4.06719 12.0952 4.06719 12.2747 4.11849L17.2747 5.54706C17.704 5.66972 18 6.06211 18 6.50859V11.883C18 14.1437 16.9082 16.2652 15.0687 17.5792L12.5812 19.3559C12.2335 19.6043 11.7665 19.6043 11.4188 19.3559L8.93133 17.5792C7.09176 16.2652 6 14.1437 6 11.883V6.50859C6 6.06211 6.29598 5.66972 6.72528 5.54706L11.7253 4.11849ZM12.8242 2.19545C12.2855 2.04154 11.7145 2.04154 11.1758 2.19545L6.17584 3.62402C4.88793 3.99199 4 5.16915 4 6.50859V11.883C4 14.7896 5.40369 17.5172 7.76886 19.2066L10.2563 20.9834C11.2994 21.7284 12.7006 21.7284 13.7437 20.9834L16.2311 19.2066C18.5963 17.5172 20 14.7896 20 11.883V6.50859C20 5.16915 19.1121 3.99199 17.8242 3.62402L12.8242 2.19545ZM10.7071 8.29289C10.3166 7.90237 9.68342 7.90237 9.29289 8.29289C8.90237 8.68342 8.90237 9.31658 9.29289 9.70711L10.5858 11L9.29289 12.2929C8.90237 12.6834 8.90237 13.3166 9.29289 13.7071C9.68342 14.0976 10.3166 14.0976 10.7071 13.7071L12 12.4142L13.2929 13.7071C13.6834 14.0976 14.3166 14.0976 14.7071 13.7071C15.0976 13.3166 15.0976 12.6834 14.7071 12.2929L13.4142 11L14.7071 9.70711C15.0976 9.31658 15.0976 8.68342 14.7071 8.29289C14.3166 7.90237 13.6834 7.90237 13.2929 8.29289L12 9.58579L10.7071 8.29289Z" fill="#C6C6C6"/>
</svg>
