<svg width="24" height="24" viewBox="0 0 24 24" fill="none" xmlns="http://www.w3.org/2000/svg">
<path fill-rule="evenodd" clip-rule="evenodd" d="M6.98343 7C6.98343 5.8902 7.87665 5 8.96685 5C10.0571 5 10.9503 5.8902 10.9503 7C10.9503 8.1098 10.0571 9 8.96686 9C7.87665 9 6.98343 8.1098 6.98343 7ZM8.96685 3C6.76165 3 4.98343 4.79609 4.98343 7C4.98343 9.20391 6.76165 11 8.96686 11C11.1721 11 12.9503 9.20391 12.9503 7C12.9503 4.79609 11.1721 3 8.96685 3ZM15 6C14.4477 6 14 6.44772 14 7C14 7.55228 14.4477 8 15 8H21C21.5523 8 22 7.55228 22 7C22 6.44772 21.5523 6 21 6H15ZM8.96685 16H3C2.44772 16 2 16.4477 2 17C2 17.5523 2.44772 18 3 18H8.96685C9.51914 18 9.96685 17.5523 9.96685 17C9.96685 16.4477 9.51914 16 8.96685 16ZM2 7C2 6.44772 2.44772 6 3 6H3.01C3.56228 6 4.01 6.44772 4.01 7C4.01 7.55228 3.56228 8 3.01 8H3C2.44772 8 2 7.55228 2 7ZM21 16C20.4477 16 20 16.4477 20 17C20 17.5523 20.4477 18 21 18H21.01C21.5623 18 22.01 17.5523 22.01 17C22.01 16.4477 21.5623 16 21.01 16H21ZM14.9337 15C13.8435 15 12.9503 15.8902 12.9503 17C12.9503 18.1098 13.8435 19 14.9337 19C16.0239 19 16.9171 18.1098 16.9171 17C16.9171 15.8902 16.0239 15 14.9337 15ZM10.9503 17C10.9503 14.7961 12.7285 13 14.9337 13C17.1389 13 18.9171 14.7961 18.9171 17C18.9171 19.2039 17.1389 21 14.9337 21C12.7285 21 10.9503 19.2039 10.9503 17Z" fill="#C6C6C6"/>
</svg>
