<svg width="24" height="24" viewBox="0 0 24 24" fill="none" xmlns="http://www.w3.org/2000/svg">
<path fill-rule="evenodd" clip-rule="evenodd" d="M12 0C5.37258 0 0 5.37258 0 12C0 18.6274 5.37258 24 12 24C18.6274 24 24 18.6274 24 12C24 5.37258 18.6274 0 12 0ZM2.4 12C2.4 6.69807 6.69807 2.4 12 2.4C17.3019 2.4 21.6 6.69807 21.6 12C21.6 17.3019 17.3019 21.6 12 21.6C6.69807 21.6 2.4 17.3019 2.4 12ZM13.5423 6.23546C12.8427 5.07298 11.1573 5.07298 10.4578 6.23546L9.25902 8.22734L6.9942 8.75188C5.67244 9.058 5.15164 10.6608 6.04104 11.6854L7.565 13.441L7.364 15.7571C7.24669 17.1087 8.61015 18.0994 9.85942 17.5701L12 16.6632L14.1406 17.5701C15.3899 18.0994 16.7533 17.1087 16.636 15.7571L16.435 13.441L17.959 11.6854C18.8484 10.6608 18.3276 9.058 17.0058 8.75188L14.741 8.22734L13.5423 6.23546ZM11.1843 9.68266L12 8.32721L12.8157 9.68266C13.0671 10.1003 13.477 10.3981 13.9519 10.5081L15.493 10.865L14.456 12.0597C14.1365 12.4278 13.9799 12.9097 14.022 13.3953L14.1588 14.9713L12.7022 14.3542C12.2534 14.1641 11.7467 14.1641 11.2979 14.3542L9.84121 14.9713L9.97799 13.3953C10.0201 12.9097 9.86355 12.4278 9.54403 12.0597L8.507 10.865L10.0482 10.5081C10.523 10.3981 10.933 10.1003 11.1843 9.68266Z" fill="#C6C6C6"/>
</svg>
