<svg width="24" height="24" viewBox="0 0 24 24" fill="none" xmlns="http://www.w3.org/2000/svg">
<path d="M15.5996 13.2002C17.5949 13.2002 19.5142 14.1102 20.6387 15.4805C21.2094 16.1759 21.6105 17.0365 21.6455 17.9902C21.6812 18.9641 21.3294 19.9147 20.6045 20.7441C18.8374 22.7656 16.0161 24 12 24C7.98392 24 5.16258 22.7656 3.3955 20.7441C2.67054 19.9147 2.31881 18.9641 2.35449 17.9902C2.38944 17.0365 2.79063 16.1759 3.36132 15.4805C4.48582 14.1102 6.4051 13.2002 8.40038 13.2002H15.5996ZM8.40038 15.5996C7.08203 15.5996 5.85962 16.2197 5.21679 17.0029C4.90387 17.3843 4.76472 17.7565 4.75292 18.0781C4.74188 18.3795 4.83684 18.7471 5.20214 19.165C6.40124 20.5368 8.48536 21.5996 12 21.5996C15.5146 21.5996 17.5988 20.5368 18.7978 19.165C19.1631 18.7471 19.2581 18.3795 19.2471 18.0781C19.2353 17.7565 19.0961 17.3843 18.7832 17.0029C18.1404 16.2197 16.918 15.5996 15.5996 15.5996H8.40038ZM12 0C15.3137 0 18 2.68629 18 6C18 9.31371 15.3137 12 12 12C8.68629 12 5.99999 9.31371 5.99999 6C5.99999 2.68629 8.68629 9.01959e-07 12 0ZM12 2.40039C10.0118 2.40039 8.40038 4.01178 8.40038 6C8.40038 7.98822 10.0118 9.59961 12 9.59961C13.9882 9.59961 15.5996 7.98822 15.5996 6C15.5996 4.01178 13.9882 2.40039 12 2.40039Z" fill="#C6C6C6"/>
</svg>
