<svg width="24" height="24" viewBox="0 0 24 24" fill="none" xmlns="http://www.w3.org/2000/svg">
<path d="M10.0002 17.4004C10.0002 16.627 10.6263 16.0002 11.3996 16C12.173 16 12.8 16.6272 12.8 17.4004C12.8 17.5365 12.7812 17.6656 12.7463 17.7871L12.7453 17.7881C12.5774 18.3729 12.0362 18.7998 11.3996 18.7998C10.763 18.7996 10.2237 18.3742 10.0549 17.79C10.0195 17.6674 10.0002 17.5372 10.0002 17.4004ZM8.00018 17.4004C8.00022 17.7268 8.04613 18.0437 8.133 18.3447C8.54229 19.7622 9.84858 20.7996 11.3996 20.7998C12.8539 20.7998 14.0958 19.8861 14.5812 18.6016L14.6682 18.3398C14.7545 18.0397 14.8 17.7247 14.8 17.4004C14.8 15.5229 13.2778 14 11.3996 14C9.52172 14.0002 8.00018 15.5225 8.00018 17.4004Z" fill="#C6C6C6"/>
<path d="M3.19045 5L3.08792 5.00488C2.58382 5.05625 2.19045 5.48235 2.19045 6C2.19045 6.51765 2.58382 6.94375 3.08792 6.99512L3.19045 7H3.94143C4.12697 7.00001 4.33445 7.02093 4.51077 7.06836C4.59689 7.09155 4.66238 7.11763 4.70803 7.1416C4.75123 7.1643 4.76663 7.17969 4.76663 7.17969C4.79149 7.20652 4.81808 7.23191 4.84573 7.25586L6.8594 9H1.19045L1.08792 9.00488C0.583824 9.05625 0.190454 9.48235 0.190454 10C0.190454 10.5176 0.583824 10.9437 1.08792 10.9951L1.19045 11H8.72659C9.38788 10.9998 9.78842 10.5256 9.92581 10.126C10.0638 9.7246 10.0266 9.18685 9.64651 8.77637L9.56741 8.69922L6.16995 5.75781C5.81958 5.4117 5.38525 5.23303 5.03128 5.1377C4.64373 5.03334 4.25375 5.00001 3.94143 5H3.19045Z" fill="#C6C6C6"/>
<path d="M3.00037 16C2.44808 16 2.00037 16.4477 2.00037 17C2.00037 17.5523 2.44808 18 3.00037 18H8.59998C9.15226 18 9.59998 17.5523 9.59998 17C9.59998 16.4477 9.15226 16 8.59998 16H3.00037Z" fill="#C6C6C6"/>
<path d="M6.20605 2C5.65377 2 5.20605 2.44772 5.20605 3C5.20605 3.55228 5.65377 4 6.20605 4C6.40138 4.00002 6.48089 4.01879 6.50293 4.02539C6.50667 4.02648 6.50029 4.02167 6.51172 4.03125C6.55006 4.06337 6.59224 4.1087 6.72656 4.25684C6.84723 4.38992 7.00943 4.56672 7.23047 4.76562L11.5859 8.68359C11.8468 8.91776 12.1613 9.08499 12.5 9.1709L12.6465 9.20312C14.8466 9.60183 16.0106 10.4042 16.6357 11.1016C17.2678 11.8066 17.426 12.4913 17.4658 12.7705C17.5182 13.1364 17.687 13.4809 17.9531 13.7529C18.0279 14.2058 18.005 14.561 17.9434 14.8369L17.8857 15.0273C17.7434 15.3992 17.4418 15.7109 17.041 15.8828L16.833 15.957L16.6758 15.9893C16.6194 15.9966 16.5588 16 16.4951 16H14.2646L14.1631 16.0049C13.6587 16.056 13.2646 16.4821 13.2646 17C13.2646 17.5179 13.6587 17.944 14.1631 17.9951L14.2646 18H16.4951C16.7814 18 17.0826 17.9653 17.3818 17.8799C18.5209 17.555 19.4771 16.6901 19.832 15.5137L19.8955 15.2744C20.0231 14.7039 20.041 14.055 19.9082 13.3271C19.8443 12.9803 19.6781 12.6605 19.4326 12.4082C19.3386 11.8318 19.0449 10.7928 18.125 9.7666C17.1543 8.68381 15.563 7.69923 13.0039 7.23535L12.958 7.21973C12.9445 7.2131 12.9327 7.20513 12.9229 7.19629L8.56836 3.27832C8.42473 3.14907 8.31683 3.03407 8.20801 2.91406C8.11286 2.80912 7.9646 2.63935 7.7959 2.49805C7.35131 2.12574 6.85271 2.00004 6.20605 2Z" fill="#C6C6C6"/>
<path d="M14.4844 9C13.8196 9 13.3667 9.43517 13.1641 9.85645C12.9602 10.2803 12.93 10.8182 13.165 11.3047L13.3506 11.6885C13.8221 12.6655 14.6811 13.4123 15.7471 13.6064L17.8213 13.9834C18.3645 14.0821 18.8845 13.7219 18.9834 13.1787C19.0821 12.6355 18.7219 12.1155 18.1787 12.0166L16.1055 11.6387C15.8102 11.5849 15.4886 11.3803 15.252 11H16.5684C17.1205 10.9998 17.5684 10.5522 17.5684 10C17.5684 9.44784 17.1205 9.00021 16.5684 9H14.4844Z" fill="#C6C6C6"/>
<path d="M22 12C22 6.47715 17.5228 2 12 2C6.47715 2 2 6.47715 2 12C2 17.5228 6.47715 22 12 22V24C5.37258 24 0 18.6274 0 12C0 5.37258 5.37258 0 12 0C18.6274 0 24 5.37258 24 12C24 18.6274 18.6274 24 12 24V22C17.5228 22 22 17.5228 22 12Z" fill="#C6C6C6"/>
</svg>
