<svg width="24" height="24" viewBox="0 0 24 24" fill="none" xmlns="http://www.w3.org/2000/svg">
<path d="M16.3 1.59094C17.4354 1.59202 18.8045 3.78363 19.5886 4.9349C20.1753 5.79613 22.4293 8.86386 23.529 10.3569C23.9189 10.8865 24.0764 11.5522 23.9651 12.2004L22.9337 18.2035C22.8693 18.6102 22.6632 18.982 22.3526 19.2525L22.2324 19.348C21.9842 19.5285 21.6924 19.6406 21.3873 19.6733L21.234 19.6827H20.1379C19.8993 20.471 19.413 21.1626 18.7517 21.6535C18.0904 22.1443 17.2875 22.409 16.4639 22.409C15.6405 22.4089 14.8385 22.1441 14.1772 21.6535C13.5159 21.1626 13.0296 20.471 12.7911 19.6827H10.2687C10.0301 20.4711 9.5439 21.1626 8.88251 21.6535C8.22124 22.1442 7.41928 22.4089 6.59584 22.409C5.77231 22.409 4.96935 22.1442 4.308 21.6535C3.64687 21.1626 3.1604 20.4709 2.92186 19.6827H1.55221L1.3872 19.6721C1.27896 19.6586 1.17189 19.6327 1.06895 19.5967L0.916896 19.5342C0.718507 19.4397 0.541918 19.3029 0.400628 19.1346C0.285668 19.0084 0.192041 18.864 0.124814 18.7079L0.0658791 18.5476C0.0162814 18.3845 -0.00518011 18.214 0.00105088 18.0443L0.0163739 17.8746L0.454848 15.516C0.506192 15.2649 0.64484 15.0397 0.844996 14.8795C0.995131 14.7595 1.17349 14.6813 1.36126 14.6521L1.55221 14.6391H5.88273C6.21793 14.6325 6.54256 14.5238 6.81272 14.3291L6.9247 14.2407C7.17869 14.0217 7.35957 13.731 7.44333 13.4085L7.47279 13.2683L8.78822 5.70341C8.82764 5.47032 8.81643 5.23041 8.75521 5.00208C8.69396 4.7741 8.58395 4.56159 8.43343 4.37973C8.28265 4.19783 8.09343 4.04979 7.88062 3.94715C7.66782 3.84469 7.4343 3.78911 7.19816 3.78449H3.19649C3.07761 3.7858 2.95904 3.7667 2.84642 3.73027L2.73562 3.68784C2.62711 3.6391 2.52673 3.57257 2.43977 3.49218L2.35726 3.40731C2.27916 3.31744 2.21504 3.21516 2.16985 3.10556L2.13095 2.99359C2.09775 2.87914 2.0835 2.7597 2.08852 2.64116L2.10031 2.52329C2.15186 2.25753 2.29545 2.01832 2.50578 1.8479C2.70199 1.68912 2.9452 1.60194 3.19649 1.59448L3.25189 1.59094H16.3ZM6.59584 16.9423C6.15989 16.9423 5.74082 17.115 5.43247 17.4232C5.12415 17.7315 4.9505 18.1505 4.95039 18.5865C4.95044 19.0226 5.12423 19.4415 5.43247 19.7499C5.74082 20.0581 6.15988 20.2319 6.59584 20.232C7.03182 20.2318 7.45091 20.0582 7.75922 19.7499C8.06743 19.4415 8.24008 19.0225 8.24012 18.5865C8.24002 18.1506 8.06738 17.7315 7.75922 17.4232C7.45093 17.115 7.03172 16.9424 6.59584 16.9423ZM16.4639 16.9423C16.0279 16.9424 15.6088 17.1149 15.3005 17.4232C14.9922 17.7315 14.8197 18.1505 14.8196 18.5865C14.8196 19.0225 14.9924 19.4415 15.3005 19.7499C15.6088 20.058 16.028 20.2319 16.4639 20.232C16.8999 20.2319 17.3189 20.0582 17.6272 19.7499C17.9356 19.4415 18.1093 19.0226 18.1093 18.5865C18.1092 18.1506 17.9354 17.7315 17.6272 17.4232C17.3189 17.1151 16.8997 16.9424 16.4639 16.9423ZM11.0242 4.16757L11.0867 4.3762L11.1385 4.58954C11.2437 5.08757 11.2542 5.60217 11.1692 6.10534L11.1668 6.11713L9.8514 13.682L9.84904 13.6808C9.74118 14.3094 9.48645 14.8976 9.11236 15.4041C9.18287 15.4598 9.25282 15.5179 9.31981 15.5785L9.46597 15.7164L9.60387 15.8626C9.97544 16.2729 10.2563 16.7525 10.4337 17.2688H12.626C12.8248 16.69 13.1529 16.1573 13.5938 15.7164L13.7399 15.5785C14.4843 14.9044 15.4548 14.5284 16.4639 14.5283L16.6654 14.533C17.6014 14.5796 18.4931 14.9495 19.1878 15.5785L19.334 15.7164L19.4731 15.8626C19.8444 16.2728 20.1244 16.7527 20.3017 17.2688H20.6447L21.3224 13.3248H19.3917C16.3928 13.3245 14.12 10.6188 14.6369 7.66475L14.7854 6.81138L14.8491 6.52378C15.0772 5.67601 15.6317 4.97546 16.3601 4.55182C16.3159 4.49657 16.2742 4.439 16.2293 4.38563C16.0839 4.21283 15.9624 4.09015 15.8722 4.00491H10.9664C10.9866 4.05858 11.0064 4.11301 11.0242 4.16757ZM5.49966 11.4601C5.79025 11.4603 6.06975 11.5753 6.27524 11.7808C6.4806 11.9863 6.59584 12.2657 6.59584 12.5563C6.59577 12.847 6.48071 13.1264 6.27524 13.3319C6.06975 13.5374 5.79025 13.6524 5.49966 13.6525H2.20992C1.91929 13.6525 1.63993 13.5373 1.43434 13.3319C1.22878 13.1264 1.11381 12.847 1.11374 12.5563C1.11374 12.2656 1.22877 11.9864 1.43434 11.7808C1.63994 11.5752 1.9192 11.4602 2.20992 11.4601H5.49966ZM17.9997 6.52496C17.5878 6.5251 17.2351 6.82172 17.164 7.22746L17.0143 8.08083C16.7559 9.55777 17.8925 10.9105 19.3917 10.9109H21.234L17.9997 6.52496ZM6.04775 8.17041C6.33832 8.17059 6.61785 8.28554 6.82333 8.49102C7.02872 8.69658 7.14389 8.97601 7.14394 9.2666C7.14389 9.55719 7.02872 9.83662 6.82333 10.0422C6.61785 10.2477 6.33832 10.3626 6.04775 10.3628H1.66183C1.37119 10.3628 1.09185 10.2476 0.88625 10.0422C0.680662 9.83659 0.565694 9.55734 0.565645 9.2666C0.565689 8.97585 0.680657 8.69661 0.88625 8.49102C1.09185 8.2856 1.37118 8.17041 1.66183 8.17041H6.04775ZM6.59584 4.88068C6.8865 4.88079 7.16589 4.99693 7.37143 5.20246C7.57655 5.40793 7.69192 5.68651 7.69203 5.97686C7.69198 6.26747 7.57683 6.54688 7.37143 6.75244C7.16589 6.95798 6.8865 7.07412 6.59584 7.07423H1.11374C0.823072 7.07423 0.543761 6.95789 0.338157 6.75244C0.132613 6.54686 0.0176012 6.26757 0.0175526 5.97686C0.0176646 5.68632 0.132773 5.40797 0.338157 5.20246C0.543778 4.9969 0.822985 4.88068 1.11374 4.88068H6.59584Z" fill="#F1FF24"/>
</svg>
