<svg width="24" height="24" viewBox="0 0 24 24" fill="none" xmlns="http://www.w3.org/2000/svg">
<path fill-rule="evenodd" clip-rule="evenodd" d="M10.8397 4C9.38012 4 7.99337 4.63781 7.04346 5.74604L6.92054 5.88945C6.62705 6.23185 6.22645 6.46502 5.78377 6.55109L5.23652 6.6575C3.35695 7.02297 2 8.6692 2 10.584V13.416C2 15.3308 3.35696 16.977 5.23652 17.3425L5.78377 17.4489C6.22645 17.535 6.62705 17.7681 6.92054 18.1106L7.04346 18.254C7.99337 19.3622 9.38012 20 10.8397 20H11C12.6569 20 14 18.6569 14 17V7C14 5.34315 12.6569 4 11 4H10.8397ZM8.56197 7.04763C9.13192 6.38269 9.96396 6 10.8397 6H11C11.5523 6 12 6.44772 12 7V17C12 17.5523 11.5523 18 11 18H10.8397C9.96397 18 9.13192 17.6173 8.56197 16.9524L8.43905 16.809C7.85207 16.1242 7.05087 15.6578 6.1655 15.4857L5.61826 15.3793C4.67848 15.1965 4 14.3734 4 13.416V10.584C4 9.62658 4.67848 8.80347 5.61826 8.62073L6.1655 8.51433C7.05087 8.34217 7.85207 7.87584 8.43905 7.19103L8.56197 7.04763ZM18.765 8.67155C18.4889 8.19326 17.8773 8.02939 17.399 8.30553C16.9207 8.58167 16.7568 9.19326 17.033 9.67155C17.4417 10.3795 17.6569 11.1825 17.6569 12C17.6569 12.8174 17.4417 13.6205 17.033 14.3284C16.7568 14.8067 16.9207 15.4183 17.399 15.6944C17.8773 15.9706 18.4889 15.8067 18.765 15.3284C19.3493 14.3164 19.6569 13.1685 19.6569 12C19.6569 10.8315 19.3493 9.68353 18.765 8.67155Z" fill="#C6C6C6"/>
</svg>
