<svg width="24" height="24" viewBox="0 0 24 24" fill="none" xmlns="http://www.w3.org/2000/svg">
<path fill-rule="evenodd" clip-rule="evenodd" d="M0 6C0 2.68629 2.68629 0 6 0H18C21.3137 0 24 2.68629 24 6V9.6V14.4V18C24 21.3137 21.3137 24 18 24H6C2.68629 24 0 21.3137 0 18V6ZM21.6 6V7.2H15.6C12.949 7.2 10.8 9.34903 10.8 12C10.8 14.651 12.949 16.8 15.6 16.8H21.6V18C21.6 19.9882 19.9882 21.6 18 21.6H6C4.01178 21.6 2.4 19.9882 2.4 18V6C2.4 4.01178 4.01178 2.4 6 2.4H18C19.9882 2.4 21.6 4.01178 21.6 6ZM15.6 9.6H21.6V14.4H15.6C14.2745 14.4 13.2 13.3255 13.2 12C13.2 10.6745 14.2745 9.6 15.6 9.6ZM15.6 10.8C14.9373 10.8 14.4 11.3373 14.4 12C14.4 12.6627 14.9373 13.2 15.6 13.2H15.72C16.3827 13.2 16.92 12.6627 16.92 12C16.92 11.3373 16.3827 10.8 15.72 10.8H15.6Z" fill="#C6C6C6"/>
</svg>
