<svg width="24" height="24" viewBox="0 0 24 24" fill="none" xmlns="http://www.w3.org/2000/svg">
<path d="M13.6969 13.8108C13.6969 15.2265 12.7794 16.3783 11.6515 16.3783C11.2924 16.3783 11 16.7422 11 17.1892C11 17.6361 11.2924 18 11.6515 18C13.4977 18 15 16.1208 15 13.8108C15 13.3634 14.7076 13 14.3485 13C13.9894 13 13.6969 13.3639 13.6969 13.8108Z" fill="#C6C6C6"/>
<path d="M17.0468 11.5443C16.6083 10.679 16.1306 9.91886 15.0817 8.41722C14.206 7.16365 14.1102 7.0234 13.8017 6.5428C13.3667 5.86531 13.0627 5.3139 12.8445 4.80818L12.841 4.80041C12.7261 4.55874 12.5275 4.40433 12.2666 4.35453L12.2493 4.35134L12.109 4.34768L12.0547 4.35179L12.048 4.35271C11.7894 4.38925 11.5699 4.55874 11.4613 4.80498C11.2916 5.18324 11.102 5.55283 10.8954 5.90688C10.8179 5.79495 10.7387 5.68257 10.6572 5.56653L10.5357 5.39339C9.82959 4.39154 9.56558 3.96987 9.30692 3.4308L9.30291 3.42303C9.18137 3.19142 8.98192 3.0466 8.72682 3.00365L8.7099 3.00091L8.57277 3L8.51935 3.00503L8.51312 3.00594C8.26202 3.04477 8.04743 3.21197 7.93791 3.45456C7.82305 3.71633 7.6601 4.00505 7.42592 4.36367C7.25541 4.62453 7.20199 4.70128 6.71137 5.38974C6.18336 6.13165 5.86325 6.6095 5.57699 7.16274C5.18342 7.92703 5 8.5963 5 9.27014V9.2802C5.06144 10.6676 5.74973 11.833 6.85428 12.4406C6.55599 13.2113 6.29866 14.0569 6.30534 15.0245C6.30534 18.3193 8.92849 21 12.1527 21C15.3769 21 18 18.3197 18 15.0245C18 13.9477 17.6884 12.8093 17.0468 11.5438V11.5443ZM6.5137 9.24867C6.52305 8.83478 6.65394 8.39118 6.91483 7.8914C7.13253 7.47019 7.38007 7.08507 7.9339 6.30707C8.37421 5.68805 8.47483 5.54643 8.62976 5.31116C8.87151 5.68211 9.11414 6.02931 9.31003 6.30525C9.31493 6.3121 9.36836 6.39068 9.99342 7.31121C9.82647 7.55425 9.65596 7.7982 9.49034 8.0353C9.4013 8.16276 9.31226 8.29022 9.22366 8.41768C8.67116 9.20939 8.0501 10.0998 7.52921 11.0372C6.9175 10.6585 6.53418 9.99104 6.51414 9.24867H6.5137ZM12.1527 19.4467C9.76325 19.4467 7.81904 17.4631 7.81904 15.025C7.81904 14.2036 8.07503 13.2995 8.60127 12.2615C9.0024 11.4703 9.4525 10.7562 10.4538 9.32268C11.3095 8.09743 11.4319 7.92109 11.768 7.39755C11.8936 7.20065 12.0245 6.99279 12.1527 6.77625C12.2702 6.97406 12.3962 7.17461 12.5382 7.39847C12.8748 7.92246 12.9968 8.0988 13.852 9.32314C14.8533 10.7567 15.3034 11.4707 15.7045 12.262C16.2308 13.2999 16.4867 14.204 16.4867 15.0254C16.4867 17.4636 14.5425 19.4472 12.1531 19.4472L12.1527 19.4467Z" fill="#C6C6C6"/>
</svg>
